<svg xmlns="http://www.w3.org/2000/svg" xmlns:xlink="http://www.w3.org/1999/xlink" width="600" height="400" viewBox="0 0 2400 1600">
<defs>
  <clipPath id="clip900">
    <rect x="0" y="0" width="2400" height="1600"></rect>
  </clipPath>
</defs>
<path clip-path="url(#clip900)" d="M0 1600 L2400 1600 L2400 0 L0 0  Z" fill="#ffffff" fill-rule="evenodd" fill-opacity="1"></path>
<defs>
  <clipPath id="clip901">
    <rect x="480" y="0" width="1681" height="1600"></rect>
  </clipPath>
</defs>
<path clip-path="url(#clip900)" d="M249.542 1423.18 L2352.76 1423.18 L2352.76 47.2441 L249.542 47.2441  Z" fill="#ffffff" fill-rule="evenodd" fill-opacity="1"></path>
<defs>
  <clipPath id="clip902">
    <rect x="249" y="47" width="2104" height="1377"></rect>
  </clipPath>
</defs>
<polyline clip-path="url(#clip902)" style="stroke:#000000; stroke-linecap:round; stroke-linejoin:round; stroke-width:2; stroke-opacity:0.1; fill:none" points="309.067,1423.18 309.067,47.2441 "></polyline>
<polyline clip-path="url(#clip902)" style="stroke:#000000; stroke-linecap:round; stroke-linejoin:round; stroke-width:2; stroke-opacity:0.1; fill:none" points="745.583,1423.18 745.583,47.2441 "></polyline>
<polyline clip-path="url(#clip902)" style="stroke:#000000; stroke-linecap:round; stroke-linejoin:round; stroke-width:2; stroke-opacity:0.1; fill:none" points="1182.1,1423.18 1182.1,47.2441 "></polyline>
<polyline clip-path="url(#clip902)" style="stroke:#000000; stroke-linecap:round; stroke-linejoin:round; stroke-width:2; stroke-opacity:0.1; fill:none" points="1618.62,1423.18 1618.62,47.2441 "></polyline>
<polyline clip-path="url(#clip902)" style="stroke:#000000; stroke-linecap:round; stroke-linejoin:round; stroke-width:2; stroke-opacity:0.1; fill:none" points="2055.13,1423.18 2055.13,47.2441 "></polyline>
<polyline clip-path="url(#clip900)" style="stroke:#000000; stroke-linecap:round; stroke-linejoin:round; stroke-width:4; stroke-opacity:1; fill:none" points="249.542,1423.18 2352.76,1423.18 "></polyline>
<polyline clip-path="url(#clip900)" style="stroke:#000000; stroke-linecap:round; stroke-linejoin:round; stroke-width:4; stroke-opacity:1; fill:none" points="309.067,1423.18 309.067,1404.28 "></polyline>
<polyline clip-path="url(#clip900)" style="stroke:#000000; stroke-linecap:round; stroke-linejoin:round; stroke-width:4; stroke-opacity:1; fill:none" points="745.583,1423.18 745.583,1404.28 "></polyline>
<polyline clip-path="url(#clip900)" style="stroke:#000000; stroke-linecap:round; stroke-linejoin:round; stroke-width:4; stroke-opacity:1; fill:none" points="1182.1,1423.18 1182.1,1404.28 "></polyline>
<polyline clip-path="url(#clip900)" style="stroke:#000000; stroke-linecap:round; stroke-linejoin:round; stroke-width:4; stroke-opacity:1; fill:none" points="1618.62,1423.18 1618.62,1404.28 "></polyline>
<polyline clip-path="url(#clip900)" style="stroke:#000000; stroke-linecap:round; stroke-linejoin:round; stroke-width:4; stroke-opacity:1; fill:none" points="2055.13,1423.18 2055.13,1404.28 "></polyline>
<path clip-path="url(#clip900)" d="M309.067 1454.1 Q305.456 1454.1 303.627 1457.66 Q301.822 1461.2 301.822 1468.33 Q301.822 1475.44 303.627 1479.01 Q305.456 1482.55 309.067 1482.55 Q312.701 1482.55 314.507 1479.01 Q316.335 1475.44 316.335 1468.33 Q316.335 1461.2 314.507 1457.66 Q312.701 1454.1 309.067 1454.1 M309.067 1450.39 Q314.877 1450.39 317.933 1455 Q321.011 1459.58 321.011 1468.33 Q321.011 1477.06 317.933 1481.67 Q314.877 1486.25 309.067 1486.25 Q303.257 1486.25 300.178 1481.67 Q297.123 1477.06 297.123 1468.33 Q297.123 1459.58 300.178 1455 Q303.257 1450.39 309.067 1450.39 Z" fill="#000000" fill-rule="nonzero" fill-opacity="1"></path><path clip-path="url(#clip900)" d="M740.236 1481.64 L756.555 1481.64 L756.555 1485.58 L734.611 1485.58 L734.611 1481.64 Q737.273 1478.89 741.856 1474.26 Q746.463 1469.61 747.643 1468.27 Q749.889 1465.74 750.768 1464.01 Q751.671 1462.25 751.671 1460.56 Q751.671 1457.8 749.727 1456.07 Q747.805 1454.33 744.703 1454.33 Q742.504 1454.33 740.051 1455.09 Q737.62 1455.86 734.842 1457.41 L734.842 1452.69 Q737.666 1451.55 740.12 1450.97 Q742.574 1450.39 744.611 1450.39 Q749.981 1450.39 753.176 1453.08 Q756.37 1455.77 756.37 1460.26 Q756.37 1462.39 755.56 1464.31 Q754.773 1466.2 752.666 1468.8 Q752.088 1469.47 748.986 1472.69 Q745.884 1475.88 740.236 1481.64 Z" fill="#000000" fill-rule="nonzero" fill-opacity="1"></path><path clip-path="url(#clip900)" d="M1185.11 1455.09 L1173.3 1473.54 L1185.11 1473.54 L1185.11 1455.09 M1183.88 1451.02 L1189.76 1451.02 L1189.76 1473.54 L1194.69 1473.54 L1194.69 1477.43 L1189.76 1477.43 L1189.76 1485.58 L1185.11 1485.58 L1185.11 1477.43 L1169.51 1477.43 L1169.51 1472.92 L1183.88 1451.02 Z" fill="#000000" fill-rule="nonzero" fill-opacity="1"></path><path clip-path="url(#clip900)" d="M1619.02 1466.44 Q1615.87 1466.44 1614.02 1468.59 Q1612.19 1470.74 1612.19 1474.49 Q1612.19 1478.22 1614.02 1480.39 Q1615.87 1482.55 1619.02 1482.55 Q1622.17 1482.55 1624 1480.39 Q1625.85 1478.22 1625.85 1474.49 Q1625.85 1470.74 1624 1468.59 Q1622.17 1466.44 1619.02 1466.44 M1628.3 1451.78 L1628.3 1456.04 Q1626.54 1455.21 1624.74 1454.77 Q1622.96 1454.33 1621.2 1454.33 Q1616.57 1454.33 1614.11 1457.45 Q1611.68 1460.58 1611.34 1466.9 Q1612.7 1464.89 1614.76 1463.82 Q1616.82 1462.73 1619.3 1462.73 Q1624.51 1462.73 1627.52 1465.9 Q1630.55 1469.05 1630.55 1474.49 Q1630.55 1479.82 1627.4 1483.03 Q1624.25 1486.25 1619.02 1486.25 Q1613.02 1486.25 1609.85 1481.67 Q1606.68 1477.06 1606.68 1468.33 Q1606.68 1460.14 1610.57 1455.28 Q1614.46 1450.39 1621.01 1450.39 Q1622.77 1450.39 1624.55 1450.74 Q1626.36 1451.09 1628.3 1451.78 Z" fill="#000000" fill-rule="nonzero" fill-opacity="1"></path><path clip-path="url(#clip900)" d="M2055.13 1469.17 Q2051.8 1469.17 2049.88 1470.95 Q2047.98 1472.73 2047.98 1475.86 Q2047.98 1478.98 2049.88 1480.77 Q2051.8 1482.55 2055.13 1482.55 Q2058.46 1482.55 2060.39 1480.77 Q2062.31 1478.96 2062.31 1475.86 Q2062.31 1472.73 2060.39 1470.95 Q2058.49 1469.17 2055.13 1469.17 M2050.46 1467.18 Q2047.45 1466.44 2045.76 1464.38 Q2044.09 1462.32 2044.09 1459.35 Q2044.09 1455.21 2047.03 1452.8 Q2049.99 1450.39 2055.13 1450.39 Q2060.29 1450.39 2063.23 1452.8 Q2066.17 1455.21 2066.17 1459.35 Q2066.17 1462.32 2064.48 1464.38 Q2062.82 1466.44 2059.83 1467.18 Q2063.21 1467.96 2065.08 1470.26 Q2066.98 1472.55 2066.98 1475.86 Q2066.98 1480.88 2063.9 1483.57 Q2060.85 1486.25 2055.13 1486.25 Q2049.41 1486.25 2046.34 1483.57 Q2043.28 1480.88 2043.28 1475.86 Q2043.28 1472.55 2045.18 1470.26 Q2047.08 1467.96 2050.46 1467.18 M2048.74 1459.79 Q2048.74 1462.48 2050.41 1463.98 Q2052.1 1465.49 2055.13 1465.49 Q2058.14 1465.49 2059.83 1463.98 Q2061.54 1462.48 2061.54 1459.79 Q2061.54 1457.11 2059.83 1455.6 Q2058.14 1454.1 2055.13 1454.1 Q2052.1 1454.1 2050.41 1455.6 Q2048.74 1457.11 2048.74 1459.79 Z" fill="#000000" fill-rule="nonzero" fill-opacity="1"></path><path clip-path="url(#clip900)" d="M1144.23 1522.27 L1144.23 1532.4 L1156.3 1532.4 L1156.3 1536.95 L1144.23 1536.95 L1144.23 1556.3 Q1144.23 1560.66 1145.41 1561.9 Q1146.62 1563.14 1150.28 1563.14 L1156.3 1563.14 L1156.3 1568.04 L1150.28 1568.04 Q1143.5 1568.04 1140.92 1565.53 Q1138.35 1562.98 1138.35 1556.3 L1138.35 1536.95 L1134.05 1536.95 L1134.05 1532.4 L1138.35 1532.4 L1138.35 1522.27 L1144.23 1522.27 Z" fill="#000000" fill-rule="nonzero" fill-opacity="1"></path><path clip-path="url(#clip900)" d="M1164 1532.4 L1169.86 1532.4 L1169.86 1568.04 L1164 1568.04 L1164 1532.4 M1164 1518.52 L1169.86 1518.52 L1169.86 1525.93 L1164 1525.93 L1164 1518.52 Z" fill="#000000" fill-rule="nonzero" fill-opacity="1"></path><path clip-path="url(#clip900)" d="M1209.86 1539.24 Q1212.06 1535.29 1215.12 1533.41 Q1218.17 1531.54 1222.31 1531.54 Q1227.88 1531.54 1230.9 1535.45 Q1233.93 1539.33 1233.93 1546.53 L1233.93 1568.04 L1228.04 1568.04 L1228.04 1546.72 Q1228.04 1541.59 1226.22 1539.11 Q1224.41 1536.63 1220.69 1536.63 Q1216.13 1536.63 1213.49 1539.65 Q1210.85 1542.68 1210.85 1547.9 L1210.85 1568.04 L1204.96 1568.04 L1204.96 1546.72 Q1204.96 1541.56 1203.15 1539.11 Q1201.33 1536.63 1197.55 1536.63 Q1193.06 1536.63 1190.42 1539.68 Q1187.78 1542.71 1187.78 1547.9 L1187.78 1568.04 L1181.89 1568.04 L1181.89 1532.4 L1187.78 1532.4 L1187.78 1537.93 Q1189.78 1534.66 1192.58 1533.1 Q1195.38 1531.54 1199.23 1531.54 Q1203.12 1531.54 1205.82 1533.51 Q1208.56 1535.48 1209.86 1539.24 Z" fill="#000000" fill-rule="nonzero" fill-opacity="1"></path><path clip-path="url(#clip900)" d="M1276.1 1548.76 L1276.1 1551.62 L1249.17 1551.62 Q1249.55 1557.67 1252.8 1560.85 Q1256.08 1564 1261.9 1564 Q1265.28 1564 1268.43 1563.17 Q1271.61 1562.35 1274.73 1560.69 L1274.73 1566.23 Q1271.58 1567.57 1268.27 1568.27 Q1264.96 1568.97 1261.55 1568.97 Q1253.02 1568.97 1248.03 1564 Q1243.06 1559.04 1243.06 1550.57 Q1243.06 1541.82 1247.77 1536.69 Q1252.51 1531.54 1260.54 1531.54 Q1267.73 1531.54 1271.9 1536.18 Q1276.1 1540.8 1276.1 1548.76 M1270.24 1547.04 Q1270.18 1542.23 1267.54 1539.37 Q1264.93 1536.5 1260.6 1536.5 Q1255.7 1536.5 1252.74 1539.27 Q1249.81 1542.04 1249.36 1547.07 L1270.24 1547.04 Z" fill="#000000" fill-rule="nonzero" fill-opacity="1"></path><path clip-path="url(#clip900)" d="M1320.5 1518.58 Q1316.24 1525.9 1314.17 1533.06 Q1312.1 1540.23 1312.1 1547.58 Q1312.1 1554.93 1314.17 1562.16 Q1316.27 1569.35 1320.5 1576.64 L1315.41 1576.64 Q1310.63 1569.16 1308.25 1561.93 Q1305.89 1554.71 1305.89 1547.58 Q1305.89 1540.48 1308.25 1533.29 Q1310.6 1526.09 1315.41 1518.58 L1320.5 1518.58 Z" fill="#000000" fill-rule="nonzero" fill-opacity="1"></path><path clip-path="url(#clip900)" d="M1348.06 1550.12 Q1340.97 1550.12 1338.23 1551.75 Q1335.49 1553.37 1335.49 1557.29 Q1335.49 1560.4 1337.53 1562.25 Q1339.6 1564.07 1343.13 1564.07 Q1348 1564.07 1350.93 1560.63 Q1353.89 1557.16 1353.89 1551.43 L1353.89 1550.12 L1348.06 1550.12 M1359.75 1547.71 L1359.75 1568.04 L1353.89 1568.04 L1353.89 1562.63 Q1351.88 1565.88 1348.89 1567.44 Q1345.9 1568.97 1341.57 1568.97 Q1336.1 1568.97 1332.85 1565.91 Q1329.64 1562.82 1329.64 1557.67 Q1329.64 1551.65 1333.65 1548.6 Q1337.69 1545.54 1345.68 1545.54 L1353.89 1545.54 L1353.89 1544.97 Q1353.89 1540.93 1351.22 1538.73 Q1348.57 1536.5 1343.77 1536.5 Q1340.71 1536.5 1337.82 1537.23 Q1334.92 1537.97 1332.25 1539.43 L1332.25 1534.02 Q1335.46 1532.78 1338.48 1532.17 Q1341.51 1531.54 1344.37 1531.54 Q1352.11 1531.54 1355.93 1535.55 Q1359.75 1539.56 1359.75 1547.71 Z" fill="#000000" fill-rule="nonzero" fill-opacity="1"></path><path clip-path="url(#clip900)" d="M1372.64 1559.96 L1379.35 1559.96 L1379.35 1568.04 L1372.64 1568.04 L1372.64 1559.96 Z" fill="#000000" fill-rule="nonzero" fill-opacity="1"></path><path clip-path="url(#clip900)" d="M1391.92 1553.98 L1391.92 1532.4 L1397.78 1532.4 L1397.78 1553.75 Q1397.78 1558.81 1399.75 1561.36 Q1401.73 1563.87 1405.67 1563.87 Q1410.42 1563.87 1413.15 1560.85 Q1415.92 1557.83 1415.92 1552.61 L1415.92 1532.4 L1421.78 1532.4 L1421.78 1568.04 L1415.92 1568.04 L1415.92 1562.57 Q1413.79 1565.82 1410.96 1567.41 Q1408.16 1568.97 1404.43 1568.97 Q1398.29 1568.97 1395.11 1565.15 Q1391.92 1561.33 1391.92 1553.98 M1406.66 1531.54 L1406.66 1531.54 Z" fill="#000000" fill-rule="nonzero" fill-opacity="1"></path><path clip-path="url(#clip900)" d="M1434.67 1559.96 L1441.39 1559.96 L1441.39 1568.04 L1434.67 1568.04 L1434.67 1559.96 Z" fill="#000000" fill-rule="nonzero" fill-opacity="1"></path><path clip-path="url(#clip900)" d="M1453.64 1518.58 L1458.73 1518.58 Q1463.51 1526.09 1465.86 1533.29 Q1468.25 1540.48 1468.25 1547.58 Q1468.25 1554.71 1465.86 1561.93 Q1463.51 1569.16 1458.73 1576.64 L1453.64 1576.64 Q1457.87 1569.35 1459.94 1562.16 Q1462.04 1554.93 1462.04 1547.58 Q1462.04 1540.23 1459.94 1533.06 Q1457.87 1525.9 1453.64 1518.58 Z" fill="#000000" fill-rule="nonzero" fill-opacity="1"></path><polyline clip-path="url(#clip902)" style="stroke:#000000; stroke-linecap:round; stroke-linejoin:round; stroke-width:2; stroke-opacity:0.1; fill:none" points="249.542,1413.88 2352.76,1413.88 "></polyline>
<polyline clip-path="url(#clip902)" style="stroke:#000000; stroke-linecap:round; stroke-linejoin:round; stroke-width:2; stroke-opacity:0.1; fill:none" points="249.542,1134.82 2352.76,1134.82 "></polyline>
<polyline clip-path="url(#clip902)" style="stroke:#000000; stroke-linecap:round; stroke-linejoin:round; stroke-width:2; stroke-opacity:0.1; fill:none" points="249.542,855.769 2352.76,855.769 "></polyline>
<polyline clip-path="url(#clip902)" style="stroke:#000000; stroke-linecap:round; stroke-linejoin:round; stroke-width:2; stroke-opacity:0.1; fill:none" points="249.542,576.713 2352.76,576.713 "></polyline>
<polyline clip-path="url(#clip902)" style="stroke:#000000; stroke-linecap:round; stroke-linejoin:round; stroke-width:2; stroke-opacity:0.1; fill:none" points="249.542,297.656 2352.76,297.656 "></polyline>
<polyline clip-path="url(#clip900)" style="stroke:#000000; stroke-linecap:round; stroke-linejoin:round; stroke-width:4; stroke-opacity:1; fill:none" points="249.542,1423.18 249.542,47.2441 "></polyline>
<polyline clip-path="url(#clip900)" style="stroke:#000000; stroke-linecap:round; stroke-linejoin:round; stroke-width:4; stroke-opacity:1; fill:none" points="249.542,1413.88 268.44,1413.88 "></polyline>
<polyline clip-path="url(#clip900)" style="stroke:#000000; stroke-linecap:round; stroke-linejoin:round; stroke-width:4; stroke-opacity:1; fill:none" points="249.542,1134.82 268.44,1134.82 "></polyline>
<polyline clip-path="url(#clip900)" style="stroke:#000000; stroke-linecap:round; stroke-linejoin:round; stroke-width:4; stroke-opacity:1; fill:none" points="249.542,855.769 268.44,855.769 "></polyline>
<polyline clip-path="url(#clip900)" style="stroke:#000000; stroke-linecap:round; stroke-linejoin:round; stroke-width:4; stroke-opacity:1; fill:none" points="249.542,576.713 268.44,576.713 "></polyline>
<polyline clip-path="url(#clip900)" style="stroke:#000000; stroke-linecap:round; stroke-linejoin:round; stroke-width:4; stroke-opacity:1; fill:none" points="249.542,297.656 268.44,297.656 "></polyline>
<path clip-path="url(#clip900)" d="M126.205 1399.68 Q122.593 1399.68 120.765 1403.24 Q118.959 1406.79 118.959 1413.92 Q118.959 1421.02 120.765 1424.59 Q122.593 1428.13 126.205 1428.13 Q129.839 1428.13 131.644 1424.59 Q133.473 1421.02 133.473 1413.92 Q133.473 1406.79 131.644 1403.24 Q129.839 1399.68 126.205 1399.68 M126.205 1395.98 Q132.015 1395.98 135.07 1400.58 Q138.149 1405.17 138.149 1413.92 Q138.149 1422.64 135.07 1427.25 Q132.015 1431.83 126.205 1431.83 Q120.394 1431.83 117.316 1427.25 Q114.26 1422.64 114.26 1413.92 Q114.26 1405.17 117.316 1400.58 Q120.394 1395.98 126.205 1395.98 Z" fill="#000000" fill-rule="nonzero" fill-opacity="1"></path><path clip-path="url(#clip900)" d="M146.366 1425.28 L151.251 1425.28 L151.251 1431.16 L146.366 1431.16 L146.366 1425.28 Z" fill="#000000" fill-rule="nonzero" fill-opacity="1"></path><path clip-path="url(#clip900)" d="M171.436 1399.68 Q167.825 1399.68 165.996 1403.24 Q164.19 1406.79 164.19 1413.92 Q164.19 1421.02 165.996 1424.59 Q167.825 1428.13 171.436 1428.13 Q175.07 1428.13 176.876 1424.59 Q178.704 1421.02 178.704 1413.92 Q178.704 1406.79 176.876 1403.24 Q175.07 1399.68 171.436 1399.68 M171.436 1395.98 Q177.246 1395.98 180.301 1400.58 Q183.38 1405.17 183.38 1413.92 Q183.38 1422.64 180.301 1427.25 Q177.246 1431.83 171.436 1431.83 Q165.626 1431.83 162.547 1427.25 Q159.491 1422.64 159.491 1413.92 Q159.491 1405.17 162.547 1400.58 Q165.626 1395.98 171.436 1395.98 Z" fill="#000000" fill-rule="nonzero" fill-opacity="1"></path><path clip-path="url(#clip900)" d="M201.598 1399.68 Q197.987 1399.68 196.158 1403.24 Q194.352 1406.79 194.352 1413.92 Q194.352 1421.02 196.158 1424.59 Q197.987 1428.13 201.598 1428.13 Q205.232 1428.13 207.037 1424.59 Q208.866 1421.02 208.866 1413.92 Q208.866 1406.79 207.037 1403.24 Q205.232 1399.68 201.598 1399.68 M201.598 1395.98 Q207.408 1395.98 210.463 1400.58 Q213.542 1405.17 213.542 1413.92 Q213.542 1422.64 210.463 1427.25 Q207.408 1431.83 201.598 1431.83 Q195.787 1431.83 192.709 1427.25 Q189.653 1422.64 189.653 1413.92 Q189.653 1405.17 192.709 1400.58 Q195.787 1395.98 201.598 1395.98 Z" fill="#000000" fill-rule="nonzero" fill-opacity="1"></path><path clip-path="url(#clip900)" d="M127.2 1120.62 Q123.589 1120.62 121.76 1124.19 Q119.955 1127.73 119.955 1134.86 Q119.955 1141.97 121.76 1145.53 Q123.589 1149.07 127.2 1149.07 Q130.834 1149.07 132.64 1145.53 Q134.468 1141.97 134.468 1134.86 Q134.468 1127.73 132.64 1124.19 Q130.834 1120.62 127.2 1120.62 M127.2 1116.92 Q133.01 1116.92 136.066 1121.53 Q139.144 1126.11 139.144 1134.86 Q139.144 1143.59 136.066 1148.19 Q133.01 1152.78 127.2 1152.78 Q121.39 1152.78 118.311 1148.19 Q115.256 1143.59 115.256 1134.86 Q115.256 1126.11 118.311 1121.53 Q121.39 1116.92 127.2 1116.92 Z" fill="#000000" fill-rule="nonzero" fill-opacity="1"></path><path clip-path="url(#clip900)" d="M147.362 1146.23 L152.246 1146.23 L152.246 1152.1 L147.362 1152.1 L147.362 1146.23 Z" fill="#000000" fill-rule="nonzero" fill-opacity="1"></path><path clip-path="url(#clip900)" d="M166.459 1148.17 L182.778 1148.17 L182.778 1152.1 L160.834 1152.1 L160.834 1148.17 Q163.496 1145.42 168.079 1140.79 Q172.686 1136.13 173.866 1134.79 Q176.112 1132.27 176.991 1130.53 Q177.894 1128.77 177.894 1127.08 Q177.894 1124.33 175.95 1122.59 Q174.028 1120.86 170.927 1120.86 Q168.727 1120.86 166.274 1121.62 Q163.843 1122.38 161.065 1123.93 L161.065 1119.21 Q163.89 1118.08 166.343 1117.5 Q168.797 1116.92 170.834 1116.92 Q176.204 1116.92 179.399 1119.61 Q182.593 1122.29 182.593 1126.78 Q182.593 1128.91 181.783 1130.83 Q180.996 1132.73 178.889 1135.32 Q178.311 1135.99 175.209 1139.21 Q172.107 1142.41 166.459 1148.17 Z" fill="#000000" fill-rule="nonzero" fill-opacity="1"></path><path clip-path="url(#clip900)" d="M192.639 1117.54 L210.996 1117.54 L210.996 1121.48 L196.922 1121.48 L196.922 1129.95 Q197.94 1129.6 198.959 1129.44 Q199.977 1129.26 200.996 1129.26 Q206.783 1129.26 210.162 1132.43 Q213.542 1135.6 213.542 1141.02 Q213.542 1146.6 210.07 1149.7 Q206.598 1152.78 200.278 1152.78 Q198.102 1152.78 195.834 1152.41 Q193.588 1152.04 191.181 1151.29 L191.181 1146.6 Q193.264 1147.73 195.487 1148.29 Q197.709 1148.84 200.186 1148.84 Q204.19 1148.84 206.528 1146.73 Q208.866 1144.63 208.866 1141.02 Q208.866 1137.41 206.528 1135.3 Q204.19 1133.19 200.186 1133.19 Q198.311 1133.19 196.436 1133.61 Q194.584 1134.03 192.639 1134.91 L192.639 1117.54 Z" fill="#000000" fill-rule="nonzero" fill-opacity="1"></path><path clip-path="url(#clip900)" d="M126.205 841.567 Q122.593 841.567 120.765 845.132 Q118.959 848.674 118.959 855.803 Q118.959 862.91 120.765 866.475 Q122.593 870.016 126.205 870.016 Q129.839 870.016 131.644 866.475 Q133.473 862.91 133.473 855.803 Q133.473 848.674 131.644 845.132 Q129.839 841.567 126.205 841.567 M126.205 837.864 Q132.015 837.864 135.07 842.47 Q138.149 847.053 138.149 855.803 Q138.149 864.53 135.07 869.137 Q132.015 873.72 126.205 873.72 Q120.394 873.72 117.316 869.137 Q114.26 864.53 114.26 855.803 Q114.26 847.053 117.316 842.47 Q120.394 837.864 126.205 837.864 Z" fill="#000000" fill-rule="nonzero" fill-opacity="1"></path><path clip-path="url(#clip900)" d="M146.366 867.169 L151.251 867.169 L151.251 873.049 L146.366 873.049 L146.366 867.169 Z" fill="#000000" fill-rule="nonzero" fill-opacity="1"></path><path clip-path="url(#clip900)" d="M161.482 838.489 L179.839 838.489 L179.839 842.424 L165.765 842.424 L165.765 850.896 Q166.783 850.549 167.802 850.387 Q168.82 850.202 169.839 850.202 Q175.626 850.202 179.005 853.373 Q182.385 856.544 182.385 861.961 Q182.385 867.539 178.913 870.641 Q175.44 873.72 169.121 873.72 Q166.945 873.72 164.677 873.35 Q162.431 872.979 160.024 872.239 L160.024 867.539 Q162.107 868.674 164.329 869.229 Q166.552 869.785 169.028 869.785 Q173.033 869.785 175.371 867.678 Q177.709 865.572 177.709 861.961 Q177.709 858.35 175.371 856.243 Q173.033 854.137 169.028 854.137 Q167.153 854.137 165.278 854.553 Q163.427 854.97 161.482 855.85 L161.482 838.489 Z" fill="#000000" fill-rule="nonzero" fill-opacity="1"></path><path clip-path="url(#clip900)" d="M201.598 841.567 Q197.987 841.567 196.158 845.132 Q194.352 848.674 194.352 855.803 Q194.352 862.91 196.158 866.475 Q197.987 870.016 201.598 870.016 Q205.232 870.016 207.037 866.475 Q208.866 862.91 208.866 855.803 Q208.866 848.674 207.037 845.132 Q205.232 841.567 201.598 841.567 M201.598 837.864 Q207.408 837.864 210.463 842.47 Q213.542 847.053 213.542 855.803 Q213.542 864.53 210.463 869.137 Q207.408 873.72 201.598 873.72 Q195.787 873.72 192.709 869.137 Q189.653 864.53 189.653 855.803 Q189.653 847.053 192.709 842.47 Q195.787 837.864 201.598 837.864 Z" fill="#000000" fill-rule="nonzero" fill-opacity="1"></path><path clip-path="url(#clip900)" d="M127.2 562.511 Q123.589 562.511 121.76 566.076 Q119.955 569.618 119.955 576.747 Q119.955 583.854 121.76 587.418 Q123.589 590.96 127.2 590.96 Q130.834 590.96 132.64 587.418 Q134.468 583.854 134.468 576.747 Q134.468 569.618 132.64 566.076 Q130.834 562.511 127.2 562.511 M127.2 558.808 Q133.01 558.808 136.066 563.414 Q139.144 567.997 139.144 576.747 Q139.144 585.474 136.066 590.081 Q133.01 594.664 127.2 594.664 Q121.39 594.664 118.311 590.081 Q115.256 585.474 115.256 576.747 Q115.256 567.997 118.311 563.414 Q121.39 558.808 127.2 558.808 Z" fill="#000000" fill-rule="nonzero" fill-opacity="1"></path><path clip-path="url(#clip900)" d="M147.362 588.113 L152.246 588.113 L152.246 593.993 L147.362 593.993 L147.362 588.113 Z" fill="#000000" fill-rule="nonzero" fill-opacity="1"></path><path clip-path="url(#clip900)" d="M161.251 559.433 L183.473 559.433 L183.473 561.423 L170.927 593.993 L166.042 593.993 L177.848 563.368 L161.251 563.368 L161.251 559.433 Z" fill="#000000" fill-rule="nonzero" fill-opacity="1"></path><path clip-path="url(#clip900)" d="M192.639 559.433 L210.996 559.433 L210.996 563.368 L196.922 563.368 L196.922 571.84 Q197.94 571.493 198.959 571.331 Q199.977 571.145 200.996 571.145 Q206.783 571.145 210.162 574.317 Q213.542 577.488 213.542 582.905 Q213.542 588.483 210.07 591.585 Q206.598 594.664 200.278 594.664 Q198.102 594.664 195.834 594.293 Q193.588 593.923 191.181 593.182 L191.181 588.483 Q193.264 589.618 195.487 590.173 Q197.709 590.729 200.186 590.729 Q204.19 590.729 206.528 588.622 Q208.866 586.516 208.866 582.905 Q208.866 579.294 206.528 577.187 Q204.19 575.081 200.186 575.081 Q198.311 575.081 196.436 575.497 Q194.584 575.914 192.639 576.794 L192.639 559.433 Z" fill="#000000" fill-rule="nonzero" fill-opacity="1"></path><path clip-path="url(#clip900)" d="M117.015 311.001 L124.654 311.001 L124.654 284.636 L116.343 286.302 L116.343 282.043 L124.607 280.376 L129.283 280.376 L129.283 311.001 L136.922 311.001 L136.922 314.936 L117.015 314.936 L117.015 311.001 Z" fill="#000000" fill-rule="nonzero" fill-opacity="1"></path><path clip-path="url(#clip900)" d="M146.366 309.057 L151.251 309.057 L151.251 314.936 L146.366 314.936 L146.366 309.057 Z" fill="#000000" fill-rule="nonzero" fill-opacity="1"></path><path clip-path="url(#clip900)" d="M171.436 283.455 Q167.825 283.455 165.996 287.02 Q164.19 290.562 164.19 297.691 Q164.19 304.798 165.996 308.362 Q167.825 311.904 171.436 311.904 Q175.07 311.904 176.876 308.362 Q178.704 304.798 178.704 297.691 Q178.704 290.562 176.876 287.02 Q175.07 283.455 171.436 283.455 M171.436 279.751 Q177.246 279.751 180.301 284.358 Q183.38 288.941 183.38 297.691 Q183.38 306.418 180.301 311.024 Q177.246 315.608 171.436 315.608 Q165.626 315.608 162.547 311.024 Q159.491 306.418 159.491 297.691 Q159.491 288.941 162.547 284.358 Q165.626 279.751 171.436 279.751 Z" fill="#000000" fill-rule="nonzero" fill-opacity="1"></path><path clip-path="url(#clip900)" d="M201.598 283.455 Q197.987 283.455 196.158 287.02 Q194.352 290.562 194.352 297.691 Q194.352 304.798 196.158 308.362 Q197.987 311.904 201.598 311.904 Q205.232 311.904 207.037 308.362 Q208.866 304.798 208.866 297.691 Q208.866 290.562 207.037 287.02 Q205.232 283.455 201.598 283.455 M201.598 279.751 Q207.408 279.751 210.463 284.358 Q213.542 288.941 213.542 297.691 Q213.542 306.418 210.463 311.024 Q207.408 315.608 201.598 315.608 Q195.787 315.608 192.709 311.024 Q189.653 306.418 189.653 297.691 Q189.653 288.941 192.709 284.358 Q195.787 279.751 201.598 279.751 Z" fill="#000000" fill-rule="nonzero" fill-opacity="1"></path><path clip-path="url(#clip900)" d="M14.479 1100.19 L14.479 1094.33 L64.0042 1094.33 L64.0042 1100.19 L14.479 1100.19 Z" fill="#000000" fill-rule="nonzero" fill-opacity="1"></path><path clip-path="url(#clip900)" d="M44.7161 1051.59 L47.5806 1051.59 L47.5806 1078.51 Q53.6281 1078.13 56.8109 1074.89 Q59.9619 1071.61 59.9619 1065.78 Q59.9619 1062.41 59.1344 1059.26 Q58.3069 1056.08 56.6518 1052.96 L62.1899 1052.96 Q63.5267 1056.11 64.227 1059.42 Q64.9272 1062.73 64.9272 1066.13 Q64.9272 1074.66 59.9619 1079.66 Q54.9967 1084.63 46.5303 1084.63 Q37.7774 1084.63 32.6531 1079.91 Q27.4968 1075.17 27.4968 1067.15 Q27.4968 1059.96 32.1438 1055.79 Q36.7589 1051.59 44.7161 1051.59 M42.9973 1057.44 Q38.1912 1057.51 35.3266 1060.15 Q32.4621 1062.76 32.4621 1067.09 Q32.4621 1071.99 35.2312 1074.95 Q38.0002 1077.88 43.0292 1078.32 L42.9973 1057.44 Z" fill="#000000" fill-rule="nonzero" fill-opacity="1"></path><path clip-path="url(#clip900)" d="M42.4881 1012.34 L64.0042 1012.34 L64.0042 1018.2 L42.679 1018.2 Q37.6183 1018.2 35.1038 1020.17 Q32.5894 1022.15 32.5894 1026.09 Q32.5894 1030.84 35.6131 1033.57 Q38.6368 1036.31 43.8567 1036.31 L64.0042 1036.31 L64.0042 1042.2 L28.3562 1042.2 L28.3562 1036.31 L33.8944 1036.31 Q30.6797 1034.21 29.0883 1031.38 Q27.4968 1028.51 27.4968 1024.79 Q27.4968 1018.65 31.3163 1015.49 Q35.1038 1012.34 42.4881 1012.34 Z" fill="#000000" fill-rule="nonzero" fill-opacity="1"></path><path clip-path="url(#clip900)" d="M45.7664 977.204 Q39.4007 977.204 35.8996 979.846 Q32.3984 982.456 32.3984 987.198 Q32.3984 991.909 35.8996 994.551 Q39.4007 997.161 45.7664 997.161 Q52.1003 997.161 55.6014 994.551 Q59.1026 991.909 59.1026 987.198 Q59.1026 982.456 55.6014 979.846 Q52.1003 977.204 45.7664 977.204 M59.58 971.348 Q68.683 971.348 73.1071 975.39 Q77.5631 979.432 77.5631 987.771 Q77.5631 990.859 77.0857 993.596 Q76.6401 996.333 75.6852 998.911 L69.9879 998.911 Q71.3884 996.333 72.0568 993.819 Q72.7252 991.304 72.7252 988.694 Q72.7252 982.933 69.7015 980.069 Q66.7096 977.204 60.6303 977.204 L57.7339 977.204 Q60.885 979.019 62.4446 981.851 Q64.0042 984.684 64.0042 988.631 Q64.0042 995.187 59.0071 999.198 Q54.01 1003.21 45.7664 1003.21 Q37.491 1003.21 32.4939 999.198 Q27.4968 995.187 27.4968 988.631 Q27.4968 984.684 29.0564 981.851 Q30.616 979.019 33.7671 977.204 L28.3562 977.204 L28.3562 971.348 L59.58 971.348 Z" fill="#000000" fill-rule="nonzero" fill-opacity="1"></path><path clip-path="url(#clip900)" d="M18.2347 953.492 L28.3562 953.492 L28.3562 941.429 L32.9077 941.429 L32.9077 953.492 L52.2594 953.492 Q56.6199 953.492 57.8613 952.314 Q59.1026 951.105 59.1026 947.445 L59.1026 941.429 L64.0042 941.429 L64.0042 947.445 Q64.0042 954.224 61.4897 956.802 Q58.9434 959.38 52.2594 959.38 L32.9077 959.38 L32.9077 963.677 L28.3562 963.677 L28.3562 959.38 L18.2347 959.38 L18.2347 953.492 Z" fill="#000000" fill-rule="nonzero" fill-opacity="1"></path><path clip-path="url(#clip900)" d="M42.4881 904.094 L64.0042 904.094 L64.0042 909.951 L42.679 909.951 Q37.6183 909.951 35.1038 911.924 Q32.5894 913.897 32.5894 917.844 Q32.5894 922.587 35.6131 925.324 Q38.6368 928.061 43.8567 928.061 L64.0042 928.061 L64.0042 933.949 L14.479 933.949 L14.479 928.061 L33.8944 928.061 Q30.6797 925.96 29.0883 923.128 Q27.4968 920.263 27.4968 916.539 Q27.4968 910.396 31.3163 907.245 Q35.1038 904.094 42.4881 904.094 Z" fill="#000000" fill-rule="nonzero" fill-opacity="1"></path><path clip-path="url(#clip900)" d="M14.5426 857.625 Q21.8632 861.89 29.0246 863.958 Q36.186 866.027 43.5384 866.027 Q50.8908 866.027 58.1159 863.958 Q65.3091 861.858 72.5979 857.625 L72.5979 862.717 Q65.1182 867.491 57.8931 869.878 Q50.668 872.234 43.5384 872.234 Q36.4406 872.234 29.2474 869.878 Q22.0542 867.523 14.5426 862.717 L14.5426 857.625 Z" fill="#000000" fill-rule="nonzero" fill-opacity="1"></path><path clip-path="url(#clip900)" d="M29.7248 820.608 L35.1993 820.608 Q33.8307 823.091 33.1623 825.605 Q32.4621 828.088 32.4621 830.634 Q32.4621 836.331 36.0905 839.482 Q39.6872 842.633 46.212 842.633 Q52.7369 842.633 56.3653 839.482 Q59.9619 836.331 59.9619 830.634 Q59.9619 828.088 59.2935 825.605 Q58.5933 823.091 57.2247 820.608 L62.6355 820.608 Q63.7814 823.059 64.3543 825.7 Q64.9272 828.31 64.9272 831.27 Q64.9272 839.323 59.8664 844.066 Q54.8057 848.808 46.212 848.808 Q37.491 848.808 32.4939 844.034 Q27.4968 839.228 27.4968 830.889 Q27.4968 828.183 28.0697 825.605 Q28.6108 823.027 29.7248 820.608 Z" fill="#000000" fill-rule="nonzero" fill-opacity="1"></path><path clip-path="url(#clip900)" d="M44.7161 779.931 L47.5806 779.931 L47.5806 806.858 Q53.6281 806.476 56.8109 803.23 Q59.9619 799.951 59.9619 794.127 Q59.9619 790.753 59.1344 787.602 Q58.3069 784.419 56.6518 781.3 L62.1899 781.3 Q63.5267 784.451 64.227 787.761 Q64.9272 791.071 64.9272 794.477 Q64.9272 803.007 59.9619 808.004 Q54.9967 812.969 46.5303 812.969 Q37.7774 812.969 32.6531 808.258 Q27.4968 803.516 27.4968 795.495 Q27.4968 788.302 32.1438 784.132 Q36.7589 779.931 44.7161 779.931 M42.9973 785.788 Q38.1912 785.851 35.3266 788.493 Q32.4621 791.103 32.4621 795.432 Q32.4621 800.333 35.2312 803.293 Q38.0002 806.221 43.0292 806.667 L42.9973 785.788 Z" fill="#000000" fill-rule="nonzero" fill-opacity="1"></path><path clip-path="url(#clip900)" d="M14.479 770.319 L14.479 764.462 L64.0042 764.462 L64.0042 770.319 L14.479 770.319 Z" fill="#000000" fill-rule="nonzero" fill-opacity="1"></path><path clip-path="url(#clip900)" d="M14.479 752.208 L14.479 746.352 L64.0042 746.352 L64.0042 752.208 L14.479 752.208 Z" fill="#000000" fill-rule="nonzero" fill-opacity="1"></path><path clip-path="url(#clip900)" d="M33.7671 689.92 L14.479 689.92 L14.479 684.064 L64.0042 684.064 L64.0042 689.92 L58.657 689.92 Q61.8398 691.766 63.3994 694.599 Q64.9272 697.4 64.9272 701.346 Q64.9272 707.808 59.771 711.882 Q54.6147 715.924 46.212 715.924 Q37.8093 715.924 32.6531 711.882 Q27.4968 707.808 27.4968 701.346 Q27.4968 697.4 29.0564 694.599 Q30.5842 691.766 33.7671 689.92 M46.212 709.876 Q52.6732 709.876 56.3653 707.235 Q60.0256 704.561 60.0256 699.914 Q60.0256 695.267 56.3653 692.594 Q52.6732 689.92 46.212 689.92 Q39.7508 689.92 36.0905 692.594 Q32.3984 695.267 32.3984 699.914 Q32.3984 704.561 36.0905 707.235 Q39.7508 709.876 46.212 709.876 Z" fill="#000000" fill-rule="nonzero" fill-opacity="1"></path><path clip-path="url(#clip900)" d="M28.3562 672.001 L28.3562 666.144 L64.0042 666.144 L64.0042 672.001 L28.3562 672.001 M14.479 672.001 L14.479 666.144 L21.895 666.144 L21.895 672.001 L14.479 672.001 Z" fill="#000000" fill-rule="nonzero" fill-opacity="1"></path><path clip-path="url(#clip900)" d="M46.0847 637.689 Q46.0847 644.787 47.7079 647.524 Q49.3312 650.262 53.2461 650.262 Q56.3653 650.262 58.2114 648.225 Q60.0256 646.156 60.0256 642.623 Q60.0256 637.753 56.5881 634.825 Q53.1188 631.865 47.3897 631.865 L46.0847 631.865 L46.0847 637.689 M43.6657 626.008 L64.0042 626.008 L64.0042 631.865 L58.5933 631.865 Q61.8398 633.87 63.3994 636.862 Q64.9272 639.854 64.9272 644.182 Q64.9272 649.657 61.8716 652.903 Q58.7843 656.118 53.6281 656.118 Q47.6125 656.118 44.5569 652.108 Q41.5014 648.065 41.5014 640.076 L41.5014 631.865 L40.9285 631.865 Q36.8862 631.865 34.6901 634.538 Q32.4621 637.18 32.4621 641.986 Q32.4621 645.042 33.1941 647.938 Q33.9262 650.835 35.3903 653.508 L29.9795 653.508 Q28.7381 650.293 28.1334 647.27 Q27.4968 644.246 27.4968 641.381 Q27.4968 633.647 31.5072 629.828 Q35.5176 626.008 43.6657 626.008 Z" fill="#000000" fill-rule="nonzero" fill-opacity="1"></path><path clip-path="url(#clip900)" d="M35.1993 586.191 Q31.2526 583.995 29.3747 580.939 Q27.4968 577.884 27.4968 573.746 Q27.4968 568.176 31.4117 565.152 Q35.2948 562.128 42.4881 562.128 L64.0042 562.128 L64.0042 568.017 L42.679 568.017 Q37.5546 568.017 35.072 569.831 Q32.5894 571.645 32.5894 575.369 Q32.5894 579.921 35.6131 582.562 Q38.6368 585.204 43.8567 585.204 L64.0042 585.204 L64.0042 591.092 L42.679 591.092 Q37.5228 591.092 35.072 592.907 Q32.5894 594.721 32.5894 598.508 Q32.5894 602.996 35.6449 605.638 Q38.6686 608.28 43.8567 608.28 L64.0042 608.28 L64.0042 614.168 L28.3562 614.168 L28.3562 608.28 L33.8944 608.28 Q30.616 606.275 29.0564 603.474 Q27.4968 600.673 27.4968 596.822 Q27.4968 592.938 29.4702 590.233 Q31.4436 587.496 35.1993 586.191 Z" fill="#000000" fill-rule="nonzero" fill-opacity="1"></path><path clip-path="url(#clip900)" d="M44.7161 519.956 L47.5806 519.956 L47.5806 546.883 Q53.6281 546.501 56.8109 543.254 Q59.9619 539.976 59.9619 534.151 Q59.9619 530.777 59.1344 527.626 Q58.3069 524.443 56.6518 521.324 L62.1899 521.324 Q63.5267 524.475 64.227 527.785 Q64.9272 531.096 64.9272 534.501 Q64.9272 543.031 59.9619 548.028 Q54.9967 552.994 46.5303 552.994 Q37.7774 552.994 32.6531 548.283 Q27.4968 543.541 27.4968 535.52 Q27.4968 528.327 32.1438 524.157 Q36.7589 519.956 44.7161 519.956 M42.9973 525.812 Q38.1912 525.876 35.3266 528.517 Q32.4621 531.127 32.4621 535.456 Q32.4621 540.358 35.2312 543.318 Q38.0002 546.246 43.0292 546.692 L42.9973 525.812 Z" fill="#000000" fill-rule="nonzero" fill-opacity="1"></path><path clip-path="url(#clip900)" d="M18.2347 504.551 L28.3562 504.551 L28.3562 492.488 L32.9077 492.488 L32.9077 504.551 L52.2594 504.551 Q56.6199 504.551 57.8613 503.373 Q59.1026 502.163 59.1026 498.503 L59.1026 492.488 L64.0042 492.488 L64.0042 498.503 Q64.0042 505.283 61.4897 507.861 Q58.9434 510.439 52.2594 510.439 L32.9077 510.439 L32.9077 514.736 L28.3562 514.736 L28.3562 510.439 L18.2347 510.439 L18.2347 504.551 Z" fill="#000000" fill-rule="nonzero" fill-opacity="1"></path><path clip-path="url(#clip900)" d="M44.7161 454.293 L47.5806 454.293 L47.5806 481.22 Q53.6281 480.838 56.8109 477.592 Q59.9619 474.313 59.9619 468.489 Q59.9619 465.115 59.1344 461.964 Q58.3069 458.781 56.6518 455.662 L62.1899 455.662 Q63.5267 458.813 64.227 462.123 Q64.9272 465.433 64.9272 468.839 Q64.9272 477.369 59.9619 482.366 Q54.9967 487.331 46.5303 487.331 Q37.7774 487.331 32.6531 482.621 Q27.4968 477.878 27.4968 469.857 Q27.4968 462.664 32.1438 458.495 Q36.7589 454.293 44.7161 454.293 M42.9973 460.15 Q38.1912 460.213 35.3266 462.855 Q32.4621 465.465 32.4621 469.794 Q32.4621 474.695 35.2312 477.655 Q38.0002 480.584 43.0292 481.029 L42.9973 460.15 Z" fill="#000000" fill-rule="nonzero" fill-opacity="1"></path><path clip-path="url(#clip900)" d="M33.8307 424.024 Q33.2578 425.011 33.0032 426.189 Q32.7167 427.335 32.7167 428.735 Q32.7167 433.7 35.9632 436.374 Q39.1779 439.016 45.2253 439.016 L64.0042 439.016 L64.0042 444.904 L28.3562 444.904 L28.3562 439.016 L33.8944 439.016 Q30.6479 437.17 29.0883 434.21 Q27.4968 431.249 27.4968 427.016 Q27.4968 426.412 27.5923 425.679 Q27.656 424.947 27.8151 424.056 L33.8307 424.024 Z" fill="#000000" fill-rule="nonzero" fill-opacity="1"></path><path clip-path="url(#clip900)" d="M29.4065 395.156 L34.9447 395.156 Q33.6716 397.639 33.035 400.312 Q32.3984 402.986 32.3984 405.85 Q32.3984 410.211 33.7352 412.407 Q35.072 414.571 37.7456 414.571 Q39.7826 414.571 40.9603 413.012 Q42.1061 411.452 43.1565 406.742 L43.6021 404.736 Q44.9389 398.498 47.3897 395.888 Q49.8086 393.246 54.1691 393.246 Q59.1344 393.246 62.0308 397.193 Q64.9272 401.108 64.9272 407.983 Q64.9272 410.847 64.3543 413.967 Q63.8132 417.054 62.6992 420.491 L56.6518 420.491 Q58.3387 417.245 59.198 414.094 Q60.0256 410.943 60.0256 407.856 Q60.0256 403.718 58.6251 401.49 Q57.1929 399.262 54.6147 399.262 Q52.2276 399.262 50.9545 400.885 Q49.6813 402.476 48.5037 407.919 L48.0262 409.956 Q46.8804 415.399 44.5251 417.818 Q42.138 420.237 38.0002 420.237 Q32.9713 420.237 30.2341 416.672 Q27.4968 413.107 27.4968 406.551 Q27.4968 403.304 27.9743 400.439 Q28.4517 397.575 29.4065 395.156 Z" fill="#000000" fill-rule="nonzero" fill-opacity="1"></path><path clip-path="url(#clip900)" d="M14.5426 384.843 L14.5426 379.751 Q22.0542 374.977 29.2474 372.621 Q36.4406 370.234 43.5384 370.234 Q50.668 370.234 57.8931 372.621 Q65.1182 374.977 72.5979 379.751 L72.5979 384.843 Q65.3091 380.61 58.1159 378.541 Q50.8908 376.441 43.5384 376.441 Q36.186 376.441 29.0246 378.541 Q21.8632 380.61 14.5426 384.843 Z" fill="#000000" fill-rule="nonzero" fill-opacity="1"></path><circle clip-path="url(#clip902)" cx="309.067" cy="86.1857" r="21.6" fill="#009af9" fill-rule="evenodd" fill-opacity="1" stroke="#000000" stroke-opacity="1" stroke-width="3.2"></circle>
<circle clip-path="url(#clip902)" cx="529.53" cy="98.4406" r="21.6" fill="#009af9" fill-rule="evenodd" fill-opacity="1" stroke="#000000" stroke-opacity="1" stroke-width="3.2"></circle>
<circle clip-path="url(#clip902)" cx="749.992" cy="132.035" r="21.6" fill="#009af9" fill-rule="evenodd" fill-opacity="1" stroke="#000000" stroke-opacity="1" stroke-width="3.2"></circle>
<circle clip-path="url(#clip902)" cx="970.455" cy="168.419" r="21.6" fill="#009af9" fill-rule="evenodd" fill-opacity="1" stroke="#000000" stroke-opacity="1" stroke-width="3.2"></circle>
<circle clip-path="url(#clip902)" cx="1190.92" cy="358.423" r="21.6" fill="#009af9" fill-rule="evenodd" fill-opacity="1" stroke="#000000" stroke-opacity="1" stroke-width="3.2"></circle>
<circle clip-path="url(#clip902)" cx="1411.38" cy="692.137" r="21.6" fill="#009af9" fill-rule="evenodd" fill-opacity="1" stroke="#000000" stroke-opacity="1" stroke-width="3.2"></circle>
<circle clip-path="url(#clip902)" cx="1631.84" cy="926.695" r="21.6" fill="#009af9" fill-rule="evenodd" fill-opacity="1" stroke="#000000" stroke-opacity="1" stroke-width="3.2"></circle>
<circle clip-path="url(#clip902)" cx="1852.31" cy="1002.09" r="21.6" fill="#009af9" fill-rule="evenodd" fill-opacity="1" stroke="#000000" stroke-opacity="1" stroke-width="3.2"></circle>
<circle clip-path="url(#clip902)" cx="2072.77" cy="1154.55" r="21.6" fill="#009af9" fill-rule="evenodd" fill-opacity="1" stroke="#000000" stroke-opacity="1" stroke-width="3.2"></circle>
<circle clip-path="url(#clip902)" cx="2293.23" cy="1297.82" r="21.6" fill="#009af9" fill-rule="evenodd" fill-opacity="1" stroke="#000000" stroke-opacity="1" stroke-width="3.2"></circle>
<circle clip-path="url(#clip902)" cx="309.067" cy="1208.67" r="21.6" fill="#e69138" fill-rule="evenodd" fill-opacity="1" stroke="#000000" stroke-opacity="1" stroke-width="3.2"></circle>
<circle clip-path="url(#clip902)" cx="529.53" cy="1296.17" r="21.6" fill="#e69138" fill-rule="evenodd" fill-opacity="1" stroke="#000000" stroke-opacity="1" stroke-width="3.2"></circle>
<circle clip-path="url(#clip902)" cx="749.992" cy="1293.32" r="21.6" fill="#e69138" fill-rule="evenodd" fill-opacity="1" stroke="#000000" stroke-opacity="1" stroke-width="3.2"></circle>
<circle clip-path="url(#clip902)" cx="970.455" cy="1122.33" r="21.6" fill="#e69138" fill-rule="evenodd" fill-opacity="1" stroke="#000000" stroke-opacity="1" stroke-width="3.2"></circle>
<circle clip-path="url(#clip902)" cx="1190.92" cy="1118.72" r="21.6" fill="#e69138" fill-rule="evenodd" fill-opacity="1" stroke="#000000" stroke-opacity="1" stroke-width="3.2"></circle>
<circle clip-path="url(#clip902)" cx="1411.38" cy="807.807" r="21.6" fill="#e69138" fill-rule="evenodd" fill-opacity="1" stroke="#000000" stroke-opacity="1" stroke-width="3.2"></circle>
<circle clip-path="url(#clip902)" cx="1631.84" cy="893.016" r="21.6" fill="#e69138" fill-rule="evenodd" fill-opacity="1" stroke="#000000" stroke-opacity="1" stroke-width="3.2"></circle>
<circle clip-path="url(#clip902)" cx="1852.31" cy="828.334" r="21.6" fill="#e69138" fill-rule="evenodd" fill-opacity="1" stroke="#000000" stroke-opacity="1" stroke-width="3.2"></circle>
<circle clip-path="url(#clip902)" cx="2072.77" cy="665.756" r="21.6" fill="#e69138" fill-rule="evenodd" fill-opacity="1" stroke="#000000" stroke-opacity="1" stroke-width="3.2"></circle>
<circle clip-path="url(#clip902)" cx="2293.23" cy="709.322" r="21.6" fill="#e69138" fill-rule="evenodd" fill-opacity="1" stroke="#000000" stroke-opacity="1" stroke-width="3.2"></circle>
<circle clip-path="url(#clip902)" cx="309.067" cy="1384.24" r="21.6" fill="#b45f06" fill-rule="evenodd" fill-opacity="1" stroke="#000000" stroke-opacity="1" stroke-width="3.2"></circle>
<circle clip-path="url(#clip902)" cx="529.53" cy="1225.68" r="21.6" fill="#b45f06" fill-rule="evenodd" fill-opacity="1" stroke="#000000" stroke-opacity="1" stroke-width="3.2"></circle>
<circle clip-path="url(#clip902)" cx="749.992" cy="1265.55" r="21.6" fill="#b45f06" fill-rule="evenodd" fill-opacity="1" stroke="#000000" stroke-opacity="1" stroke-width="3.2"></circle>
<circle clip-path="url(#clip902)" cx="970.455" cy="1201.04" r="21.6" fill="#b45f06" fill-rule="evenodd" fill-opacity="1" stroke="#000000" stroke-opacity="1" stroke-width="3.2"></circle>
<circle clip-path="url(#clip902)" cx="1190.92" cy="1119.82" r="21.6" fill="#b45f06" fill-rule="evenodd" fill-opacity="1" stroke="#000000" stroke-opacity="1" stroke-width="3.2"></circle>
<circle clip-path="url(#clip902)" cx="1411.38" cy="1098.94" r="21.6" fill="#b45f06" fill-rule="evenodd" fill-opacity="1" stroke="#000000" stroke-opacity="1" stroke-width="3.2"></circle>
<circle clip-path="url(#clip902)" cx="1631.84" cy="916.604" r="21.6" fill="#b45f06" fill-rule="evenodd" fill-opacity="1" stroke="#000000" stroke-opacity="1" stroke-width="3.2"></circle>
<circle clip-path="url(#clip902)" cx="1852.31" cy="740.282" r="21.6" fill="#b45f06" fill-rule="evenodd" fill-opacity="1" stroke="#000000" stroke-opacity="1" stroke-width="3.2"></circle>
<circle clip-path="url(#clip902)" cx="2072.77" cy="677.353" r="21.6" fill="#b45f06" fill-rule="evenodd" fill-opacity="1" stroke="#000000" stroke-opacity="1" stroke-width="3.2"></circle>
<circle clip-path="url(#clip902)" cx="2293.23" cy="749.83" r="21.6" fill="#b45f06" fill-rule="evenodd" fill-opacity="1" stroke="#000000" stroke-opacity="1" stroke-width="3.2"></circle>
<path clip-path="url(#clip900)" d="M1393.95 352.309 L2282.65 352.309 L2282.65 93.1086 L1393.95 93.1086  Z" fill="#ffffff" fill-rule="evenodd" fill-opacity="1"></path>
<polyline clip-path="url(#clip900)" style="stroke:#000000; stroke-linecap:round; stroke-linejoin:round; stroke-width:4; stroke-opacity:1; fill:none" points="1393.95,352.309 2282.65,352.309 2282.65,93.1086 1393.95,93.1086 1393.95,352.309 "></polyline>
<circle clip-path="url(#clip900)" cx="1487.42" cy="157.909" r="26.5846" fill="#009af9" fill-rule="evenodd" fill-opacity="1" stroke="#000000" stroke-opacity="1" stroke-width="3.93846"></circle>
<path clip-path="url(#clip900)" d="M1580.9 136.309 L1605.72 136.309 L1605.72 141.228 L1586.74 141.228 L1586.74 153.959 L1603.87 153.959 L1603.87 158.878 L1586.74 158.878 L1586.74 179.509 L1580.9 179.509 L1580.9 136.309 Z" fill="#000000" fill-rule="nonzero" fill-opacity="1"></path><path clip-path="url(#clip900)" d="M1629.22 152.078 Q1628.32 151.557 1627.25 151.326 Q1626.21 151.065 1624.94 151.065 Q1620.42 151.065 1617.99 154.017 Q1615.59 156.939 1615.59 162.437 L1615.59 179.509 L1610.24 179.509 L1610.24 147.101 L1615.59 147.101 L1615.59 152.136 Q1617.27 149.185 1619.96 147.767 Q1622.65 146.32 1626.5 146.32 Q1627.05 146.32 1627.71 146.407 Q1628.38 146.465 1629.19 146.609 L1629.22 152.078 Z" fill="#000000" fill-rule="nonzero" fill-opacity="1"></path><path clip-path="url(#clip900)" d="M1661.22 161.974 L1661.22 164.578 L1636.74 164.578 Q1637.09 170.076 1640.04 172.969 Q1643.02 175.834 1648.32 175.834 Q1651.38 175.834 1654.25 175.082 Q1657.14 174.329 1659.98 172.825 L1659.98 177.859 Q1657.11 179.075 1654.1 179.711 Q1651.09 180.348 1648 180.348 Q1640.24 180.348 1635.7 175.834 Q1631.19 171.32 1631.19 163.623 Q1631.19 155.666 1635.47 151.008 Q1639.78 146.32 1647.07 146.32 Q1653.61 146.32 1657.4 150.545 Q1661.22 154.74 1661.22 161.974 M1655.9 160.411 Q1655.84 156.042 1653.44 153.438 Q1651.07 150.834 1647.13 150.834 Q1642.67 150.834 1639.98 153.351 Q1637.32 155.869 1636.92 160.44 L1655.9 160.411 Z" fill="#000000" fill-rule="nonzero" fill-opacity="1"></path><path clip-path="url(#clip900)" d="M1697.68 161.974 L1697.68 164.578 L1673.2 164.578 Q1673.55 170.076 1676.5 172.969 Q1679.48 175.834 1684.77 175.834 Q1687.84 175.834 1690.71 175.082 Q1693.6 174.329 1696.44 172.825 L1696.44 177.859 Q1693.57 179.075 1690.56 179.711 Q1687.55 180.348 1684.46 180.348 Q1676.7 180.348 1672.16 175.834 Q1667.65 171.32 1667.65 163.623 Q1667.65 155.666 1671.93 151.008 Q1676.24 146.32 1683.53 146.32 Q1690.07 146.32 1693.86 150.545 Q1697.68 154.74 1697.68 161.974 M1692.36 160.411 Q1692.3 156.042 1689.9 153.438 Q1687.52 150.834 1683.59 150.834 Q1679.13 150.834 1676.44 153.351 Q1673.78 155.869 1673.37 160.44 L1692.36 160.411 Z" fill="#000000" fill-rule="nonzero" fill-opacity="1"></path><path clip-path="url(#clip900)" d="M1730.52 137.9 L1730.52 147.101 L1741.49 147.101 L1741.49 151.239 L1730.52 151.239 L1730.52 168.832 Q1730.52 172.796 1731.59 173.924 Q1732.69 175.053 1736.02 175.053 L1741.49 175.053 L1741.49 179.509 L1736.02 179.509 Q1729.86 179.509 1727.51 177.223 Q1725.17 174.908 1725.17 168.832 L1725.17 151.239 L1721.26 151.239 L1721.26 147.101 L1725.17 147.101 L1725.17 137.9 L1730.52 137.9 Z" fill="#000000" fill-rule="nonzero" fill-opacity="1"></path><path clip-path="url(#clip900)" d="M1747.94 166.719 L1747.94 147.101 L1753.26 147.101 L1753.26 166.517 Q1753.26 171.117 1755.06 173.432 Q1756.85 175.718 1760.44 175.718 Q1764.75 175.718 1767.24 172.969 Q1769.76 170.22 1769.76 165.475 L1769.76 147.101 L1775.08 147.101 L1775.08 179.509 L1769.76 179.509 L1769.76 174.532 Q1767.82 177.483 1765.24 178.93 Q1762.7 180.348 1759.31 180.348 Q1753.73 180.348 1750.83 176.876 Q1747.94 173.403 1747.94 166.719 M1761.34 146.32 L1761.34 146.32 Z" fill="#000000" fill-rule="nonzero" fill-opacity="1"></path><path clip-path="url(#clip900)" d="M1809.31 163.334 Q1809.31 157.46 1806.88 154.133 Q1804.48 150.776 1800.25 150.776 Q1796.03 150.776 1793.6 154.133 Q1791.2 157.46 1791.2 163.334 Q1791.2 169.208 1793.6 172.564 Q1796.03 175.892 1800.25 175.892 Q1804.48 175.892 1806.88 172.564 Q1809.31 169.208 1809.31 163.334 M1791.2 152.02 Q1792.88 149.127 1795.42 147.738 Q1798 146.32 1801.56 146.32 Q1807.46 146.32 1811.13 151.008 Q1814.84 155.695 1814.84 163.334 Q1814.84 170.973 1811.13 175.66 Q1807.46 180.348 1801.56 180.348 Q1798 180.348 1795.42 178.959 Q1792.88 177.541 1791.2 174.648 L1791.2 179.509 L1785.84 179.509 L1785.84 134.486 L1791.2 134.486 L1791.2 152.02 Z" fill="#000000" fill-rule="nonzero" fill-opacity="1"></path><path clip-path="url(#clip900)" d="M1823.11 166.719 L1823.11 147.101 L1828.44 147.101 L1828.44 166.517 Q1828.44 171.117 1830.23 173.432 Q1832.03 175.718 1835.61 175.718 Q1839.92 175.718 1842.41 172.969 Q1844.93 170.22 1844.93 165.475 L1844.93 147.101 L1850.25 147.101 L1850.25 179.509 L1844.93 179.509 L1844.93 174.532 Q1842.99 177.483 1840.42 178.93 Q1837.87 180.348 1834.48 180.348 Q1828.9 180.348 1826.01 176.876 Q1823.11 173.403 1823.11 166.719 M1836.51 146.32 L1836.51 146.32 Z" fill="#000000" fill-rule="nonzero" fill-opacity="1"></path><path clip-path="url(#clip900)" d="M1861.22 134.486 L1866.54 134.486 L1866.54 179.509 L1861.22 179.509 L1861.22 134.486 Z" fill="#000000" fill-rule="nonzero" fill-opacity="1"></path><path clip-path="url(#clip900)" d="M1877.68 147.101 L1883.01 147.101 L1883.01 179.509 L1877.68 179.509 L1877.68 147.101 M1877.68 134.486 L1883.01 134.486 L1883.01 141.228 L1877.68 141.228 L1877.68 134.486 Z" fill="#000000" fill-rule="nonzero" fill-opacity="1"></path><path clip-path="url(#clip900)" d="M1921.09 159.949 L1921.09 179.509 L1915.76 179.509 L1915.76 160.122 Q1915.76 155.521 1913.97 153.236 Q1912.18 150.95 1908.59 150.95 Q1904.28 150.95 1901.79 153.699 Q1899.3 156.447 1899.3 161.193 L1899.3 179.509 L1893.95 179.509 L1893.95 147.101 L1899.3 147.101 L1899.3 152.136 Q1901.21 149.214 1903.78 147.767 Q1906.39 146.32 1909.77 146.32 Q1915.36 146.32 1918.22 149.792 Q1921.09 153.236 1921.09 159.949 Z" fill="#000000" fill-rule="nonzero" fill-opacity="1"></path><path clip-path="url(#clip900)" d="M1975.77 153.322 Q1977.77 149.734 1980.55 148.027 Q1983.33 146.32 1987.09 146.32 Q1992.15 146.32 1994.9 149.879 Q1997.65 153.409 1997.65 159.949 L1997.65 179.509 L1992.3 179.509 L1992.3 160.122 Q1992.3 155.464 1990.65 153.207 Q1989 150.95 1985.61 150.95 Q1981.47 150.95 1979.07 153.699 Q1976.67 156.447 1976.67 161.193 L1976.67 179.509 L1971.32 179.509 L1971.32 160.122 Q1971.32 155.435 1969.67 153.207 Q1968.02 150.95 1964.58 150.95 Q1960.5 150.95 1958.1 153.728 Q1955.69 156.476 1955.69 161.193 L1955.69 179.509 L1950.34 179.509 L1950.34 147.101 L1955.69 147.101 L1955.69 152.136 Q1957.52 149.156 1960.06 147.738 Q1962.61 146.32 1966.11 146.32 Q1969.64 146.32 1972.1 148.114 Q1974.59 149.908 1975.77 153.322 Z" fill="#000000" fill-rule="nonzero" fill-opacity="1"></path><path clip-path="url(#clip900)" d="M2020.83 150.834 Q2016.54 150.834 2014.06 154.19 Q2011.57 157.518 2011.57 163.334 Q2011.57 169.15 2014.03 172.506 Q2016.51 175.834 2020.83 175.834 Q2025.08 175.834 2027.57 172.477 Q2030.06 169.121 2030.06 163.334 Q2030.06 157.576 2027.57 154.219 Q2025.08 150.834 2020.83 150.834 M2020.83 146.32 Q2027.77 146.32 2031.73 150.834 Q2035.7 155.348 2035.7 163.334 Q2035.7 171.291 2031.73 175.834 Q2027.77 180.348 2020.83 180.348 Q2013.85 180.348 2009.89 175.834 Q2005.95 171.291 2005.95 163.334 Q2005.95 155.348 2009.89 150.834 Q2013.85 146.32 2020.83 146.32 Z" fill="#000000" fill-rule="nonzero" fill-opacity="1"></path><path clip-path="url(#clip900)" d="M2071.46 159.949 L2071.46 179.509 L2066.14 179.509 L2066.14 160.122 Q2066.14 155.521 2064.34 153.236 Q2062.55 150.95 2058.96 150.95 Q2054.65 150.95 2052.16 153.699 Q2049.67 156.447 2049.67 161.193 L2049.67 179.509 L2044.32 179.509 L2044.32 147.101 L2049.67 147.101 L2049.67 152.136 Q2051.58 149.214 2054.16 147.767 Q2056.76 146.32 2060.15 146.32 Q2065.73 146.32 2068.6 149.792 Q2071.46 153.236 2071.46 159.949 Z" fill="#000000" fill-rule="nonzero" fill-opacity="1"></path><path clip-path="url(#clip900)" d="M2094.64 150.834 Q2090.36 150.834 2087.87 154.19 Q2085.38 157.518 2085.38 163.334 Q2085.38 169.15 2087.84 172.506 Q2090.33 175.834 2094.64 175.834 Q2098.89 175.834 2101.38 172.477 Q2103.87 169.121 2103.87 163.334 Q2103.87 157.576 2101.38 154.219 Q2098.89 150.834 2094.64 150.834 M2094.64 146.32 Q2101.58 146.32 2105.55 150.834 Q2109.51 155.348 2109.51 163.334 Q2109.51 171.291 2105.55 175.834 Q2101.58 180.348 2094.64 180.348 Q2087.67 180.348 2083.7 175.834 Q2079.77 171.291 2079.77 163.334 Q2079.77 155.348 2083.7 150.834 Q2087.67 146.32 2094.64 146.32 Z" fill="#000000" fill-rule="nonzero" fill-opacity="1"></path><path clip-path="url(#clip900)" d="M2143.57 153.322 Q2145.57 149.734 2148.34 148.027 Q2151.12 146.32 2154.88 146.32 Q2159.95 146.32 2162.69 149.879 Q2165.44 153.409 2165.44 159.949 L2165.44 179.509 L2160.09 179.509 L2160.09 160.122 Q2160.09 155.464 2158.44 153.207 Q2156.79 150.95 2153.41 150.95 Q2149.27 150.95 2146.87 153.699 Q2144.47 156.447 2144.47 161.193 L2144.47 179.509 L2139.11 179.509 L2139.11 160.122 Q2139.11 155.435 2137.46 153.207 Q2135.81 150.95 2132.37 150.95 Q2128.29 150.95 2125.89 153.728 Q2123.49 156.476 2123.49 161.193 L2123.49 179.509 L2118.13 179.509 L2118.13 147.101 L2123.49 147.101 L2123.49 152.136 Q2125.31 149.156 2127.86 147.738 Q2130.4 146.32 2133.9 146.32 Q2137.43 146.32 2139.89 148.114 Q2142.38 149.908 2143.57 153.322 Z" fill="#000000" fill-rule="nonzero" fill-opacity="1"></path><path clip-path="url(#clip900)" d="M2203.78 161.974 L2203.78 164.578 L2179.3 164.578 Q2179.65 170.076 2182.6 172.969 Q2185.58 175.834 2190.88 175.834 Q2193.94 175.834 2196.81 175.082 Q2199.7 174.329 2202.54 172.825 L2202.54 177.859 Q2199.67 179.075 2196.66 179.711 Q2193.66 180.348 2190.56 180.348 Q2182.8 180.348 2178.26 175.834 Q2173.75 171.32 2173.75 163.623 Q2173.75 155.666 2178.03 151.008 Q2182.34 146.32 2189.63 146.32 Q2196.17 146.32 2199.96 150.545 Q2203.78 154.74 2203.78 161.974 M2198.46 160.411 Q2198.4 156.042 2196 153.438 Q2193.63 150.834 2189.69 150.834 Q2185.23 150.834 2182.54 153.351 Q2179.88 155.869 2179.48 160.44 L2198.46 160.411 Z" fill="#000000" fill-rule="nonzero" fill-opacity="1"></path><path clip-path="url(#clip900)" d="M2231.3 152.078 Q2230.4 151.557 2229.33 151.326 Q2228.29 151.065 2227.02 151.065 Q2222.5 151.065 2220.07 154.017 Q2217.67 156.939 2217.67 162.437 L2217.67 179.509 L2212.32 179.509 L2212.32 147.101 L2217.67 147.101 L2217.67 152.136 Q2219.35 149.185 2222.04 147.767 Q2224.73 146.32 2228.58 146.32 Q2229.13 146.32 2229.79 146.407 Q2230.46 146.465 2231.27 146.609 L2231.3 152.078 Z" fill="#000000" fill-rule="nonzero" fill-opacity="1"></path><path clip-path="url(#clip900)" d="M2257.54 148.056 L2257.54 153.091 Q2255.29 151.934 2252.86 151.355 Q2250.43 150.776 2247.82 150.776 Q2243.86 150.776 2241.86 151.991 Q2239.89 153.207 2239.89 155.637 Q2239.89 157.489 2241.31 158.56 Q2242.73 159.601 2247.01 160.556 L2248.83 160.961 Q2254.51 162.177 2256.88 164.405 Q2259.28 166.604 2259.28 170.568 Q2259.28 175.082 2255.69 177.715 Q2252.13 180.348 2245.88 180.348 Q2243.28 180.348 2240.44 179.827 Q2237.64 179.335 2234.51 178.322 L2234.51 172.825 Q2237.46 174.358 2240.33 175.139 Q2243.19 175.892 2246 175.892 Q2249.76 175.892 2251.79 174.619 Q2253.81 173.317 2253.81 170.973 Q2253.81 168.803 2252.34 167.645 Q2250.89 166.488 2245.94 165.417 L2244.09 164.983 Q2239.14 163.942 2236.94 161.8 Q2234.74 159.63 2234.74 155.869 Q2234.74 151.297 2237.98 148.809 Q2241.22 146.32 2247.18 146.32 Q2250.14 146.32 2252.74 146.754 Q2255.34 147.188 2257.54 148.056 Z" fill="#000000" fill-rule="nonzero" fill-opacity="1"></path><circle clip-path="url(#clip900)" cx="1487.42" cy="222.709" r="26.5846" fill="#e69138" fill-rule="evenodd" fill-opacity="1" stroke="#000000" stroke-opacity="1" stroke-width="3.93846"></circle>
<path clip-path="url(#clip900)" d="M1580.9 201.109 L1589.61 201.109 L1600.63 230.507 L1611.71 201.109 L1620.42 201.109 L1620.42 244.309 L1614.72 244.309 L1614.72 206.375 L1603.58 236.004 L1597.71 236.004 L1586.57 206.375 L1586.57 244.309 L1580.9 244.309 L1580.9 201.109 Z" fill="#000000" fill-rule="nonzero" fill-opacity="1"></path><path clip-path="url(#clip900)" d="M1631.79 211.901 L1637.12 211.901 L1637.12 244.309 L1631.79 244.309 L1631.79 211.901 M1631.79 199.286 L1637.12 199.286 L1637.12 206.028 L1631.79 206.028 L1631.79 199.286 Z" fill="#000000" fill-rule="nonzero" fill-opacity="1"></path><path clip-path="url(#clip900)" d="M1671.58 213.146 L1671.58 218.122 Q1669.32 216.878 1667.04 216.271 Q1664.78 215.634 1662.47 215.634 Q1657.29 215.634 1654.42 218.933 Q1651.56 222.202 1651.56 228.134 Q1651.56 234.066 1654.42 237.364 Q1657.29 240.634 1662.47 240.634 Q1664.78 240.634 1667.04 240.026 Q1669.32 239.39 1671.58 238.145 L1671.58 243.064 Q1669.35 244.106 1666.95 244.627 Q1664.58 245.148 1661.89 245.148 Q1654.57 245.148 1650.26 240.547 Q1645.94 235.946 1645.94 228.134 Q1645.94 220.206 1650.28 215.663 Q1654.65 211.12 1662.23 211.12 Q1664.69 211.12 1667.04 211.641 Q1669.38 212.133 1671.58 213.146 Z" fill="#000000" fill-rule="nonzero" fill-opacity="1"></path><path clip-path="url(#clip900)" d="M1699.62 216.878 Q1698.72 216.357 1697.65 216.126 Q1696.61 215.865 1695.34 215.865 Q1690.82 215.865 1688.39 218.817 Q1685.99 221.739 1685.99 227.237 L1685.99 244.309 L1680.64 244.309 L1680.64 211.901 L1685.99 211.901 L1685.99 216.936 Q1687.67 213.985 1690.36 212.567 Q1693.05 211.12 1696.9 211.12 Q1697.45 211.12 1698.11 211.207 Q1698.78 211.265 1699.59 211.409 L1699.62 216.878 Z" fill="#000000" fill-rule="nonzero" fill-opacity="1"></path><path clip-path="url(#clip900)" d="M1716.46 215.634 Q1712.18 215.634 1709.69 218.99 Q1707.2 222.318 1707.2 228.134 Q1707.2 233.95 1709.66 237.306 Q1712.15 240.634 1716.46 240.634 Q1720.71 240.634 1723.2 237.277 Q1725.69 233.921 1725.69 228.134 Q1725.69 222.376 1723.2 219.019 Q1720.71 215.634 1716.46 215.634 M1716.46 211.12 Q1723.4 211.12 1727.37 215.634 Q1731.33 220.148 1731.33 228.134 Q1731.33 236.091 1727.37 240.634 Q1723.4 245.148 1716.46 245.148 Q1709.49 245.148 1705.52 240.634 Q1701.59 236.091 1701.59 228.134 Q1701.59 220.148 1705.52 215.634 Q1709.49 211.12 1716.46 211.12 Z" fill="#000000" fill-rule="nonzero" fill-opacity="1"></path><path clip-path="url(#clip900)" d="M1745.42 202.7 L1745.42 211.901 L1756.39 211.901 L1756.39 216.039 L1745.42 216.039 L1745.42 233.632 Q1745.42 237.596 1746.49 238.724 Q1747.59 239.853 1750.92 239.853 L1756.39 239.853 L1756.39 244.309 L1750.92 244.309 Q1744.76 244.309 1742.41 242.023 Q1740.07 239.708 1740.07 233.632 L1740.07 216.039 L1736.16 216.039 L1736.16 211.901 L1740.07 211.901 L1740.07 202.7 L1745.42 202.7 Z" fill="#000000" fill-rule="nonzero" fill-opacity="1"></path><path clip-path="url(#clip900)" d="M1762.84 231.519 L1762.84 211.901 L1768.17 211.901 L1768.17 231.317 Q1768.17 235.917 1769.96 238.232 Q1771.75 240.518 1775.34 240.518 Q1779.65 240.518 1782.14 237.769 Q1784.66 235.02 1784.66 230.275 L1784.66 211.901 L1789.98 211.901 L1789.98 244.309 L1784.66 244.309 L1784.66 239.332 Q1782.72 242.283 1780.14 243.73 Q1777.6 245.148 1774.21 245.148 Q1768.63 245.148 1765.73 241.676 Q1762.84 238.203 1762.84 231.519 M1776.24 211.12 L1776.24 211.12 Z" fill="#000000" fill-rule="nonzero" fill-opacity="1"></path><path clip-path="url(#clip900)" d="M1824.21 228.134 Q1824.21 222.26 1821.78 218.933 Q1819.38 215.576 1815.16 215.576 Q1810.93 215.576 1808.5 218.933 Q1806.1 222.26 1806.1 228.134 Q1806.1 234.008 1808.5 237.364 Q1810.93 240.692 1815.16 240.692 Q1819.38 240.692 1821.78 237.364 Q1824.21 234.008 1824.21 228.134 M1806.1 216.82 Q1807.78 213.927 1810.32 212.538 Q1812.9 211.12 1816.46 211.12 Q1822.36 211.12 1826.04 215.808 Q1829.74 220.495 1829.74 228.134 Q1829.74 235.773 1826.04 240.46 Q1822.36 245.148 1816.46 245.148 Q1812.9 245.148 1810.32 243.759 Q1807.78 242.341 1806.1 239.448 L1806.1 244.309 L1800.75 244.309 L1800.75 199.286 L1806.1 199.286 L1806.1 216.82 Z" fill="#000000" fill-rule="nonzero" fill-opacity="1"></path><path clip-path="url(#clip900)" d="M1838.01 231.519 L1838.01 211.901 L1843.34 211.901 L1843.34 231.317 Q1843.34 235.917 1845.13 238.232 Q1846.93 240.518 1850.51 240.518 Q1854.83 240.518 1857.31 237.769 Q1859.83 235.02 1859.83 230.275 L1859.83 211.901 L1865.16 211.901 L1865.16 244.309 L1859.83 244.309 L1859.83 239.332 Q1857.89 242.283 1855.32 243.73 Q1852.77 245.148 1849.39 245.148 Q1843.8 245.148 1840.91 241.676 Q1838.01 238.203 1838.01 231.519 M1851.41 211.12 L1851.41 211.12 Z" fill="#000000" fill-rule="nonzero" fill-opacity="1"></path><path clip-path="url(#clip900)" d="M1876.12 199.286 L1881.45 199.286 L1881.45 244.309 L1876.12 244.309 L1876.12 199.286 Z" fill="#000000" fill-rule="nonzero" fill-opacity="1"></path><path clip-path="url(#clip900)" d="M1920.31 226.774 L1920.31 229.378 L1895.83 229.378 Q1896.17 234.876 1899.13 237.769 Q1902.11 240.634 1907.4 240.634 Q1910.47 240.634 1913.33 239.882 Q1916.23 239.129 1919.06 237.625 L1919.06 242.659 Q1916.2 243.875 1913.19 244.511 Q1910.18 245.148 1907.08 245.148 Q1899.33 245.148 1894.79 240.634 Q1890.27 236.12 1890.27 228.423 Q1890.27 220.466 1894.55 215.808 Q1898.86 211.12 1906.16 211.12 Q1912.7 211.12 1916.49 215.345 Q1920.31 219.54 1920.31 226.774 M1914.98 225.211 Q1914.92 220.842 1912.52 218.238 Q1910.15 215.634 1906.21 215.634 Q1901.76 215.634 1899.07 218.151 Q1896.41 220.669 1896 225.24 L1914.98 225.211 Z" fill="#000000" fill-rule="nonzero" fill-opacity="1"></path><path clip-path="url(#clip900)" d="M1949.65 239.39 L1959.19 239.39 L1959.19 206.433 L1948.81 208.516 L1948.81 203.192 L1959.14 201.109 L1964.98 201.109 L1964.98 239.39 L1974.53 239.39 L1974.53 244.309 L1949.65 244.309 L1949.65 239.39 Z" fill="#000000" fill-rule="nonzero" fill-opacity="1"></path><circle clip-path="url(#clip900)" cx="1487.42" cy="287.509" r="26.5846" fill="#b45f06" fill-rule="evenodd" fill-opacity="1" stroke="#000000" stroke-opacity="1" stroke-width="3.93846"></circle>
<path clip-path="url(#clip900)" d="M1580.9 265.909 L1589.61 265.909 L1600.63 295.307 L1611.71 265.909 L1620.42 265.909 L1620.42 309.109 L1614.72 309.109 L1614.72 271.175 L1603.58 300.804 L1597.71 300.804 L1586.57 271.175 L1586.57 309.109 L1580.9 309.109 L1580.9 265.909 Z" fill="#000000" fill-rule="nonzero" fill-opacity="1"></path><path clip-path="url(#clip900)" d="M1631.79 276.701 L1637.12 276.701 L1637.12 309.109 L1631.79 309.109 L1631.79 276.701 M1631.79 264.086 L1637.12 264.086 L1637.12 270.828 L1631.79 270.828 L1631.79 264.086 Z" fill="#000000" fill-rule="nonzero" fill-opacity="1"></path><path clip-path="url(#clip900)" d="M1671.58 277.946 L1671.58 282.922 Q1669.32 281.678 1667.04 281.071 Q1664.78 280.434 1662.47 280.434 Q1657.29 280.434 1654.42 283.733 Q1651.56 287.002 1651.56 292.934 Q1651.56 298.866 1654.42 302.164 Q1657.29 305.434 1662.47 305.434 Q1664.78 305.434 1667.04 304.826 Q1669.32 304.19 1671.58 302.945 L1671.58 307.864 Q1669.35 308.906 1666.95 309.427 Q1664.58 309.948 1661.89 309.948 Q1654.57 309.948 1650.26 305.347 Q1645.94 300.746 1645.94 292.934 Q1645.94 285.006 1650.28 280.463 Q1654.65 275.92 1662.23 275.92 Q1664.69 275.92 1667.04 276.441 Q1669.38 276.933 1671.58 277.946 Z" fill="#000000" fill-rule="nonzero" fill-opacity="1"></path><path clip-path="url(#clip900)" d="M1699.62 281.678 Q1698.72 281.157 1697.65 280.926 Q1696.61 280.665 1695.34 280.665 Q1690.82 280.665 1688.39 283.617 Q1685.99 286.539 1685.99 292.037 L1685.99 309.109 L1680.64 309.109 L1680.64 276.701 L1685.99 276.701 L1685.99 281.736 Q1687.67 278.785 1690.36 277.367 Q1693.05 275.92 1696.9 275.92 Q1697.45 275.92 1698.11 276.007 Q1698.78 276.065 1699.59 276.209 L1699.62 281.678 Z" fill="#000000" fill-rule="nonzero" fill-opacity="1"></path><path clip-path="url(#clip900)" d="M1716.46 280.434 Q1712.18 280.434 1709.69 283.79 Q1707.2 287.118 1707.2 292.934 Q1707.2 298.75 1709.66 302.106 Q1712.15 305.434 1716.46 305.434 Q1720.71 305.434 1723.2 302.077 Q1725.69 298.721 1725.69 292.934 Q1725.69 287.176 1723.2 283.819 Q1720.71 280.434 1716.46 280.434 M1716.46 275.92 Q1723.4 275.92 1727.37 280.434 Q1731.33 284.948 1731.33 292.934 Q1731.33 300.891 1727.37 305.434 Q1723.4 309.948 1716.46 309.948 Q1709.49 309.948 1705.52 305.434 Q1701.59 300.891 1701.59 292.934 Q1701.59 284.948 1705.52 280.434 Q1709.49 275.92 1716.46 275.92 Z" fill="#000000" fill-rule="nonzero" fill-opacity="1"></path><path clip-path="url(#clip900)" d="M1745.42 267.5 L1745.42 276.701 L1756.39 276.701 L1756.39 280.839 L1745.42 280.839 L1745.42 298.432 Q1745.42 302.396 1746.49 303.524 Q1747.59 304.653 1750.92 304.653 L1756.39 304.653 L1756.39 309.109 L1750.92 309.109 Q1744.76 309.109 1742.41 306.823 Q1740.07 304.508 1740.07 298.432 L1740.07 280.839 L1736.16 280.839 L1736.16 276.701 L1740.07 276.701 L1740.07 267.5 L1745.42 267.5 Z" fill="#000000" fill-rule="nonzero" fill-opacity="1"></path><path clip-path="url(#clip900)" d="M1762.84 296.319 L1762.84 276.701 L1768.17 276.701 L1768.17 296.117 Q1768.17 300.717 1769.96 303.032 Q1771.75 305.318 1775.34 305.318 Q1779.65 305.318 1782.14 302.569 Q1784.66 299.82 1784.66 295.075 L1784.66 276.701 L1789.98 276.701 L1789.98 309.109 L1784.66 309.109 L1784.66 304.132 Q1782.72 307.083 1780.14 308.53 Q1777.6 309.948 1774.21 309.948 Q1768.63 309.948 1765.73 306.476 Q1762.84 303.003 1762.84 296.319 M1776.24 275.92 L1776.24 275.92 Z" fill="#000000" fill-rule="nonzero" fill-opacity="1"></path><path clip-path="url(#clip900)" d="M1824.21 292.934 Q1824.21 287.06 1821.78 283.733 Q1819.38 280.376 1815.16 280.376 Q1810.93 280.376 1808.5 283.733 Q1806.1 287.06 1806.1 292.934 Q1806.1 298.808 1808.5 302.164 Q1810.93 305.492 1815.16 305.492 Q1819.38 305.492 1821.78 302.164 Q1824.21 298.808 1824.21 292.934 M1806.1 281.62 Q1807.78 278.727 1810.32 277.338 Q1812.9 275.92 1816.46 275.92 Q1822.36 275.92 1826.04 280.608 Q1829.74 285.295 1829.74 292.934 Q1829.74 300.573 1826.04 305.26 Q1822.36 309.948 1816.46 309.948 Q1812.9 309.948 1810.32 308.559 Q1807.78 307.141 1806.1 304.248 L1806.1 309.109 L1800.75 309.109 L1800.75 264.086 L1806.1 264.086 L1806.1 281.62 Z" fill="#000000" fill-rule="nonzero" fill-opacity="1"></path><path clip-path="url(#clip900)" d="M1838.01 296.319 L1838.01 276.701 L1843.34 276.701 L1843.34 296.117 Q1843.34 300.717 1845.13 303.032 Q1846.93 305.318 1850.51 305.318 Q1854.83 305.318 1857.31 302.569 Q1859.83 299.82 1859.83 295.075 L1859.83 276.701 L1865.16 276.701 L1865.16 309.109 L1859.83 309.109 L1859.83 304.132 Q1857.89 307.083 1855.32 308.53 Q1852.77 309.948 1849.39 309.948 Q1843.8 309.948 1840.91 306.476 Q1838.01 303.003 1838.01 296.319 M1851.41 275.92 L1851.41 275.92 Z" fill="#000000" fill-rule="nonzero" fill-opacity="1"></path><path clip-path="url(#clip900)" d="M1876.12 264.086 L1881.45 264.086 L1881.45 309.109 L1876.12 309.109 L1876.12 264.086 Z" fill="#000000" fill-rule="nonzero" fill-opacity="1"></path><path clip-path="url(#clip900)" d="M1920.31 291.574 L1920.31 294.178 L1895.83 294.178 Q1896.17 299.676 1899.13 302.569 Q1902.11 305.434 1907.4 305.434 Q1910.47 305.434 1913.33 304.682 Q1916.23 303.929 1919.06 302.425 L1919.06 307.459 Q1916.2 308.675 1913.19 309.311 Q1910.18 309.948 1907.08 309.948 Q1899.33 309.948 1894.79 305.434 Q1890.27 300.92 1890.27 293.223 Q1890.27 285.266 1894.55 280.608 Q1898.86 275.92 1906.16 275.92 Q1912.7 275.92 1916.49 280.145 Q1920.31 284.34 1920.31 291.574 M1914.98 290.011 Q1914.92 285.642 1912.52 283.038 Q1910.15 280.434 1906.21 280.434 Q1901.76 280.434 1899.07 282.951 Q1896.41 285.469 1896 290.04 L1914.98 290.011 Z" fill="#000000" fill-rule="nonzero" fill-opacity="1"></path><path clip-path="url(#clip900)" d="M1953.67 304.19 L1974.07 304.19 L1974.07 309.109 L1946.64 309.109 L1946.64 304.19 Q1949.96 300.746 1955.69 294.959 Q1961.45 289.143 1962.93 287.465 Q1965.73 284.311 1966.83 282.141 Q1967.96 279.942 1967.96 277.83 Q1967.96 274.387 1965.53 272.216 Q1963.13 270.046 1959.25 270.046 Q1956.5 270.046 1953.44 271.001 Q1950.4 271.956 1946.93 273.895 L1946.93 267.992 Q1950.46 266.574 1953.52 265.851 Q1956.59 265.127 1959.14 265.127 Q1965.85 265.127 1969.84 268.484 Q1973.84 271.84 1973.84 277.454 Q1973.84 280.116 1972.82 282.517 Q1971.84 284.89 1969.21 288.131 Q1968.48 288.97 1964.61 292.992 Q1960.73 296.985 1953.67 304.19 Z" fill="#000000" fill-rule="nonzero" fill-opacity="1"></path></svg>