<svg xmlns="http://www.w3.org/2000/svg" xmlns:xlink="http://www.w3.org/1999/xlink" width="600" height="400" viewBox="0 0 2400 1600">
<defs>
  <clipPath id="clip140">
    <rect x="0" y="0" width="2400" height="1600"></rect>
  </clipPath>
</defs>
<path clip-path="url(#clip140)" d="M0 1600 L2400 1600 L2400 0 L0 0  Z" fill="#ffffff" fill-rule="evenodd" fill-opacity="1"></path>
<defs>
  <clipPath id="clip141">
    <rect x="480" y="0" width="1681" height="1600"></rect>
  </clipPath>
</defs>
<path clip-path="url(#clip140)" d="M249.542 1423.18 L2352.76 1423.18 L2352.76 47.2441 L249.542 47.2441  Z" fill="#ffffff" fill-rule="evenodd" fill-opacity="1"></path>
<defs>
  <clipPath id="clip142">
    <rect x="249" y="47" width="2104" height="1377"></rect>
  </clipPath>
</defs>
<polyline clip-path="url(#clip142)" style="stroke:#000000; stroke-linecap:round; stroke-linejoin:round; stroke-width:2; stroke-opacity:0.1; fill:none" points="309.067,1423.18 309.067,47.2441 "></polyline>
<polyline clip-path="url(#clip142)" style="stroke:#000000; stroke-linecap:round; stroke-linejoin:round; stroke-width:2; stroke-opacity:0.1; fill:none" points="805.108,1423.18 805.108,47.2441 "></polyline>
<polyline clip-path="url(#clip142)" style="stroke:#000000; stroke-linecap:round; stroke-linejoin:round; stroke-width:2; stroke-opacity:0.1; fill:none" points="1301.15,1423.18 1301.15,47.2441 "></polyline>
<polyline clip-path="url(#clip142)" style="stroke:#000000; stroke-linecap:round; stroke-linejoin:round; stroke-width:2; stroke-opacity:0.1; fill:none" points="1797.19,1423.18 1797.19,47.2441 "></polyline>
<polyline clip-path="url(#clip142)" style="stroke:#000000; stroke-linecap:round; stroke-linejoin:round; stroke-width:2; stroke-opacity:0.1; fill:none" points="2293.23,1423.18 2293.23,47.2441 "></polyline>
<polyline clip-path="url(#clip140)" style="stroke:#000000; stroke-linecap:round; stroke-linejoin:round; stroke-width:4; stroke-opacity:1; fill:none" points="249.542,1423.18 2352.76,1423.18 "></polyline>
<polyline clip-path="url(#clip140)" style="stroke:#000000; stroke-linecap:round; stroke-linejoin:round; stroke-width:4; stroke-opacity:1; fill:none" points="309.067,1423.18 309.067,1404.28 "></polyline>
<polyline clip-path="url(#clip140)" style="stroke:#000000; stroke-linecap:round; stroke-linejoin:round; stroke-width:4; stroke-opacity:1; fill:none" points="805.108,1423.18 805.108,1404.28 "></polyline>
<polyline clip-path="url(#clip140)" style="stroke:#000000; stroke-linecap:round; stroke-linejoin:round; stroke-width:4; stroke-opacity:1; fill:none" points="1301.15,1423.18 1301.15,1404.28 "></polyline>
<polyline clip-path="url(#clip140)" style="stroke:#000000; stroke-linecap:round; stroke-linejoin:round; stroke-width:4; stroke-opacity:1; fill:none" points="1797.19,1423.18 1797.19,1404.28 "></polyline>
<polyline clip-path="url(#clip140)" style="stroke:#000000; stroke-linecap:round; stroke-linejoin:round; stroke-width:4; stroke-opacity:1; fill:none" points="2293.23,1423.18 2293.23,1404.28 "></polyline>
<path clip-path="url(#clip140)" d="M286.451 1454.1 Q282.84 1454.1 281.012 1457.66 Q279.206 1461.2 279.206 1468.33 Q279.206 1475.44 281.012 1479.01 Q282.84 1482.55 286.451 1482.55 Q290.086 1482.55 291.891 1479.01 Q293.72 1475.44 293.72 1468.33 Q293.72 1461.2 291.891 1457.66 Q290.086 1454.1 286.451 1454.1 M286.451 1450.39 Q292.261 1450.39 295.317 1455 Q298.396 1459.58 298.396 1468.33 Q298.396 1477.06 295.317 1481.67 Q292.261 1486.25 286.451 1486.25 Q280.641 1486.25 277.562 1481.67 Q274.507 1477.06 274.507 1468.33 Q274.507 1459.58 277.562 1455 Q280.641 1450.39 286.451 1450.39 Z" fill="#000000" fill-rule="nonzero" fill-opacity="1"></path><path clip-path="url(#clip140)" d="M306.613 1479.7 L311.497 1479.7 L311.497 1485.58 L306.613 1485.58 L306.613 1479.7 Z" fill="#000000" fill-rule="nonzero" fill-opacity="1"></path><path clip-path="url(#clip140)" d="M331.683 1454.1 Q328.071 1454.1 326.243 1457.66 Q324.437 1461.2 324.437 1468.33 Q324.437 1475.44 326.243 1479.01 Q328.071 1482.55 331.683 1482.55 Q335.317 1482.55 337.122 1479.01 Q338.951 1475.44 338.951 1468.33 Q338.951 1461.2 337.122 1457.66 Q335.317 1454.1 331.683 1454.1 M331.683 1450.39 Q337.493 1450.39 340.548 1455 Q343.627 1459.58 343.627 1468.33 Q343.627 1477.06 340.548 1481.67 Q337.493 1486.25 331.683 1486.25 Q325.872 1486.25 322.794 1481.67 Q319.738 1477.06 319.738 1468.33 Q319.738 1459.58 322.794 1455 Q325.872 1450.39 331.683 1450.39 Z" fill="#000000" fill-rule="nonzero" fill-opacity="1"></path><path clip-path="url(#clip140)" d="M776.844 1481.64 L793.164 1481.64 L793.164 1485.58 L771.219 1485.58 L771.219 1481.64 Q773.881 1478.89 778.465 1474.26 Q783.071 1469.61 784.252 1468.27 Q786.497 1465.74 787.377 1464.01 Q788.279 1462.25 788.279 1460.56 Q788.279 1457.8 786.335 1456.07 Q784.414 1454.33 781.312 1454.33 Q779.113 1454.33 776.659 1455.09 Q774.228 1455.86 771.451 1457.41 L771.451 1452.69 Q774.275 1451.55 776.728 1450.97 Q779.182 1450.39 781.219 1450.39 Q786.59 1450.39 789.784 1453.08 Q792.978 1455.77 792.978 1460.26 Q792.978 1462.39 792.168 1464.31 Q791.381 1466.2 789.275 1468.8 Q788.696 1469.47 785.594 1472.69 Q782.492 1475.88 776.844 1481.64 Z" fill="#000000" fill-rule="nonzero" fill-opacity="1"></path><path clip-path="url(#clip140)" d="M802.978 1479.7 L807.863 1479.7 L807.863 1485.58 L802.978 1485.58 L802.978 1479.7 Z" fill="#000000" fill-rule="nonzero" fill-opacity="1"></path><path clip-path="url(#clip140)" d="M818.094 1451.02 L836.45 1451.02 L836.45 1454.96 L822.376 1454.96 L822.376 1463.43 Q823.395 1463.08 824.413 1462.92 Q825.432 1462.73 826.45 1462.73 Q832.237 1462.73 835.617 1465.9 Q838.997 1469.08 838.997 1474.49 Q838.997 1480.07 835.524 1483.17 Q832.052 1486.25 825.733 1486.25 Q823.557 1486.25 821.288 1485.88 Q819.043 1485.51 816.636 1484.77 L816.636 1480.07 Q818.719 1481.2 820.941 1481.76 Q823.163 1482.32 825.64 1482.32 Q829.645 1482.32 831.983 1480.21 Q834.321 1478.1 834.321 1474.49 Q834.321 1470.88 831.983 1468.77 Q829.645 1466.67 825.64 1466.67 Q823.765 1466.67 821.89 1467.08 Q820.038 1467.5 818.094 1468.38 L818.094 1451.02 Z" fill="#000000" fill-rule="nonzero" fill-opacity="1"></path><path clip-path="url(#clip140)" d="M1268.31 1451.02 L1286.67 1451.02 L1286.67 1454.96 L1272.6 1454.96 L1272.6 1463.43 Q1273.61 1463.08 1274.63 1462.92 Q1275.65 1462.73 1276.67 1462.73 Q1282.46 1462.73 1285.84 1465.9 Q1289.22 1469.08 1289.22 1474.49 Q1289.22 1480.07 1285.74 1483.17 Q1282.27 1486.25 1275.95 1486.25 Q1273.78 1486.25 1271.51 1485.88 Q1269.26 1485.51 1266.86 1484.77 L1266.86 1480.07 Q1268.94 1481.2 1271.16 1481.76 Q1273.38 1482.32 1275.86 1482.32 Q1279.86 1482.32 1282.2 1480.21 Q1284.54 1478.1 1284.54 1474.49 Q1284.54 1470.88 1282.2 1468.77 Q1279.86 1466.67 1275.86 1466.67 Q1273.98 1466.67 1272.11 1467.08 Q1270.26 1467.5 1268.31 1468.38 L1268.31 1451.02 Z" fill="#000000" fill-rule="nonzero" fill-opacity="1"></path><path clip-path="url(#clip140)" d="M1298.43 1479.7 L1303.31 1479.7 L1303.31 1485.58 L1298.43 1485.58 L1298.43 1479.7 Z" fill="#000000" fill-rule="nonzero" fill-opacity="1"></path><path clip-path="url(#clip140)" d="M1323.5 1454.1 Q1319.89 1454.1 1318.06 1457.66 Q1316.25 1461.2 1316.25 1468.33 Q1316.25 1475.44 1318.06 1479.01 Q1319.89 1482.55 1323.5 1482.55 Q1327.13 1482.55 1328.94 1479.01 Q1330.77 1475.44 1330.77 1468.33 Q1330.77 1461.2 1328.94 1457.66 Q1327.13 1454.1 1323.5 1454.1 M1323.5 1450.39 Q1329.31 1450.39 1332.36 1455 Q1335.44 1459.58 1335.44 1468.33 Q1335.44 1477.06 1332.36 1481.67 Q1329.31 1486.25 1323.5 1486.25 Q1317.69 1486.25 1314.61 1481.67 Q1311.55 1477.06 1311.55 1468.33 Q1311.55 1459.58 1314.61 1455 Q1317.69 1450.39 1323.5 1450.39 Z" fill="#000000" fill-rule="nonzero" fill-opacity="1"></path><path clip-path="url(#clip140)" d="M1763.51 1451.02 L1785.73 1451.02 L1785.73 1453.01 L1773.19 1485.58 L1768.3 1485.58 L1780.11 1454.96 L1763.51 1454.96 L1763.51 1451.02 Z" fill="#000000" fill-rule="nonzero" fill-opacity="1"></path><path clip-path="url(#clip140)" d="M1794.85 1479.7 L1799.74 1479.7 L1799.74 1485.58 L1794.85 1485.58 L1794.85 1479.7 Z" fill="#000000" fill-rule="nonzero" fill-opacity="1"></path><path clip-path="url(#clip140)" d="M1809.97 1451.02 L1828.32 1451.02 L1828.32 1454.96 L1814.25 1454.96 L1814.25 1463.43 Q1815.27 1463.08 1816.29 1462.92 Q1817.31 1462.73 1818.32 1462.73 Q1824.11 1462.73 1827.49 1465.9 Q1830.87 1469.08 1830.87 1474.49 Q1830.87 1480.07 1827.4 1483.17 Q1823.93 1486.25 1817.61 1486.25 Q1815.43 1486.25 1813.16 1485.88 Q1810.92 1485.51 1808.51 1484.77 L1808.51 1480.07 Q1810.59 1481.2 1812.81 1481.76 Q1815.04 1482.32 1817.51 1482.32 Q1821.52 1482.32 1823.86 1480.21 Q1826.19 1478.1 1826.19 1474.49 Q1826.19 1470.88 1823.86 1468.77 Q1821.52 1466.67 1817.51 1466.67 Q1815.64 1466.67 1813.76 1467.08 Q1811.91 1467.5 1809.97 1468.38 L1809.97 1451.02 Z" fill="#000000" fill-rule="nonzero" fill-opacity="1"></path><path clip-path="url(#clip140)" d="M2245.3 1481.64 L2252.94 1481.64 L2252.94 1455.28 L2244.63 1456.95 L2244.63 1452.69 L2252.9 1451.02 L2257.57 1451.02 L2257.57 1481.64 L2265.21 1481.64 L2265.21 1485.58 L2245.3 1485.58 L2245.3 1481.64 Z" fill="#000000" fill-rule="nonzero" fill-opacity="1"></path><path clip-path="url(#clip140)" d="M2284.65 1454.1 Q2281.04 1454.1 2279.21 1457.66 Q2277.41 1461.2 2277.41 1468.33 Q2277.41 1475.44 2279.21 1479.01 Q2281.04 1482.55 2284.65 1482.55 Q2288.29 1482.55 2290.09 1479.01 Q2291.92 1475.44 2291.92 1468.33 Q2291.92 1461.2 2290.09 1457.66 Q2288.29 1454.1 2284.65 1454.1 M2284.65 1450.39 Q2290.46 1450.39 2293.52 1455 Q2296.6 1459.58 2296.6 1468.33 Q2296.6 1477.06 2293.52 1481.67 Q2290.46 1486.25 2284.65 1486.25 Q2278.84 1486.25 2275.77 1481.67 Q2272.71 1477.06 2272.71 1468.33 Q2272.71 1459.58 2275.77 1455 Q2278.84 1450.39 2284.65 1450.39 Z" fill="#000000" fill-rule="nonzero" fill-opacity="1"></path><path clip-path="url(#clip140)" d="M2304.82 1479.7 L2309.7 1479.7 L2309.7 1485.58 L2304.82 1485.58 L2304.82 1479.7 Z" fill="#000000" fill-rule="nonzero" fill-opacity="1"></path><path clip-path="url(#clip140)" d="M2329.89 1454.1 Q2326.27 1454.1 2324.45 1457.66 Q2322.64 1461.2 2322.64 1468.33 Q2322.64 1475.44 2324.45 1479.01 Q2326.27 1482.55 2329.89 1482.55 Q2333.52 1482.55 2335.33 1479.01 Q2337.15 1475.44 2337.15 1468.33 Q2337.15 1461.2 2335.33 1457.66 Q2333.52 1454.1 2329.89 1454.1 M2329.89 1450.39 Q2335.7 1450.39 2338.75 1455 Q2341.83 1459.58 2341.83 1468.33 Q2341.83 1477.06 2338.75 1481.67 Q2335.7 1486.25 2329.89 1486.25 Q2324.08 1486.25 2321 1481.67 Q2317.94 1477.06 2317.94 1468.33 Q2317.94 1459.58 2321 1455 Q2324.08 1450.39 2329.89 1450.39 Z" fill="#000000" fill-rule="nonzero" fill-opacity="1"></path><path clip-path="url(#clip140)" d="M1144.23 1522.27 L1144.23 1532.4 L1156.3 1532.4 L1156.3 1536.95 L1144.23 1536.95 L1144.23 1556.3 Q1144.23 1560.66 1145.41 1561.9 Q1146.62 1563.14 1150.28 1563.14 L1156.3 1563.14 L1156.3 1568.04 L1150.28 1568.04 Q1143.5 1568.04 1140.92 1565.53 Q1138.35 1562.98 1138.35 1556.3 L1138.35 1536.95 L1134.05 1536.95 L1134.05 1532.4 L1138.35 1532.4 L1138.35 1522.27 L1144.23 1522.27 Z" fill="#000000" fill-rule="nonzero" fill-opacity="1"></path><path clip-path="url(#clip140)" d="M1164 1532.4 L1169.86 1532.4 L1169.86 1568.04 L1164 1568.04 L1164 1532.4 M1164 1518.52 L1169.86 1518.52 L1169.86 1525.93 L1164 1525.93 L1164 1518.52 Z" fill="#000000" fill-rule="nonzero" fill-opacity="1"></path><path clip-path="url(#clip140)" d="M1209.86 1539.24 Q1212.06 1535.29 1215.12 1533.41 Q1218.17 1531.54 1222.31 1531.54 Q1227.88 1531.54 1230.9 1535.45 Q1233.93 1539.33 1233.93 1546.53 L1233.93 1568.04 L1228.04 1568.04 L1228.04 1546.72 Q1228.04 1541.59 1226.22 1539.11 Q1224.41 1536.63 1220.69 1536.63 Q1216.13 1536.63 1213.49 1539.65 Q1210.85 1542.68 1210.85 1547.9 L1210.85 1568.04 L1204.96 1568.04 L1204.96 1546.72 Q1204.96 1541.56 1203.15 1539.11 Q1201.33 1536.63 1197.55 1536.63 Q1193.06 1536.63 1190.42 1539.68 Q1187.78 1542.71 1187.78 1547.9 L1187.78 1568.04 L1181.89 1568.04 L1181.89 1532.4 L1187.78 1532.4 L1187.78 1537.93 Q1189.78 1534.66 1192.58 1533.1 Q1195.38 1531.54 1199.23 1531.54 Q1203.12 1531.54 1205.82 1533.51 Q1208.56 1535.48 1209.86 1539.24 Z" fill="#000000" fill-rule="nonzero" fill-opacity="1"></path><path clip-path="url(#clip140)" d="M1276.1 1548.76 L1276.1 1551.62 L1249.17 1551.62 Q1249.55 1557.67 1252.8 1560.85 Q1256.08 1564 1261.9 1564 Q1265.28 1564 1268.43 1563.17 Q1271.61 1562.35 1274.73 1560.69 L1274.73 1566.23 Q1271.58 1567.57 1268.27 1568.27 Q1264.96 1568.97 1261.55 1568.97 Q1253.02 1568.97 1248.03 1564 Q1243.06 1559.04 1243.06 1550.57 Q1243.06 1541.82 1247.77 1536.69 Q1252.51 1531.54 1260.54 1531.54 Q1267.73 1531.54 1271.9 1536.18 Q1276.1 1540.8 1276.1 1548.76 M1270.24 1547.04 Q1270.18 1542.23 1267.54 1539.37 Q1264.93 1536.5 1260.6 1536.5 Q1255.7 1536.5 1252.74 1539.27 Q1249.81 1542.04 1249.36 1547.07 L1270.24 1547.04 Z" fill="#000000" fill-rule="nonzero" fill-opacity="1"></path><path clip-path="url(#clip140)" d="M1320.5 1518.58 Q1316.24 1525.9 1314.17 1533.06 Q1312.1 1540.23 1312.1 1547.58 Q1312.1 1554.93 1314.17 1562.16 Q1316.27 1569.35 1320.5 1576.64 L1315.41 1576.64 Q1310.63 1569.16 1308.25 1561.93 Q1305.89 1554.71 1305.89 1547.58 Q1305.89 1540.48 1308.25 1533.29 Q1310.6 1526.09 1315.41 1518.58 L1320.5 1518.58 Z" fill="#000000" fill-rule="nonzero" fill-opacity="1"></path><path clip-path="url(#clip140)" d="M1348.06 1550.12 Q1340.97 1550.12 1338.23 1551.75 Q1335.49 1553.37 1335.49 1557.29 Q1335.49 1560.4 1337.53 1562.25 Q1339.6 1564.07 1343.13 1564.07 Q1348 1564.07 1350.93 1560.63 Q1353.89 1557.16 1353.89 1551.43 L1353.89 1550.12 L1348.06 1550.12 M1359.75 1547.71 L1359.75 1568.04 L1353.89 1568.04 L1353.89 1562.63 Q1351.88 1565.88 1348.89 1567.44 Q1345.9 1568.97 1341.57 1568.97 Q1336.1 1568.97 1332.85 1565.91 Q1329.64 1562.82 1329.64 1557.67 Q1329.64 1551.65 1333.65 1548.6 Q1337.69 1545.54 1345.68 1545.54 L1353.89 1545.54 L1353.89 1544.97 Q1353.89 1540.93 1351.22 1538.73 Q1348.57 1536.5 1343.77 1536.5 Q1340.71 1536.5 1337.82 1537.23 Q1334.92 1537.97 1332.25 1539.43 L1332.25 1534.02 Q1335.46 1532.78 1338.48 1532.17 Q1341.51 1531.54 1344.37 1531.54 Q1352.11 1531.54 1355.93 1535.55 Q1359.75 1539.56 1359.75 1547.71 Z" fill="#000000" fill-rule="nonzero" fill-opacity="1"></path><path clip-path="url(#clip140)" d="M1372.64 1559.96 L1379.35 1559.96 L1379.35 1568.04 L1372.64 1568.04 L1372.64 1559.96 Z" fill="#000000" fill-rule="nonzero" fill-opacity="1"></path><path clip-path="url(#clip140)" d="M1391.92 1553.98 L1391.92 1532.4 L1397.78 1532.4 L1397.78 1553.75 Q1397.78 1558.81 1399.75 1561.36 Q1401.73 1563.87 1405.67 1563.87 Q1410.42 1563.87 1413.15 1560.85 Q1415.92 1557.83 1415.92 1552.61 L1415.92 1532.4 L1421.78 1532.4 L1421.78 1568.04 L1415.92 1568.04 L1415.92 1562.57 Q1413.79 1565.82 1410.96 1567.41 Q1408.16 1568.97 1404.43 1568.97 Q1398.29 1568.97 1395.11 1565.15 Q1391.92 1561.33 1391.92 1553.98 M1406.66 1531.54 L1406.66 1531.54 Z" fill="#000000" fill-rule="nonzero" fill-opacity="1"></path><path clip-path="url(#clip140)" d="M1434.67 1559.96 L1441.39 1559.96 L1441.39 1568.04 L1434.67 1568.04 L1434.67 1559.96 Z" fill="#000000" fill-rule="nonzero" fill-opacity="1"></path><path clip-path="url(#clip140)" d="M1453.64 1518.58 L1458.73 1518.58 Q1463.51 1526.09 1465.86 1533.29 Q1468.25 1540.48 1468.25 1547.58 Q1468.25 1554.71 1465.86 1561.93 Q1463.51 1569.16 1458.73 1576.64 L1453.64 1576.64 Q1457.87 1569.35 1459.94 1562.16 Q1462.04 1554.93 1462.04 1547.58 Q1462.04 1540.23 1459.94 1533.06 Q1457.87 1525.9 1453.64 1518.58 Z" fill="#000000" fill-rule="nonzero" fill-opacity="1"></path><polyline clip-path="url(#clip142)" style="stroke:#000000; stroke-linecap:round; stroke-linejoin:round; stroke-width:2; stroke-opacity:0.1; fill:none" points="249.542,1386.01 2352.76,1386.01 "></polyline>
<polyline clip-path="url(#clip142)" style="stroke:#000000; stroke-linecap:round; stroke-linejoin:round; stroke-width:2; stroke-opacity:0.1; fill:none" points="249.542,1087.75 2352.76,1087.75 "></polyline>
<polyline clip-path="url(#clip142)" style="stroke:#000000; stroke-linecap:round; stroke-linejoin:round; stroke-width:2; stroke-opacity:0.1; fill:none" points="249.542,789.498 2352.76,789.498 "></polyline>
<polyline clip-path="url(#clip142)" style="stroke:#000000; stroke-linecap:round; stroke-linejoin:round; stroke-width:2; stroke-opacity:0.1; fill:none" points="249.542,491.244 2352.76,491.244 "></polyline>
<polyline clip-path="url(#clip142)" style="stroke:#000000; stroke-linecap:round; stroke-linejoin:round; stroke-width:2; stroke-opacity:0.1; fill:none" points="249.542,192.989 2352.76,192.989 "></polyline>
<polyline clip-path="url(#clip140)" style="stroke:#000000; stroke-linecap:round; stroke-linejoin:round; stroke-width:4; stroke-opacity:1; fill:none" points="249.542,1423.18 249.542,47.2441 "></polyline>
<polyline clip-path="url(#clip140)" style="stroke:#000000; stroke-linecap:round; stroke-linejoin:round; stroke-width:4; stroke-opacity:1; fill:none" points="249.542,1386.01 268.44,1386.01 "></polyline>
<polyline clip-path="url(#clip140)" style="stroke:#000000; stroke-linecap:round; stroke-linejoin:round; stroke-width:4; stroke-opacity:1; fill:none" points="249.542,1087.75 268.44,1087.75 "></polyline>
<polyline clip-path="url(#clip140)" style="stroke:#000000; stroke-linecap:round; stroke-linejoin:round; stroke-width:4; stroke-opacity:1; fill:none" points="249.542,789.498 268.44,789.498 "></polyline>
<polyline clip-path="url(#clip140)" style="stroke:#000000; stroke-linecap:round; stroke-linejoin:round; stroke-width:4; stroke-opacity:1; fill:none" points="249.542,491.244 268.44,491.244 "></polyline>
<polyline clip-path="url(#clip140)" style="stroke:#000000; stroke-linecap:round; stroke-linejoin:round; stroke-width:4; stroke-opacity:1; fill:none" points="249.542,192.989 268.44,192.989 "></polyline>
<path clip-path="url(#clip140)" d="M126.205 1371.81 Q122.593 1371.81 120.765 1375.37 Q118.959 1378.91 118.959 1386.04 Q118.959 1393.15 120.765 1396.71 Q122.593 1400.26 126.205 1400.26 Q129.839 1400.26 131.644 1396.71 Q133.473 1393.15 133.473 1386.04 Q133.473 1378.91 131.644 1375.37 Q129.839 1371.81 126.205 1371.81 M126.205 1368.1 Q132.015 1368.1 135.07 1372.71 Q138.149 1377.29 138.149 1386.04 Q138.149 1394.77 135.07 1399.38 Q132.015 1403.96 126.205 1403.96 Q120.394 1403.96 117.316 1399.38 Q114.26 1394.77 114.26 1386.04 Q114.26 1377.29 117.316 1372.71 Q120.394 1368.1 126.205 1368.1 Z" fill="#000000" fill-rule="nonzero" fill-opacity="1"></path><path clip-path="url(#clip140)" d="M146.366 1397.41 L151.251 1397.41 L151.251 1403.29 L146.366 1403.29 L146.366 1397.41 Z" fill="#000000" fill-rule="nonzero" fill-opacity="1"></path><path clip-path="url(#clip140)" d="M171.436 1371.81 Q167.825 1371.81 165.996 1375.37 Q164.19 1378.91 164.19 1386.04 Q164.19 1393.15 165.996 1396.71 Q167.825 1400.26 171.436 1400.26 Q175.07 1400.26 176.876 1396.71 Q178.704 1393.15 178.704 1386.04 Q178.704 1378.91 176.876 1375.37 Q175.07 1371.81 171.436 1371.81 M171.436 1368.1 Q177.246 1368.1 180.301 1372.71 Q183.38 1377.29 183.38 1386.04 Q183.38 1394.77 180.301 1399.38 Q177.246 1403.96 171.436 1403.96 Q165.626 1403.96 162.547 1399.38 Q159.491 1394.77 159.491 1386.04 Q159.491 1377.29 162.547 1372.71 Q165.626 1368.1 171.436 1368.1 Z" fill="#000000" fill-rule="nonzero" fill-opacity="1"></path><path clip-path="url(#clip140)" d="M201.598 1371.81 Q197.987 1371.81 196.158 1375.37 Q194.352 1378.91 194.352 1386.04 Q194.352 1393.15 196.158 1396.71 Q197.987 1400.26 201.598 1400.26 Q205.232 1400.26 207.037 1396.71 Q208.866 1393.15 208.866 1386.04 Q208.866 1378.91 207.037 1375.37 Q205.232 1371.81 201.598 1371.81 M201.598 1368.1 Q207.408 1368.1 210.463 1372.71 Q213.542 1377.29 213.542 1386.04 Q213.542 1394.77 210.463 1399.38 Q207.408 1403.96 201.598 1403.96 Q195.787 1403.96 192.709 1399.38 Q189.653 1394.77 189.653 1386.04 Q189.653 1377.29 192.709 1372.71 Q195.787 1368.1 201.598 1368.1 Z" fill="#000000" fill-rule="nonzero" fill-opacity="1"></path><path clip-path="url(#clip140)" d="M127.2 1073.55 Q123.589 1073.55 121.76 1077.12 Q119.955 1080.66 119.955 1087.79 Q119.955 1094.89 121.76 1098.46 Q123.589 1102 127.2 1102 Q130.834 1102 132.64 1098.46 Q134.468 1094.89 134.468 1087.79 Q134.468 1080.66 132.64 1077.12 Q130.834 1073.55 127.2 1073.55 M127.2 1069.85 Q133.01 1069.85 136.066 1074.45 Q139.144 1079.04 139.144 1087.79 Q139.144 1096.51 136.066 1101.12 Q133.01 1105.7 127.2 1105.7 Q121.39 1105.7 118.311 1101.12 Q115.256 1096.51 115.256 1087.79 Q115.256 1079.04 118.311 1074.45 Q121.39 1069.85 127.2 1069.85 Z" fill="#000000" fill-rule="nonzero" fill-opacity="1"></path><path clip-path="url(#clip140)" d="M147.362 1099.15 L152.246 1099.15 L152.246 1105.03 L147.362 1105.03 L147.362 1099.15 Z" fill="#000000" fill-rule="nonzero" fill-opacity="1"></path><path clip-path="url(#clip140)" d="M166.459 1101.1 L182.778 1101.1 L182.778 1105.03 L160.834 1105.03 L160.834 1101.1 Q163.496 1098.34 168.079 1093.71 Q172.686 1089.06 173.866 1087.72 Q176.112 1085.2 176.991 1083.46 Q177.894 1081.7 177.894 1080.01 Q177.894 1077.26 175.95 1075.52 Q174.028 1073.78 170.927 1073.78 Q168.727 1073.78 166.274 1074.55 Q163.843 1075.31 161.065 1076.86 L161.065 1072.14 Q163.89 1071.01 166.343 1070.43 Q168.797 1069.85 170.834 1069.85 Q176.204 1069.85 179.399 1072.53 Q182.593 1075.22 182.593 1079.71 Q182.593 1081.84 181.783 1083.76 Q180.996 1085.66 178.889 1088.25 Q178.311 1088.92 175.209 1092.14 Q172.107 1095.33 166.459 1101.1 Z" fill="#000000" fill-rule="nonzero" fill-opacity="1"></path><path clip-path="url(#clip140)" d="M192.639 1070.47 L210.996 1070.47 L210.996 1074.41 L196.922 1074.41 L196.922 1082.88 Q197.94 1082.53 198.959 1082.37 Q199.977 1082.19 200.996 1082.19 Q206.783 1082.19 210.162 1085.36 Q213.542 1088.53 213.542 1093.95 Q213.542 1099.52 210.07 1102.63 Q206.598 1105.7 200.278 1105.7 Q198.102 1105.7 195.834 1105.33 Q193.588 1104.96 191.181 1104.22 L191.181 1099.52 Q193.264 1100.66 195.487 1101.21 Q197.709 1101.77 200.186 1101.77 Q204.19 1101.77 206.528 1099.66 Q208.866 1097.56 208.866 1093.95 Q208.866 1090.33 206.528 1088.23 Q204.19 1086.12 200.186 1086.12 Q198.311 1086.12 196.436 1086.54 Q194.584 1086.95 192.639 1087.83 L192.639 1070.47 Z" fill="#000000" fill-rule="nonzero" fill-opacity="1"></path><path clip-path="url(#clip140)" d="M126.205 775.297 Q122.593 775.297 120.765 778.862 Q118.959 782.404 118.959 789.533 Q118.959 796.64 120.765 800.204 Q122.593 803.746 126.205 803.746 Q129.839 803.746 131.644 800.204 Q133.473 796.64 133.473 789.533 Q133.473 782.404 131.644 778.862 Q129.839 775.297 126.205 775.297 M126.205 771.593 Q132.015 771.593 135.07 776.2 Q138.149 780.783 138.149 789.533 Q138.149 798.26 135.07 802.866 Q132.015 807.45 126.205 807.45 Q120.394 807.45 117.316 802.866 Q114.26 798.26 114.26 789.533 Q114.26 780.783 117.316 776.2 Q120.394 771.593 126.205 771.593 Z" fill="#000000" fill-rule="nonzero" fill-opacity="1"></path><path clip-path="url(#clip140)" d="M146.366 800.899 L151.251 800.899 L151.251 806.778 L146.366 806.778 L146.366 800.899 Z" fill="#000000" fill-rule="nonzero" fill-opacity="1"></path><path clip-path="url(#clip140)" d="M161.482 772.218 L179.839 772.218 L179.839 776.154 L165.765 776.154 L165.765 784.626 Q166.783 784.279 167.802 784.117 Q168.82 783.931 169.839 783.931 Q175.626 783.931 179.005 787.103 Q182.385 790.274 182.385 795.691 Q182.385 801.269 178.913 804.371 Q175.44 807.45 169.121 807.45 Q166.945 807.45 164.677 807.079 Q162.431 806.709 160.024 805.968 L160.024 801.269 Q162.107 802.403 164.329 802.959 Q166.552 803.515 169.028 803.515 Q173.033 803.515 175.371 801.408 Q177.709 799.302 177.709 795.691 Q177.709 792.079 175.371 789.973 Q173.033 787.867 169.028 787.867 Q167.153 787.867 165.278 788.283 Q163.427 788.7 161.482 789.579 L161.482 772.218 Z" fill="#000000" fill-rule="nonzero" fill-opacity="1"></path><path clip-path="url(#clip140)" d="M201.598 775.297 Q197.987 775.297 196.158 778.862 Q194.352 782.404 194.352 789.533 Q194.352 796.64 196.158 800.204 Q197.987 803.746 201.598 803.746 Q205.232 803.746 207.037 800.204 Q208.866 796.64 208.866 789.533 Q208.866 782.404 207.037 778.862 Q205.232 775.297 201.598 775.297 M201.598 771.593 Q207.408 771.593 210.463 776.2 Q213.542 780.783 213.542 789.533 Q213.542 798.26 210.463 802.866 Q207.408 807.45 201.598 807.45 Q195.787 807.45 192.709 802.866 Q189.653 798.26 189.653 789.533 Q189.653 780.783 192.709 776.2 Q195.787 771.593 201.598 771.593 Z" fill="#000000" fill-rule="nonzero" fill-opacity="1"></path><path clip-path="url(#clip140)" d="M127.2 477.042 Q123.589 477.042 121.76 480.607 Q119.955 484.149 119.955 491.278 Q119.955 498.385 121.76 501.95 Q123.589 505.491 127.2 505.491 Q130.834 505.491 132.64 501.95 Q134.468 498.385 134.468 491.278 Q134.468 484.149 132.64 480.607 Q130.834 477.042 127.2 477.042 M127.2 473.339 Q133.01 473.339 136.066 477.945 Q139.144 482.528 139.144 491.278 Q139.144 500.005 136.066 504.612 Q133.01 509.195 127.2 509.195 Q121.39 509.195 118.311 504.612 Q115.256 500.005 115.256 491.278 Q115.256 482.528 118.311 477.945 Q121.39 473.339 127.2 473.339 Z" fill="#000000" fill-rule="nonzero" fill-opacity="1"></path><path clip-path="url(#clip140)" d="M147.362 502.644 L152.246 502.644 L152.246 508.524 L147.362 508.524 L147.362 502.644 Z" fill="#000000" fill-rule="nonzero" fill-opacity="1"></path><path clip-path="url(#clip140)" d="M161.251 473.964 L183.473 473.964 L183.473 475.954 L170.927 508.524 L166.042 508.524 L177.848 477.899 L161.251 477.899 L161.251 473.964 Z" fill="#000000" fill-rule="nonzero" fill-opacity="1"></path><path clip-path="url(#clip140)" d="M192.639 473.964 L210.996 473.964 L210.996 477.899 L196.922 477.899 L196.922 486.371 Q197.94 486.024 198.959 485.862 Q199.977 485.677 200.996 485.677 Q206.783 485.677 210.162 488.848 Q213.542 492.019 213.542 497.436 Q213.542 503.014 210.07 506.116 Q206.598 509.195 200.278 509.195 Q198.102 509.195 195.834 508.825 Q193.588 508.454 191.181 507.713 L191.181 503.014 Q193.264 504.149 195.487 504.704 Q197.709 505.26 200.186 505.26 Q204.19 505.26 206.528 503.153 Q208.866 501.047 208.866 497.436 Q208.866 493.825 206.528 491.718 Q204.19 489.612 200.186 489.612 Q198.311 489.612 196.436 490.028 Q194.584 490.445 192.639 491.325 L192.639 473.964 Z" fill="#000000" fill-rule="nonzero" fill-opacity="1"></path><path clip-path="url(#clip140)" d="M117.015 206.334 L124.654 206.334 L124.654 179.968 L116.343 181.635 L116.343 177.375 L124.607 175.709 L129.283 175.709 L129.283 206.334 L136.922 206.334 L136.922 210.269 L117.015 210.269 L117.015 206.334 Z" fill="#000000" fill-rule="nonzero" fill-opacity="1"></path><path clip-path="url(#clip140)" d="M146.366 204.389 L151.251 204.389 L151.251 210.269 L146.366 210.269 L146.366 204.389 Z" fill="#000000" fill-rule="nonzero" fill-opacity="1"></path><path clip-path="url(#clip140)" d="M171.436 178.787 Q167.825 178.787 165.996 182.352 Q164.19 185.894 164.19 193.023 Q164.19 200.13 165.996 203.695 Q167.825 207.236 171.436 207.236 Q175.07 207.236 176.876 203.695 Q178.704 200.13 178.704 193.023 Q178.704 185.894 176.876 182.352 Q175.07 178.787 171.436 178.787 M171.436 175.084 Q177.246 175.084 180.301 179.69 Q183.38 184.274 183.38 193.023 Q183.38 201.75 180.301 206.357 Q177.246 210.94 171.436 210.94 Q165.626 210.94 162.547 206.357 Q159.491 201.75 159.491 193.023 Q159.491 184.274 162.547 179.69 Q165.626 175.084 171.436 175.084 Z" fill="#000000" fill-rule="nonzero" fill-opacity="1"></path><path clip-path="url(#clip140)" d="M201.598 178.787 Q197.987 178.787 196.158 182.352 Q194.352 185.894 194.352 193.023 Q194.352 200.13 196.158 203.695 Q197.987 207.236 201.598 207.236 Q205.232 207.236 207.037 203.695 Q208.866 200.13 208.866 193.023 Q208.866 185.894 207.037 182.352 Q205.232 178.787 201.598 178.787 M201.598 175.084 Q207.408 175.084 210.463 179.69 Q213.542 184.274 213.542 193.023 Q213.542 201.75 210.463 206.357 Q207.408 210.94 201.598 210.94 Q195.787 210.94 192.709 206.357 Q189.653 201.75 189.653 193.023 Q189.653 184.274 192.709 179.69 Q195.787 175.084 201.598 175.084 Z" fill="#000000" fill-rule="nonzero" fill-opacity="1"></path><path clip-path="url(#clip140)" d="M14.479 1100.19 L14.479 1094.33 L64.0042 1094.33 L64.0042 1100.19 L14.479 1100.19 Z" fill="#000000" fill-rule="nonzero" fill-opacity="1"></path><path clip-path="url(#clip140)" d="M44.7161 1051.59 L47.5806 1051.59 L47.5806 1078.51 Q53.6281 1078.13 56.8109 1074.89 Q59.9619 1071.61 59.9619 1065.78 Q59.9619 1062.41 59.1344 1059.26 Q58.3069 1056.08 56.6518 1052.96 L62.1899 1052.96 Q63.5267 1056.11 64.227 1059.42 Q64.9272 1062.73 64.9272 1066.13 Q64.9272 1074.66 59.9619 1079.66 Q54.9967 1084.63 46.5303 1084.63 Q37.7774 1084.63 32.6531 1079.91 Q27.4968 1075.17 27.4968 1067.15 Q27.4968 1059.96 32.1438 1055.79 Q36.7589 1051.59 44.7161 1051.59 M42.9973 1057.44 Q38.1912 1057.51 35.3266 1060.15 Q32.4621 1062.76 32.4621 1067.09 Q32.4621 1071.99 35.2312 1074.95 Q38.0002 1077.88 43.0292 1078.32 L42.9973 1057.44 Z" fill="#000000" fill-rule="nonzero" fill-opacity="1"></path><path clip-path="url(#clip140)" d="M42.4881 1012.34 L64.0042 1012.34 L64.0042 1018.2 L42.679 1018.2 Q37.6183 1018.2 35.1038 1020.17 Q32.5894 1022.15 32.5894 1026.09 Q32.5894 1030.84 35.6131 1033.57 Q38.6368 1036.31 43.8567 1036.31 L64.0042 1036.31 L64.0042 1042.2 L28.3562 1042.2 L28.3562 1036.31 L33.8944 1036.31 Q30.6797 1034.21 29.0883 1031.38 Q27.4968 1028.51 27.4968 1024.79 Q27.4968 1018.65 31.3163 1015.49 Q35.1038 1012.34 42.4881 1012.34 Z" fill="#000000" fill-rule="nonzero" fill-opacity="1"></path><path clip-path="url(#clip140)" d="M45.7664 977.204 Q39.4007 977.204 35.8996 979.846 Q32.3984 982.456 32.3984 987.198 Q32.3984 991.909 35.8996 994.551 Q39.4007 997.161 45.7664 997.161 Q52.1003 997.161 55.6014 994.551 Q59.1026 991.909 59.1026 987.198 Q59.1026 982.456 55.6014 979.846 Q52.1003 977.204 45.7664 977.204 M59.58 971.348 Q68.683 971.348 73.1071 975.39 Q77.5631 979.432 77.5631 987.771 Q77.5631 990.859 77.0857 993.596 Q76.6401 996.333 75.6852 998.911 L69.9879 998.911 Q71.3884 996.333 72.0568 993.819 Q72.7252 991.304 72.7252 988.694 Q72.7252 982.933 69.7015 980.069 Q66.7096 977.204 60.6303 977.204 L57.7339 977.204 Q60.885 979.019 62.4446 981.851 Q64.0042 984.684 64.0042 988.631 Q64.0042 995.187 59.0071 999.198 Q54.01 1003.21 45.7664 1003.21 Q37.491 1003.21 32.4939 999.198 Q27.4968 995.187 27.4968 988.631 Q27.4968 984.684 29.0564 981.851 Q30.616 979.019 33.7671 977.204 L28.3562 977.204 L28.3562 971.348 L59.58 971.348 Z" fill="#000000" fill-rule="nonzero" fill-opacity="1"></path><path clip-path="url(#clip140)" d="M18.2347 953.492 L28.3562 953.492 L28.3562 941.429 L32.9077 941.429 L32.9077 953.492 L52.2594 953.492 Q56.6199 953.492 57.8613 952.314 Q59.1026 951.105 59.1026 947.445 L59.1026 941.429 L64.0042 941.429 L64.0042 947.445 Q64.0042 954.224 61.4897 956.802 Q58.9434 959.38 52.2594 959.38 L32.9077 959.38 L32.9077 963.677 L28.3562 963.677 L28.3562 959.38 L18.2347 959.38 L18.2347 953.492 Z" fill="#000000" fill-rule="nonzero" fill-opacity="1"></path><path clip-path="url(#clip140)" d="M42.4881 904.094 L64.0042 904.094 L64.0042 909.951 L42.679 909.951 Q37.6183 909.951 35.1038 911.924 Q32.5894 913.897 32.5894 917.844 Q32.5894 922.587 35.6131 925.324 Q38.6368 928.061 43.8567 928.061 L64.0042 928.061 L64.0042 933.949 L14.479 933.949 L14.479 928.061 L33.8944 928.061 Q30.6797 925.96 29.0883 923.128 Q27.4968 920.263 27.4968 916.539 Q27.4968 910.396 31.3163 907.245 Q35.1038 904.094 42.4881 904.094 Z" fill="#000000" fill-rule="nonzero" fill-opacity="1"></path><path clip-path="url(#clip140)" d="M14.5426 857.625 Q21.8632 861.89 29.0246 863.958 Q36.186 866.027 43.5384 866.027 Q50.8908 866.027 58.1159 863.958 Q65.3091 861.858 72.5979 857.625 L72.5979 862.717 Q65.1182 867.491 57.8931 869.878 Q50.668 872.234 43.5384 872.234 Q36.4406 872.234 29.2474 869.878 Q22.0542 867.523 14.5426 862.717 L14.5426 857.625 Z" fill="#000000" fill-rule="nonzero" fill-opacity="1"></path><path clip-path="url(#clip140)" d="M29.7248 820.608 L35.1993 820.608 Q33.8307 823.091 33.1623 825.605 Q32.4621 828.088 32.4621 830.634 Q32.4621 836.331 36.0905 839.482 Q39.6872 842.633 46.212 842.633 Q52.7369 842.633 56.3653 839.482 Q59.9619 836.331 59.9619 830.634 Q59.9619 828.088 59.2935 825.605 Q58.5933 823.091 57.2247 820.608 L62.6355 820.608 Q63.7814 823.059 64.3543 825.7 Q64.9272 828.31 64.9272 831.27 Q64.9272 839.323 59.8664 844.066 Q54.8057 848.808 46.212 848.808 Q37.491 848.808 32.4939 844.034 Q27.4968 839.228 27.4968 830.889 Q27.4968 828.183 28.0697 825.605 Q28.6108 823.027 29.7248 820.608 Z" fill="#000000" fill-rule="nonzero" fill-opacity="1"></path><path clip-path="url(#clip140)" d="M44.7161 779.931 L47.5806 779.931 L47.5806 806.858 Q53.6281 806.476 56.8109 803.23 Q59.9619 799.951 59.9619 794.127 Q59.9619 790.753 59.1344 787.602 Q58.3069 784.419 56.6518 781.3 L62.1899 781.3 Q63.5267 784.451 64.227 787.761 Q64.9272 791.071 64.9272 794.477 Q64.9272 803.007 59.9619 808.004 Q54.9967 812.969 46.5303 812.969 Q37.7774 812.969 32.6531 808.258 Q27.4968 803.516 27.4968 795.495 Q27.4968 788.302 32.1438 784.132 Q36.7589 779.931 44.7161 779.931 M42.9973 785.788 Q38.1912 785.851 35.3266 788.493 Q32.4621 791.103 32.4621 795.432 Q32.4621 800.333 35.2312 803.293 Q38.0002 806.221 43.0292 806.667 L42.9973 785.788 Z" fill="#000000" fill-rule="nonzero" fill-opacity="1"></path><path clip-path="url(#clip140)" d="M14.479 770.319 L14.479 764.462 L64.0042 764.462 L64.0042 770.319 L14.479 770.319 Z" fill="#000000" fill-rule="nonzero" fill-opacity="1"></path><path clip-path="url(#clip140)" d="M14.479 752.208 L14.479 746.352 L64.0042 746.352 L64.0042 752.208 L14.479 752.208 Z" fill="#000000" fill-rule="nonzero" fill-opacity="1"></path><path clip-path="url(#clip140)" d="M33.7671 689.92 L14.479 689.92 L14.479 684.064 L64.0042 684.064 L64.0042 689.92 L58.657 689.92 Q61.8398 691.766 63.3994 694.599 Q64.9272 697.4 64.9272 701.346 Q64.9272 707.808 59.771 711.882 Q54.6147 715.924 46.212 715.924 Q37.8093 715.924 32.6531 711.882 Q27.4968 707.808 27.4968 701.346 Q27.4968 697.4 29.0564 694.599 Q30.5842 691.766 33.7671 689.92 M46.212 709.876 Q52.6732 709.876 56.3653 707.235 Q60.0256 704.561 60.0256 699.914 Q60.0256 695.267 56.3653 692.594 Q52.6732 689.92 46.212 689.92 Q39.7508 689.92 36.0905 692.594 Q32.3984 695.267 32.3984 699.914 Q32.3984 704.561 36.0905 707.235 Q39.7508 709.876 46.212 709.876 Z" fill="#000000" fill-rule="nonzero" fill-opacity="1"></path><path clip-path="url(#clip140)" d="M28.3562 672.001 L28.3562 666.144 L64.0042 666.144 L64.0042 672.001 L28.3562 672.001 M14.479 672.001 L14.479 666.144 L21.895 666.144 L21.895 672.001 L14.479 672.001 Z" fill="#000000" fill-rule="nonzero" fill-opacity="1"></path><path clip-path="url(#clip140)" d="M46.0847 637.689 Q46.0847 644.787 47.7079 647.524 Q49.3312 650.262 53.2461 650.262 Q56.3653 650.262 58.2114 648.225 Q60.0256 646.156 60.0256 642.623 Q60.0256 637.753 56.5881 634.825 Q53.1188 631.865 47.3897 631.865 L46.0847 631.865 L46.0847 637.689 M43.6657 626.008 L64.0042 626.008 L64.0042 631.865 L58.5933 631.865 Q61.8398 633.87 63.3994 636.862 Q64.9272 639.854 64.9272 644.182 Q64.9272 649.657 61.8716 652.903 Q58.7843 656.118 53.6281 656.118 Q47.6125 656.118 44.5569 652.108 Q41.5014 648.065 41.5014 640.076 L41.5014 631.865 L40.9285 631.865 Q36.8862 631.865 34.6901 634.538 Q32.4621 637.18 32.4621 641.986 Q32.4621 645.042 33.1941 647.938 Q33.9262 650.835 35.3903 653.508 L29.9795 653.508 Q28.7381 650.293 28.1334 647.27 Q27.4968 644.246 27.4968 641.381 Q27.4968 633.647 31.5072 629.828 Q35.5176 626.008 43.6657 626.008 Z" fill="#000000" fill-rule="nonzero" fill-opacity="1"></path><path clip-path="url(#clip140)" d="M35.1993 586.191 Q31.2526 583.995 29.3747 580.939 Q27.4968 577.884 27.4968 573.746 Q27.4968 568.176 31.4117 565.152 Q35.2948 562.128 42.4881 562.128 L64.0042 562.128 L64.0042 568.017 L42.679 568.017 Q37.5546 568.017 35.072 569.831 Q32.5894 571.645 32.5894 575.369 Q32.5894 579.921 35.6131 582.562 Q38.6368 585.204 43.8567 585.204 L64.0042 585.204 L64.0042 591.092 L42.679 591.092 Q37.5228 591.092 35.072 592.907 Q32.5894 594.721 32.5894 598.508 Q32.5894 602.996 35.6449 605.638 Q38.6686 608.28 43.8567 608.28 L64.0042 608.28 L64.0042 614.168 L28.3562 614.168 L28.3562 608.28 L33.8944 608.28 Q30.616 606.275 29.0564 603.474 Q27.4968 600.673 27.4968 596.822 Q27.4968 592.938 29.4702 590.233 Q31.4436 587.496 35.1993 586.191 Z" fill="#000000" fill-rule="nonzero" fill-opacity="1"></path><path clip-path="url(#clip140)" d="M44.7161 519.956 L47.5806 519.956 L47.5806 546.883 Q53.6281 546.501 56.8109 543.254 Q59.9619 539.976 59.9619 534.151 Q59.9619 530.777 59.1344 527.626 Q58.3069 524.443 56.6518 521.324 L62.1899 521.324 Q63.5267 524.475 64.227 527.785 Q64.9272 531.096 64.9272 534.501 Q64.9272 543.031 59.9619 548.028 Q54.9967 552.994 46.5303 552.994 Q37.7774 552.994 32.6531 548.283 Q27.4968 543.541 27.4968 535.52 Q27.4968 528.327 32.1438 524.157 Q36.7589 519.956 44.7161 519.956 M42.9973 525.812 Q38.1912 525.876 35.3266 528.517 Q32.4621 531.127 32.4621 535.456 Q32.4621 540.358 35.2312 543.318 Q38.0002 546.246 43.0292 546.692 L42.9973 525.812 Z" fill="#000000" fill-rule="nonzero" fill-opacity="1"></path><path clip-path="url(#clip140)" d="M18.2347 504.551 L28.3562 504.551 L28.3562 492.488 L32.9077 492.488 L32.9077 504.551 L52.2594 504.551 Q56.6199 504.551 57.8613 503.373 Q59.1026 502.163 59.1026 498.503 L59.1026 492.488 L64.0042 492.488 L64.0042 498.503 Q64.0042 505.283 61.4897 507.861 Q58.9434 510.439 52.2594 510.439 L32.9077 510.439 L32.9077 514.736 L28.3562 514.736 L28.3562 510.439 L18.2347 510.439 L18.2347 504.551 Z" fill="#000000" fill-rule="nonzero" fill-opacity="1"></path><path clip-path="url(#clip140)" d="M44.7161 454.293 L47.5806 454.293 L47.5806 481.22 Q53.6281 480.838 56.8109 477.592 Q59.9619 474.313 59.9619 468.489 Q59.9619 465.115 59.1344 461.964 Q58.3069 458.781 56.6518 455.662 L62.1899 455.662 Q63.5267 458.813 64.227 462.123 Q64.9272 465.433 64.9272 468.839 Q64.9272 477.369 59.9619 482.366 Q54.9967 487.331 46.5303 487.331 Q37.7774 487.331 32.6531 482.621 Q27.4968 477.878 27.4968 469.857 Q27.4968 462.664 32.1438 458.495 Q36.7589 454.293 44.7161 454.293 M42.9973 460.15 Q38.1912 460.213 35.3266 462.855 Q32.4621 465.465 32.4621 469.794 Q32.4621 474.695 35.2312 477.655 Q38.0002 480.584 43.0292 481.029 L42.9973 460.15 Z" fill="#000000" fill-rule="nonzero" fill-opacity="1"></path><path clip-path="url(#clip140)" d="M33.8307 424.024 Q33.2578 425.011 33.0032 426.189 Q32.7167 427.335 32.7167 428.735 Q32.7167 433.7 35.9632 436.374 Q39.1779 439.016 45.2253 439.016 L64.0042 439.016 L64.0042 444.904 L28.3562 444.904 L28.3562 439.016 L33.8944 439.016 Q30.6479 437.17 29.0883 434.21 Q27.4968 431.249 27.4968 427.016 Q27.4968 426.412 27.5923 425.679 Q27.656 424.947 27.8151 424.056 L33.8307 424.024 Z" fill="#000000" fill-rule="nonzero" fill-opacity="1"></path><path clip-path="url(#clip140)" d="M29.4065 395.156 L34.9447 395.156 Q33.6716 397.639 33.035 400.312 Q32.3984 402.986 32.3984 405.85 Q32.3984 410.211 33.7352 412.407 Q35.072 414.571 37.7456 414.571 Q39.7826 414.571 40.9603 413.012 Q42.1061 411.452 43.1565 406.742 L43.6021 404.736 Q44.9389 398.498 47.3897 395.888 Q49.8086 393.246 54.1691 393.246 Q59.1344 393.246 62.0308 397.193 Q64.9272 401.108 64.9272 407.983 Q64.9272 410.847 64.3543 413.967 Q63.8132 417.054 62.6992 420.491 L56.6518 420.491 Q58.3387 417.245 59.198 414.094 Q60.0256 410.943 60.0256 407.856 Q60.0256 403.718 58.6251 401.49 Q57.1929 399.262 54.6147 399.262 Q52.2276 399.262 50.9545 400.885 Q49.6813 402.476 48.5037 407.919 L48.0262 409.956 Q46.8804 415.399 44.5251 417.818 Q42.138 420.237 38.0002 420.237 Q32.9713 420.237 30.2341 416.672 Q27.4968 413.107 27.4968 406.551 Q27.4968 403.304 27.9743 400.439 Q28.4517 397.575 29.4065 395.156 Z" fill="#000000" fill-rule="nonzero" fill-opacity="1"></path><path clip-path="url(#clip140)" d="M14.5426 384.843 L14.5426 379.751 Q22.0542 374.977 29.2474 372.621 Q36.4406 370.234 43.5384 370.234 Q50.668 370.234 57.8931 372.621 Q65.1182 374.977 72.5979 379.751 L72.5979 384.843 Q65.3091 380.61 58.1159 378.541 Q50.8908 376.441 43.5384 376.441 Q36.186 376.441 29.0246 378.541 Q21.8632 380.61 14.5426 384.843 Z" fill="#000000" fill-rule="nonzero" fill-opacity="1"></path><polyline clip-path="url(#clip142)" style="stroke:#009af9; stroke-linecap:round; stroke-linejoin:round; stroke-width:20; stroke-opacity:1; fill:none" points="309.067,86.1857 329.109,87.491 349.151,88.93 369.193,90.5157 389.235,92.2625 409.277,94.1859 429.319,96.3026 449.361,98.6309 469.403,101.19 489.446,104.002 509.488,107.089 529.53,110.476 549.572,114.188 569.614,118.252 589.656,122.699 609.698,127.558 629.74,132.862 649.782,138.643 669.824,144.937 689.866,151.777 709.908,159.2 729.95,167.241 749.992,175.936 770.034,185.318 790.076,195.42 810.118,206.273 830.161,217.904 850.203,230.338 870.245,243.595 890.287,257.69 910.329,272.633 930.371,288.428 950.413,305.071 970.455,322.555 990.497,340.862 1010.54,359.971 1030.58,379.854 1050.62,400.477 1070.67,421.801 1090.71,443.782 1110.75,466.377 1130.79,489.535 1150.83,513.21 1170.88,537.35 1190.92,561.906 1210.96,586.831 1231,612.076 1251.04,637.594 1271.09,663.339 1291.13,689.265 1311.17,715.326 1331.21,741.473 1351.25,767.656 1371.3,793.824 1391.34,819.921 1411.38,845.889 1431.42,871.666 1451.46,897.188 1471.51,922.388 1491.55,947.198 1511.59,971.548 1531.63,995.371 1551.67,1018.6 1571.72,1041.18 1591.76,1063.04 1611.8,1084.13 1631.84,1104.42 1651.89,1123.86 1671.93,1142.42 1691.97,1160.08 1712.01,1176.84 1732.05,1192.68 1752.1,1207.61 1772.14,1221.64 1792.18,1234.79 1812.22,1247.08 1832.26,1258.53 1852.31,1269.18 1872.35,1279.06 1892.39,1288.21 1912.43,1296.66 1932.47,1304.46 1952.52,1311.63 1972.56,1318.23 1992.6,1324.29 2012.64,1329.84 2032.68,1334.93 2052.73,1339.58 2072.77,1343.82 2092.81,1347.7 2112.85,1351.23 2132.89,1354.46 2152.94,1357.39 2172.98,1360.06 2193.02,1362.48 2213.06,1364.69 2233.1,1366.69 2253.15,1368.51 2273.19,1370.16 2293.23,1371.66 "></polyline>
<polyline clip-path="url(#clip142)" style="stroke:#e69138; stroke-linecap:round; stroke-linejoin:round; stroke-width:20; stroke-opacity:1; fill:none" points="309.067,1375.28 329.109,1374.16 349.151,1372.93 369.193,1371.57 389.235,1370.08 409.277,1368.44 429.319,1366.63 449.361,1364.64 469.403,1362.46 489.446,1360.07 509.488,1357.44 529.53,1354.57 549.572,1351.42 569.614,1347.98 589.656,1344.22 609.698,1340.12 629.74,1335.65 649.782,1330.8 669.824,1325.53 689.866,1319.81 709.908,1313.63 729.95,1306.95 749.992,1299.77 770.034,1292.04 790.076,1283.77 810.118,1274.92 830.161,1265.5 850.203,1255.5 870.245,1244.91 890.287,1233.74 910.329,1222 930.371,1209.72 950.413,1196.93 970.455,1183.65 990.497,1169.93 1010.54,1155.82 1030.58,1141.39 1050.62,1126.69 1070.67,1111.8 1090.71,1096.79 1110.75,1081.73 1130.79,1066.7 1150.83,1051.78 1170.88,1037.04 1190.92,1022.54 1210.96,1008.37 1231,994.571 1251.04,981.2 1271.09,968.303 1291.13,955.917 1311.17,944.071 1331.21,932.788 1351.25,922.081 1371.3,911.958 1391.34,902.42 1411.38,893.461 1431.42,885.073 1451.46,877.242 1471.51,869.949 1491.55,863.174 1511.59,856.895 1531.63,851.089 1551.67,845.729 1571.72,840.791 1591.76,836.249 1611.8,832.078 1631.84,828.253 1651.89,824.75 1671.93,821.545 1691.97,818.616 1712.01,815.943 1732.05,813.504 1752.1,811.282 1772.14,809.259 1792.18,807.417 1812.22,805.743 1832.26,804.22 1852.31,802.838 1872.35,801.582 1892.39,800.442 1912.43,799.408 1932.47,798.471 1952.52,797.62 1972.56,796.85 1992.6,796.151 2012.64,795.519 2032.68,794.945 2052.73,794.426 2072.77,793.956 2092.81,793.531 2112.85,793.146 2132.89,792.798 2152.94,792.482 2172.98,792.197 2193.02,791.939 2213.06,791.705 2233.1,791.494 2253.15,791.303 2273.19,791.13 2293.23,790.973 "></polyline>
<polyline clip-path="url(#clip142)" style="stroke:#b45f06; stroke-linecap:round; stroke-linejoin:round; stroke-width:20; stroke-opacity:1; fill:none" points="309.067,1384.24 329.109,1384.05 349.151,1383.84 369.193,1383.61 389.235,1383.36 409.277,1383.08 429.319,1382.77 449.361,1382.43 469.403,1382.05 489.446,1381.63 509.488,1381.17 529.53,1380.66 549.572,1380.09 569.614,1379.47 589.656,1378.78 609.698,1378.02 629.74,1377.19 649.782,1376.26 669.824,1375.24 689.866,1374.12 709.908,1372.88 729.95,1371.51 749.992,1370 770.034,1368.34 790.076,1366.52 810.118,1364.51 830.161,1362.3 850.203,1359.87 870.245,1357.2 890.287,1354.27 910.329,1351.07 930.371,1347.55 950.413,1343.71 970.455,1339.5 990.497,1334.91 1010.54,1329.91 1030.58,1324.46 1050.62,1318.53 1070.67,1312.1 1090.71,1305.13 1110.75,1297.6 1130.79,1289.47 1150.83,1280.72 1170.88,1271.32 1190.92,1261.25 1210.96,1250.5 1231,1239.06 1251.04,1226.91 1271.09,1214.06 1291.13,1200.52 1311.17,1186.31 1331.21,1171.44 1351.25,1155.97 1371.3,1139.92 1391.34,1123.36 1411.38,1106.35 1431.42,1088.96 1451.46,1071.27 1471.51,1053.37 1491.55,1035.33 1511.59,1017.26 1531.63,999.243 1551.67,981.373 1571.72,963.736 1591.76,946.417 1611.8,929.492 1631.84,913.031 1651.89,897.096 1671.93,881.739 1691.97,867.002 1712.01,852.921 1732.05,839.518 1752.1,826.809 1772.14,814.802 1792.18,803.496 1812.22,792.885 1832.26,782.954 1852.31,773.687 1872.35,765.062 1892.39,757.053 1912.43,749.635 1932.47,742.776 1952.52,736.449 1972.56,730.621 1992.6,725.262 2012.64,720.342 2032.68,715.831 2052.73,711.701 2072.77,707.924 2092.81,704.473 2112.85,701.323 2132.89,698.45 2152.94,695.833 2172.98,693.45 2193.02,691.282 2213.06,689.31 2233.1,687.518 2253.15,685.89 2273.19,684.413 2293.23,683.071 "></polyline>
<path clip-path="url(#clip140)" d="M1393.95 352.309 L2282.65 352.309 L2282.65 93.1086 L1393.95 93.1086  Z" fill="#ffffff" fill-rule="evenodd" fill-opacity="1"></path>
<polyline clip-path="url(#clip140)" style="stroke:#000000; stroke-linecap:round; stroke-linejoin:round; stroke-width:4; stroke-opacity:1; fill:none" points="1393.95,352.309 2282.65,352.309 2282.65,93.1086 1393.95,93.1086 1393.95,352.309 "></polyline>
<polyline clip-path="url(#clip140)" style="stroke:#009af9; stroke-linecap:round; stroke-linejoin:round; stroke-width:25; stroke-opacity:1; fill:none" points="1417.31,157.909 1557.53,157.909 "></polyline>
<path clip-path="url(#clip140)" d="M1580.9 136.309 L1605.72 136.309 L1605.72 141.228 L1586.74 141.228 L1586.74 153.959 L1603.87 153.959 L1603.87 158.878 L1586.74 158.878 L1586.74 179.509 L1580.9 179.509 L1580.9 136.309 Z" fill="#000000" fill-rule="nonzero" fill-opacity="1"></path><path clip-path="url(#clip140)" d="M1629.22 152.078 Q1628.32 151.557 1627.25 151.326 Q1626.21 151.065 1624.94 151.065 Q1620.42 151.065 1617.99 154.017 Q1615.59 156.939 1615.59 162.437 L1615.59 179.509 L1610.24 179.509 L1610.24 147.101 L1615.59 147.101 L1615.59 152.136 Q1617.27 149.185 1619.96 147.767 Q1622.65 146.32 1626.5 146.32 Q1627.05 146.32 1627.71 146.407 Q1628.38 146.465 1629.19 146.609 L1629.22 152.078 Z" fill="#000000" fill-rule="nonzero" fill-opacity="1"></path><path clip-path="url(#clip140)" d="M1661.22 161.974 L1661.22 164.578 L1636.74 164.578 Q1637.09 170.076 1640.04 172.969 Q1643.02 175.834 1648.32 175.834 Q1651.38 175.834 1654.25 175.082 Q1657.14 174.329 1659.98 172.825 L1659.98 177.859 Q1657.11 179.075 1654.1 179.711 Q1651.09 180.348 1648 180.348 Q1640.24 180.348 1635.7 175.834 Q1631.19 171.32 1631.19 163.623 Q1631.19 155.666 1635.47 151.008 Q1639.78 146.32 1647.07 146.32 Q1653.61 146.32 1657.4 150.545 Q1661.22 154.74 1661.22 161.974 M1655.9 160.411 Q1655.84 156.042 1653.44 153.438 Q1651.07 150.834 1647.13 150.834 Q1642.67 150.834 1639.98 153.351 Q1637.32 155.869 1636.92 160.44 L1655.9 160.411 Z" fill="#000000" fill-rule="nonzero" fill-opacity="1"></path><path clip-path="url(#clip140)" d="M1697.68 161.974 L1697.68 164.578 L1673.2 164.578 Q1673.55 170.076 1676.5 172.969 Q1679.48 175.834 1684.77 175.834 Q1687.84 175.834 1690.71 175.082 Q1693.6 174.329 1696.44 172.825 L1696.44 177.859 Q1693.57 179.075 1690.56 179.711 Q1687.55 180.348 1684.46 180.348 Q1676.7 180.348 1672.16 175.834 Q1667.65 171.32 1667.65 163.623 Q1667.65 155.666 1671.93 151.008 Q1676.24 146.32 1683.53 146.32 Q1690.07 146.32 1693.86 150.545 Q1697.68 154.74 1697.68 161.974 M1692.36 160.411 Q1692.3 156.042 1689.9 153.438 Q1687.52 150.834 1683.59 150.834 Q1679.13 150.834 1676.44 153.351 Q1673.78 155.869 1673.37 160.44 L1692.36 160.411 Z" fill="#000000" fill-rule="nonzero" fill-opacity="1"></path><path clip-path="url(#clip140)" d="M1730.52 137.9 L1730.52 147.101 L1741.49 147.101 L1741.49 151.239 L1730.52 151.239 L1730.52 168.832 Q1730.52 172.796 1731.59 173.924 Q1732.69 175.053 1736.02 175.053 L1741.49 175.053 L1741.49 179.509 L1736.02 179.509 Q1729.86 179.509 1727.51 177.223 Q1725.17 174.908 1725.17 168.832 L1725.17 151.239 L1721.26 151.239 L1721.26 147.101 L1725.17 147.101 L1725.17 137.9 L1730.52 137.9 Z" fill="#000000" fill-rule="nonzero" fill-opacity="1"></path><path clip-path="url(#clip140)" d="M1747.94 166.719 L1747.94 147.101 L1753.26 147.101 L1753.26 166.517 Q1753.26 171.117 1755.06 173.432 Q1756.85 175.718 1760.44 175.718 Q1764.75 175.718 1767.24 172.969 Q1769.76 170.22 1769.76 165.475 L1769.76 147.101 L1775.08 147.101 L1775.08 179.509 L1769.76 179.509 L1769.76 174.532 Q1767.82 177.483 1765.24 178.93 Q1762.7 180.348 1759.31 180.348 Q1753.73 180.348 1750.83 176.876 Q1747.94 173.403 1747.94 166.719 M1761.34 146.32 L1761.34 146.32 Z" fill="#000000" fill-rule="nonzero" fill-opacity="1"></path><path clip-path="url(#clip140)" d="M1809.31 163.334 Q1809.31 157.46 1806.88 154.133 Q1804.48 150.776 1800.25 150.776 Q1796.03 150.776 1793.6 154.133 Q1791.2 157.46 1791.2 163.334 Q1791.2 169.208 1793.6 172.564 Q1796.03 175.892 1800.25 175.892 Q1804.48 175.892 1806.88 172.564 Q1809.31 169.208 1809.31 163.334 M1791.2 152.02 Q1792.88 149.127 1795.42 147.738 Q1798 146.32 1801.56 146.32 Q1807.46 146.32 1811.13 151.008 Q1814.84 155.695 1814.84 163.334 Q1814.84 170.973 1811.13 175.66 Q1807.46 180.348 1801.56 180.348 Q1798 180.348 1795.42 178.959 Q1792.88 177.541 1791.2 174.648 L1791.2 179.509 L1785.84 179.509 L1785.84 134.486 L1791.2 134.486 L1791.2 152.02 Z" fill="#000000" fill-rule="nonzero" fill-opacity="1"></path><path clip-path="url(#clip140)" d="M1823.11 166.719 L1823.11 147.101 L1828.44 147.101 L1828.44 166.517 Q1828.44 171.117 1830.23 173.432 Q1832.03 175.718 1835.61 175.718 Q1839.92 175.718 1842.41 172.969 Q1844.93 170.22 1844.93 165.475 L1844.93 147.101 L1850.25 147.101 L1850.25 179.509 L1844.93 179.509 L1844.93 174.532 Q1842.99 177.483 1840.42 178.93 Q1837.87 180.348 1834.48 180.348 Q1828.9 180.348 1826.01 176.876 Q1823.11 173.403 1823.11 166.719 M1836.51 146.32 L1836.51 146.32 Z" fill="#000000" fill-rule="nonzero" fill-opacity="1"></path><path clip-path="url(#clip140)" d="M1861.22 134.486 L1866.54 134.486 L1866.54 179.509 L1861.22 179.509 L1861.22 134.486 Z" fill="#000000" fill-rule="nonzero" fill-opacity="1"></path><path clip-path="url(#clip140)" d="M1877.68 147.101 L1883.01 147.101 L1883.01 179.509 L1877.68 179.509 L1877.68 147.101 M1877.68 134.486 L1883.01 134.486 L1883.01 141.228 L1877.68 141.228 L1877.68 134.486 Z" fill="#000000" fill-rule="nonzero" fill-opacity="1"></path><path clip-path="url(#clip140)" d="M1921.09 159.949 L1921.09 179.509 L1915.76 179.509 L1915.76 160.122 Q1915.76 155.521 1913.97 153.236 Q1912.18 150.95 1908.59 150.95 Q1904.28 150.95 1901.79 153.699 Q1899.3 156.447 1899.3 161.193 L1899.3 179.509 L1893.95 179.509 L1893.95 147.101 L1899.3 147.101 L1899.3 152.136 Q1901.21 149.214 1903.78 147.767 Q1906.39 146.32 1909.77 146.32 Q1915.36 146.32 1918.22 149.792 Q1921.09 153.236 1921.09 159.949 Z" fill="#000000" fill-rule="nonzero" fill-opacity="1"></path><path clip-path="url(#clip140)" d="M1975.77 153.322 Q1977.77 149.734 1980.55 148.027 Q1983.33 146.32 1987.09 146.32 Q1992.15 146.32 1994.9 149.879 Q1997.65 153.409 1997.65 159.949 L1997.65 179.509 L1992.3 179.509 L1992.3 160.122 Q1992.3 155.464 1990.65 153.207 Q1989 150.95 1985.61 150.95 Q1981.47 150.95 1979.07 153.699 Q1976.67 156.447 1976.67 161.193 L1976.67 179.509 L1971.32 179.509 L1971.32 160.122 Q1971.32 155.435 1969.67 153.207 Q1968.02 150.95 1964.58 150.95 Q1960.5 150.95 1958.1 153.728 Q1955.69 156.476 1955.69 161.193 L1955.69 179.509 L1950.34 179.509 L1950.34 147.101 L1955.69 147.101 L1955.69 152.136 Q1957.52 149.156 1960.06 147.738 Q1962.61 146.32 1966.11 146.32 Q1969.64 146.32 1972.1 148.114 Q1974.59 149.908 1975.77 153.322 Z" fill="#000000" fill-rule="nonzero" fill-opacity="1"></path><path clip-path="url(#clip140)" d="M2020.83 150.834 Q2016.54 150.834 2014.06 154.19 Q2011.57 157.518 2011.57 163.334 Q2011.57 169.15 2014.03 172.506 Q2016.51 175.834 2020.83 175.834 Q2025.08 175.834 2027.57 172.477 Q2030.06 169.121 2030.06 163.334 Q2030.06 157.576 2027.57 154.219 Q2025.08 150.834 2020.83 150.834 M2020.83 146.32 Q2027.77 146.32 2031.73 150.834 Q2035.7 155.348 2035.7 163.334 Q2035.7 171.291 2031.73 175.834 Q2027.77 180.348 2020.83 180.348 Q2013.85 180.348 2009.89 175.834 Q2005.95 171.291 2005.95 163.334 Q2005.95 155.348 2009.89 150.834 Q2013.85 146.32 2020.83 146.32 Z" fill="#000000" fill-rule="nonzero" fill-opacity="1"></path><path clip-path="url(#clip140)" d="M2071.46 159.949 L2071.46 179.509 L2066.14 179.509 L2066.14 160.122 Q2066.14 155.521 2064.34 153.236 Q2062.55 150.95 2058.96 150.95 Q2054.65 150.95 2052.16 153.699 Q2049.67 156.447 2049.67 161.193 L2049.67 179.509 L2044.32 179.509 L2044.32 147.101 L2049.67 147.101 L2049.67 152.136 Q2051.58 149.214 2054.16 147.767 Q2056.76 146.32 2060.15 146.32 Q2065.73 146.32 2068.6 149.792 Q2071.46 153.236 2071.46 159.949 Z" fill="#000000" fill-rule="nonzero" fill-opacity="1"></path><path clip-path="url(#clip140)" d="M2094.64 150.834 Q2090.36 150.834 2087.87 154.19 Q2085.38 157.518 2085.38 163.334 Q2085.38 169.15 2087.84 172.506 Q2090.33 175.834 2094.64 175.834 Q2098.89 175.834 2101.38 172.477 Q2103.87 169.121 2103.87 163.334 Q2103.87 157.576 2101.38 154.219 Q2098.89 150.834 2094.64 150.834 M2094.64 146.32 Q2101.58 146.32 2105.55 150.834 Q2109.51 155.348 2109.51 163.334 Q2109.51 171.291 2105.55 175.834 Q2101.58 180.348 2094.64 180.348 Q2087.67 180.348 2083.7 175.834 Q2079.77 171.291 2079.77 163.334 Q2079.77 155.348 2083.7 150.834 Q2087.67 146.32 2094.64 146.32 Z" fill="#000000" fill-rule="nonzero" fill-opacity="1"></path><path clip-path="url(#clip140)" d="M2143.57 153.322 Q2145.57 149.734 2148.34 148.027 Q2151.12 146.32 2154.88 146.32 Q2159.95 146.32 2162.69 149.879 Q2165.44 153.409 2165.44 159.949 L2165.44 179.509 L2160.09 179.509 L2160.09 160.122 Q2160.09 155.464 2158.44 153.207 Q2156.79 150.95 2153.41 150.95 Q2149.27 150.95 2146.87 153.699 Q2144.47 156.447 2144.47 161.193 L2144.47 179.509 L2139.11 179.509 L2139.11 160.122 Q2139.11 155.435 2137.46 153.207 Q2135.81 150.95 2132.37 150.95 Q2128.29 150.95 2125.89 153.728 Q2123.49 156.476 2123.49 161.193 L2123.49 179.509 L2118.13 179.509 L2118.13 147.101 L2123.49 147.101 L2123.49 152.136 Q2125.31 149.156 2127.86 147.738 Q2130.4 146.32 2133.9 146.32 Q2137.43 146.32 2139.89 148.114 Q2142.38 149.908 2143.57 153.322 Z" fill="#000000" fill-rule="nonzero" fill-opacity="1"></path><path clip-path="url(#clip140)" d="M2203.78 161.974 L2203.78 164.578 L2179.3 164.578 Q2179.65 170.076 2182.6 172.969 Q2185.58 175.834 2190.88 175.834 Q2193.94 175.834 2196.81 175.082 Q2199.7 174.329 2202.54 172.825 L2202.54 177.859 Q2199.67 179.075 2196.66 179.711 Q2193.66 180.348 2190.56 180.348 Q2182.8 180.348 2178.26 175.834 Q2173.75 171.32 2173.75 163.623 Q2173.75 155.666 2178.03 151.008 Q2182.34 146.32 2189.63 146.32 Q2196.17 146.32 2199.96 150.545 Q2203.78 154.74 2203.78 161.974 M2198.46 160.411 Q2198.4 156.042 2196 153.438 Q2193.63 150.834 2189.69 150.834 Q2185.23 150.834 2182.54 153.351 Q2179.88 155.869 2179.48 160.44 L2198.46 160.411 Z" fill="#000000" fill-rule="nonzero" fill-opacity="1"></path><path clip-path="url(#clip140)" d="M2231.3 152.078 Q2230.4 151.557 2229.33 151.326 Q2228.29 151.065 2227.02 151.065 Q2222.5 151.065 2220.07 154.017 Q2217.67 156.939 2217.67 162.437 L2217.67 179.509 L2212.32 179.509 L2212.32 147.101 L2217.67 147.101 L2217.67 152.136 Q2219.35 149.185 2222.04 147.767 Q2224.73 146.32 2228.58 146.32 Q2229.13 146.32 2229.79 146.407 Q2230.46 146.465 2231.27 146.609 L2231.3 152.078 Z" fill="#000000" fill-rule="nonzero" fill-opacity="1"></path><path clip-path="url(#clip140)" d="M2257.54 148.056 L2257.54 153.091 Q2255.29 151.934 2252.86 151.355 Q2250.43 150.776 2247.82 150.776 Q2243.86 150.776 2241.86 151.991 Q2239.89 153.207 2239.89 155.637 Q2239.89 157.489 2241.31 158.56 Q2242.73 159.601 2247.01 160.556 L2248.83 160.961 Q2254.51 162.177 2256.88 164.405 Q2259.28 166.604 2259.28 170.568 Q2259.28 175.082 2255.69 177.715 Q2252.13 180.348 2245.88 180.348 Q2243.28 180.348 2240.44 179.827 Q2237.64 179.335 2234.51 178.322 L2234.51 172.825 Q2237.46 174.358 2240.33 175.139 Q2243.19 175.892 2246 175.892 Q2249.76 175.892 2251.79 174.619 Q2253.81 173.317 2253.81 170.973 Q2253.81 168.803 2252.34 167.645 Q2250.89 166.488 2245.94 165.417 L2244.09 164.983 Q2239.14 163.942 2236.94 161.8 Q2234.74 159.63 2234.74 155.869 Q2234.74 151.297 2237.98 148.809 Q2241.22 146.32 2247.18 146.32 Q2250.14 146.32 2252.74 146.754 Q2255.34 147.188 2257.54 148.056 Z" fill="#000000" fill-rule="nonzero" fill-opacity="1"></path><polyline clip-path="url(#clip140)" style="stroke:#e69138; stroke-linecap:round; stroke-linejoin:round; stroke-width:25; stroke-opacity:1; fill:none" points="1417.31,222.709 1557.53,222.709 "></polyline>
<path clip-path="url(#clip140)" d="M1580.9 201.109 L1589.61 201.109 L1600.63 230.507 L1611.71 201.109 L1620.42 201.109 L1620.42 244.309 L1614.72 244.309 L1614.72 206.375 L1603.58 236.004 L1597.71 236.004 L1586.57 206.375 L1586.57 244.309 L1580.9 244.309 L1580.9 201.109 Z" fill="#000000" fill-rule="nonzero" fill-opacity="1"></path><path clip-path="url(#clip140)" d="M1631.79 211.901 L1637.12 211.901 L1637.12 244.309 L1631.79 244.309 L1631.79 211.901 M1631.79 199.286 L1637.12 199.286 L1637.12 206.028 L1631.79 206.028 L1631.79 199.286 Z" fill="#000000" fill-rule="nonzero" fill-opacity="1"></path><path clip-path="url(#clip140)" d="M1671.58 213.146 L1671.58 218.122 Q1669.32 216.878 1667.04 216.271 Q1664.78 215.634 1662.47 215.634 Q1657.29 215.634 1654.42 218.933 Q1651.56 222.202 1651.56 228.134 Q1651.56 234.066 1654.42 237.364 Q1657.29 240.634 1662.47 240.634 Q1664.78 240.634 1667.04 240.026 Q1669.32 239.39 1671.58 238.145 L1671.58 243.064 Q1669.35 244.106 1666.95 244.627 Q1664.58 245.148 1661.89 245.148 Q1654.57 245.148 1650.26 240.547 Q1645.94 235.946 1645.94 228.134 Q1645.94 220.206 1650.28 215.663 Q1654.65 211.12 1662.23 211.12 Q1664.69 211.12 1667.04 211.641 Q1669.38 212.133 1671.58 213.146 Z" fill="#000000" fill-rule="nonzero" fill-opacity="1"></path><path clip-path="url(#clip140)" d="M1699.62 216.878 Q1698.72 216.357 1697.65 216.126 Q1696.61 215.865 1695.34 215.865 Q1690.82 215.865 1688.39 218.817 Q1685.99 221.739 1685.99 227.237 L1685.99 244.309 L1680.64 244.309 L1680.64 211.901 L1685.99 211.901 L1685.99 216.936 Q1687.67 213.985 1690.36 212.567 Q1693.05 211.12 1696.9 211.12 Q1697.45 211.12 1698.11 211.207 Q1698.78 211.265 1699.59 211.409 L1699.62 216.878 Z" fill="#000000" fill-rule="nonzero" fill-opacity="1"></path><path clip-path="url(#clip140)" d="M1716.46 215.634 Q1712.18 215.634 1709.69 218.99 Q1707.2 222.318 1707.2 228.134 Q1707.2 233.95 1709.66 237.306 Q1712.15 240.634 1716.46 240.634 Q1720.71 240.634 1723.2 237.277 Q1725.69 233.921 1725.69 228.134 Q1725.69 222.376 1723.2 219.019 Q1720.71 215.634 1716.46 215.634 M1716.46 211.12 Q1723.4 211.12 1727.37 215.634 Q1731.33 220.148 1731.33 228.134 Q1731.33 236.091 1727.37 240.634 Q1723.4 245.148 1716.46 245.148 Q1709.49 245.148 1705.52 240.634 Q1701.59 236.091 1701.59 228.134 Q1701.59 220.148 1705.52 215.634 Q1709.49 211.12 1716.46 211.12 Z" fill="#000000" fill-rule="nonzero" fill-opacity="1"></path><path clip-path="url(#clip140)" d="M1745.42 202.7 L1745.42 211.901 L1756.39 211.901 L1756.39 216.039 L1745.42 216.039 L1745.42 233.632 Q1745.42 237.596 1746.49 238.724 Q1747.59 239.853 1750.92 239.853 L1756.39 239.853 L1756.39 244.309 L1750.92 244.309 Q1744.76 244.309 1742.41 242.023 Q1740.07 239.708 1740.07 233.632 L1740.07 216.039 L1736.16 216.039 L1736.16 211.901 L1740.07 211.901 L1740.07 202.7 L1745.42 202.7 Z" fill="#000000" fill-rule="nonzero" fill-opacity="1"></path><path clip-path="url(#clip140)" d="M1762.84 231.519 L1762.84 211.901 L1768.17 211.901 L1768.17 231.317 Q1768.17 235.917 1769.96 238.232 Q1771.75 240.518 1775.34 240.518 Q1779.65 240.518 1782.14 237.769 Q1784.66 235.02 1784.66 230.275 L1784.66 211.901 L1789.98 211.901 L1789.98 244.309 L1784.66 244.309 L1784.66 239.332 Q1782.72 242.283 1780.14 243.73 Q1777.6 245.148 1774.21 245.148 Q1768.63 245.148 1765.73 241.676 Q1762.84 238.203 1762.84 231.519 M1776.24 211.12 L1776.24 211.12 Z" fill="#000000" fill-rule="nonzero" fill-opacity="1"></path><path clip-path="url(#clip140)" d="M1824.21 228.134 Q1824.21 222.26 1821.78 218.933 Q1819.38 215.576 1815.16 215.576 Q1810.93 215.576 1808.5 218.933 Q1806.1 222.26 1806.1 228.134 Q1806.1 234.008 1808.5 237.364 Q1810.93 240.692 1815.16 240.692 Q1819.38 240.692 1821.78 237.364 Q1824.21 234.008 1824.21 228.134 M1806.1 216.82 Q1807.78 213.927 1810.32 212.538 Q1812.9 211.12 1816.46 211.12 Q1822.36 211.12 1826.04 215.808 Q1829.74 220.495 1829.74 228.134 Q1829.74 235.773 1826.04 240.46 Q1822.36 245.148 1816.46 245.148 Q1812.9 245.148 1810.32 243.759 Q1807.78 242.341 1806.1 239.448 L1806.1 244.309 L1800.75 244.309 L1800.75 199.286 L1806.1 199.286 L1806.1 216.82 Z" fill="#000000" fill-rule="nonzero" fill-opacity="1"></path><path clip-path="url(#clip140)" d="M1838.01 231.519 L1838.01 211.901 L1843.34 211.901 L1843.34 231.317 Q1843.34 235.917 1845.13 238.232 Q1846.93 240.518 1850.51 240.518 Q1854.83 240.518 1857.31 237.769 Q1859.83 235.02 1859.83 230.275 L1859.83 211.901 L1865.16 211.901 L1865.16 244.309 L1859.83 244.309 L1859.83 239.332 Q1857.89 242.283 1855.32 243.73 Q1852.77 245.148 1849.39 245.148 Q1843.8 245.148 1840.91 241.676 Q1838.01 238.203 1838.01 231.519 M1851.41 211.12 L1851.41 211.12 Z" fill="#000000" fill-rule="nonzero" fill-opacity="1"></path><path clip-path="url(#clip140)" d="M1876.12 199.286 L1881.45 199.286 L1881.45 244.309 L1876.12 244.309 L1876.12 199.286 Z" fill="#000000" fill-rule="nonzero" fill-opacity="1"></path><path clip-path="url(#clip140)" d="M1920.31 226.774 L1920.31 229.378 L1895.83 229.378 Q1896.17 234.876 1899.13 237.769 Q1902.11 240.634 1907.4 240.634 Q1910.47 240.634 1913.33 239.882 Q1916.23 239.129 1919.06 237.625 L1919.06 242.659 Q1916.2 243.875 1913.19 244.511 Q1910.18 245.148 1907.08 245.148 Q1899.33 245.148 1894.79 240.634 Q1890.27 236.12 1890.27 228.423 Q1890.27 220.466 1894.55 215.808 Q1898.86 211.12 1906.16 211.12 Q1912.7 211.12 1916.49 215.345 Q1920.31 219.54 1920.31 226.774 M1914.98 225.211 Q1914.92 220.842 1912.52 218.238 Q1910.15 215.634 1906.21 215.634 Q1901.76 215.634 1899.07 218.151 Q1896.41 220.669 1896 225.24 L1914.98 225.211 Z" fill="#000000" fill-rule="nonzero" fill-opacity="1"></path><path clip-path="url(#clip140)" d="M1949.65 239.39 L1959.19 239.39 L1959.19 206.433 L1948.81 208.516 L1948.81 203.192 L1959.14 201.109 L1964.98 201.109 L1964.98 239.39 L1974.53 239.39 L1974.53 244.309 L1949.65 244.309 L1949.65 239.39 Z" fill="#000000" fill-rule="nonzero" fill-opacity="1"></path><polyline clip-path="url(#clip140)" style="stroke:#b45f06; stroke-linecap:round; stroke-linejoin:round; stroke-width:25; stroke-opacity:1; fill:none" points="1417.31,287.509 1557.53,287.509 "></polyline>
<path clip-path="url(#clip140)" d="M1580.9 265.909 L1589.61 265.909 L1600.63 295.307 L1611.71 265.909 L1620.42 265.909 L1620.42 309.109 L1614.72 309.109 L1614.72 271.175 L1603.58 300.804 L1597.71 300.804 L1586.57 271.175 L1586.57 309.109 L1580.9 309.109 L1580.9 265.909 Z" fill="#000000" fill-rule="nonzero" fill-opacity="1"></path><path clip-path="url(#clip140)" d="M1631.79 276.701 L1637.12 276.701 L1637.12 309.109 L1631.79 309.109 L1631.79 276.701 M1631.79 264.086 L1637.12 264.086 L1637.12 270.828 L1631.79 270.828 L1631.79 264.086 Z" fill="#000000" fill-rule="nonzero" fill-opacity="1"></path><path clip-path="url(#clip140)" d="M1671.58 277.946 L1671.58 282.922 Q1669.32 281.678 1667.04 281.071 Q1664.78 280.434 1662.47 280.434 Q1657.29 280.434 1654.42 283.733 Q1651.56 287.002 1651.56 292.934 Q1651.56 298.866 1654.42 302.164 Q1657.29 305.434 1662.47 305.434 Q1664.78 305.434 1667.04 304.826 Q1669.32 304.19 1671.58 302.945 L1671.58 307.864 Q1669.35 308.906 1666.95 309.427 Q1664.58 309.948 1661.89 309.948 Q1654.57 309.948 1650.26 305.347 Q1645.94 300.746 1645.94 292.934 Q1645.94 285.006 1650.28 280.463 Q1654.65 275.92 1662.23 275.92 Q1664.69 275.92 1667.04 276.441 Q1669.38 276.933 1671.58 277.946 Z" fill="#000000" fill-rule="nonzero" fill-opacity="1"></path><path clip-path="url(#clip140)" d="M1699.62 281.678 Q1698.72 281.157 1697.65 280.926 Q1696.61 280.665 1695.34 280.665 Q1690.82 280.665 1688.39 283.617 Q1685.99 286.539 1685.99 292.037 L1685.99 309.109 L1680.64 309.109 L1680.64 276.701 L1685.99 276.701 L1685.99 281.736 Q1687.67 278.785 1690.36 277.367 Q1693.05 275.92 1696.9 275.92 Q1697.45 275.92 1698.11 276.007 Q1698.78 276.065 1699.59 276.209 L1699.62 281.678 Z" fill="#000000" fill-rule="nonzero" fill-opacity="1"></path><path clip-path="url(#clip140)" d="M1716.46 280.434 Q1712.18 280.434 1709.69 283.79 Q1707.2 287.118 1707.2 292.934 Q1707.2 298.75 1709.66 302.106 Q1712.15 305.434 1716.46 305.434 Q1720.71 305.434 1723.2 302.077 Q1725.69 298.721 1725.69 292.934 Q1725.69 287.176 1723.2 283.819 Q1720.71 280.434 1716.46 280.434 M1716.46 275.92 Q1723.4 275.92 1727.37 280.434 Q1731.33 284.948 1731.33 292.934 Q1731.33 300.891 1727.37 305.434 Q1723.4 309.948 1716.46 309.948 Q1709.49 309.948 1705.52 305.434 Q1701.59 300.891 1701.59 292.934 Q1701.59 284.948 1705.52 280.434 Q1709.49 275.92 1716.46 275.92 Z" fill="#000000" fill-rule="nonzero" fill-opacity="1"></path><path clip-path="url(#clip140)" d="M1745.42 267.5 L1745.42 276.701 L1756.39 276.701 L1756.39 280.839 L1745.42 280.839 L1745.42 298.432 Q1745.42 302.396 1746.49 303.524 Q1747.59 304.653 1750.92 304.653 L1756.39 304.653 L1756.39 309.109 L1750.92 309.109 Q1744.76 309.109 1742.41 306.823 Q1740.07 304.508 1740.07 298.432 L1740.07 280.839 L1736.16 280.839 L1736.16 276.701 L1740.07 276.701 L1740.07 267.5 L1745.42 267.5 Z" fill="#000000" fill-rule="nonzero" fill-opacity="1"></path><path clip-path="url(#clip140)" d="M1762.84 296.319 L1762.84 276.701 L1768.17 276.701 L1768.17 296.117 Q1768.17 300.717 1769.96 303.032 Q1771.75 305.318 1775.34 305.318 Q1779.65 305.318 1782.14 302.569 Q1784.66 299.82 1784.66 295.075 L1784.66 276.701 L1789.98 276.701 L1789.98 309.109 L1784.66 309.109 L1784.66 304.132 Q1782.72 307.083 1780.14 308.53 Q1777.6 309.948 1774.21 309.948 Q1768.63 309.948 1765.73 306.476 Q1762.84 303.003 1762.84 296.319 M1776.24 275.92 L1776.24 275.92 Z" fill="#000000" fill-rule="nonzero" fill-opacity="1"></path><path clip-path="url(#clip140)" d="M1824.21 292.934 Q1824.21 287.06 1821.78 283.733 Q1819.38 280.376 1815.16 280.376 Q1810.93 280.376 1808.5 283.733 Q1806.1 287.06 1806.1 292.934 Q1806.1 298.808 1808.5 302.164 Q1810.93 305.492 1815.16 305.492 Q1819.38 305.492 1821.78 302.164 Q1824.21 298.808 1824.21 292.934 M1806.1 281.62 Q1807.78 278.727 1810.32 277.338 Q1812.9 275.92 1816.46 275.92 Q1822.36 275.92 1826.04 280.608 Q1829.74 285.295 1829.74 292.934 Q1829.74 300.573 1826.04 305.26 Q1822.36 309.948 1816.46 309.948 Q1812.9 309.948 1810.32 308.559 Q1807.78 307.141 1806.1 304.248 L1806.1 309.109 L1800.75 309.109 L1800.75 264.086 L1806.1 264.086 L1806.1 281.62 Z" fill="#000000" fill-rule="nonzero" fill-opacity="1"></path><path clip-path="url(#clip140)" d="M1838.01 296.319 L1838.01 276.701 L1843.34 276.701 L1843.34 296.117 Q1843.34 300.717 1845.13 303.032 Q1846.93 305.318 1850.51 305.318 Q1854.83 305.318 1857.31 302.569 Q1859.83 299.82 1859.83 295.075 L1859.83 276.701 L1865.16 276.701 L1865.16 309.109 L1859.83 309.109 L1859.83 304.132 Q1857.89 307.083 1855.32 308.53 Q1852.77 309.948 1849.39 309.948 Q1843.8 309.948 1840.91 306.476 Q1838.01 303.003 1838.01 296.319 M1851.41 275.92 L1851.41 275.92 Z" fill="#000000" fill-rule="nonzero" fill-opacity="1"></path><path clip-path="url(#clip140)" d="M1876.12 264.086 L1881.45 264.086 L1881.45 309.109 L1876.12 309.109 L1876.12 264.086 Z" fill="#000000" fill-rule="nonzero" fill-opacity="1"></path><path clip-path="url(#clip140)" d="M1920.31 291.574 L1920.31 294.178 L1895.83 294.178 Q1896.17 299.676 1899.13 302.569 Q1902.11 305.434 1907.4 305.434 Q1910.47 305.434 1913.33 304.682 Q1916.23 303.929 1919.06 302.425 L1919.06 307.459 Q1916.2 308.675 1913.19 309.311 Q1910.18 309.948 1907.08 309.948 Q1899.33 309.948 1894.79 305.434 Q1890.27 300.92 1890.27 293.223 Q1890.27 285.266 1894.55 280.608 Q1898.86 275.92 1906.16 275.92 Q1912.7 275.92 1916.49 280.145 Q1920.31 284.34 1920.31 291.574 M1914.98 290.011 Q1914.92 285.642 1912.52 283.038 Q1910.15 280.434 1906.21 280.434 Q1901.76 280.434 1899.07 282.951 Q1896.41 285.469 1896 290.04 L1914.98 290.011 Z" fill="#000000" fill-rule="nonzero" fill-opacity="1"></path><path clip-path="url(#clip140)" d="M1953.67 304.19 L1974.07 304.19 L1974.07 309.109 L1946.64 309.109 L1946.64 304.19 Q1949.96 300.746 1955.69 294.959 Q1961.45 289.143 1962.93 287.465 Q1965.73 284.311 1966.83 282.141 Q1967.96 279.942 1967.96 277.83 Q1967.96 274.387 1965.53 272.216 Q1963.13 270.046 1959.25 270.046 Q1956.5 270.046 1953.44 271.001 Q1950.4 271.956 1946.93 273.895 L1946.93 267.992 Q1950.46 266.574 1953.52 265.851 Q1956.59 265.127 1959.14 265.127 Q1965.85 265.127 1969.84 268.484 Q1973.84 271.84 1973.84 277.454 Q1973.84 280.116 1972.82 282.517 Q1971.84 284.89 1969.21 288.131 Q1968.48 288.97 1964.61 292.992 Q1960.73 296.985 1953.67 304.19 Z" fill="#000000" fill-rule="nonzero" fill-opacity="1"></path></svg>