<svg xmlns="http://www.w3.org/2000/svg" xmlns:xlink="http://www.w3.org/1999/xlink" width="600" height="400" viewBox="0 0 2400 1600">
<defs>
  <clipPath id="clip980">
    <rect x="0" y="0" width="2400" height="1600"></rect>
  </clipPath>
</defs>
<path clip-path="url(#clip980)" d="M0 1600 L2400 1600 L2400 0 L0 0  Z" fill="#ffffff" fill-rule="evenodd" fill-opacity="1"></path>
<defs>
  <clipPath id="clip981">
    <rect x="480" y="0" width="1681" height="1600"></rect>
  </clipPath>
</defs>
<path clip-path="url(#clip980)" d="M249.542 1423.18 L2352.76 1423.18 L2352.76 47.2441 L249.542 47.2441  Z" fill="#ffffff" fill-rule="evenodd" fill-opacity="1"></path>
<defs>
  <clipPath id="clip982">
    <rect x="249" y="47" width="2104" height="1377"></rect>
  </clipPath>
</defs>
<polyline clip-path="url(#clip982)" style="stroke:#000000; stroke-linecap:round; stroke-linejoin:round; stroke-width:2; stroke-opacity:0.1; fill:none" points="309.067,1423.18 309.067,47.2441 "></polyline>
<polyline clip-path="url(#clip982)" style="stroke:#000000; stroke-linecap:round; stroke-linejoin:round; stroke-width:2; stroke-opacity:0.1; fill:none" points="805.108,1423.18 805.108,47.2441 "></polyline>
<polyline clip-path="url(#clip982)" style="stroke:#000000; stroke-linecap:round; stroke-linejoin:round; stroke-width:2; stroke-opacity:0.1; fill:none" points="1301.15,1423.18 1301.15,47.2441 "></polyline>
<polyline clip-path="url(#clip982)" style="stroke:#000000; stroke-linecap:round; stroke-linejoin:round; stroke-width:2; stroke-opacity:0.1; fill:none" points="1797.19,1423.18 1797.19,47.2441 "></polyline>
<polyline clip-path="url(#clip982)" style="stroke:#000000; stroke-linecap:round; stroke-linejoin:round; stroke-width:2; stroke-opacity:0.1; fill:none" points="2293.23,1423.18 2293.23,47.2441 "></polyline>
<polyline clip-path="url(#clip980)" style="stroke:#000000; stroke-linecap:round; stroke-linejoin:round; stroke-width:4; stroke-opacity:1; fill:none" points="249.542,1423.18 2352.76,1423.18 "></polyline>
<polyline clip-path="url(#clip980)" style="stroke:#000000; stroke-linecap:round; stroke-linejoin:round; stroke-width:4; stroke-opacity:1; fill:none" points="309.067,1423.18 309.067,1404.28 "></polyline>
<polyline clip-path="url(#clip980)" style="stroke:#000000; stroke-linecap:round; stroke-linejoin:round; stroke-width:4; stroke-opacity:1; fill:none" points="805.108,1423.18 805.108,1404.28 "></polyline>
<polyline clip-path="url(#clip980)" style="stroke:#000000; stroke-linecap:round; stroke-linejoin:round; stroke-width:4; stroke-opacity:1; fill:none" points="1301.15,1423.18 1301.15,1404.28 "></polyline>
<polyline clip-path="url(#clip980)" style="stroke:#000000; stroke-linecap:round; stroke-linejoin:round; stroke-width:4; stroke-opacity:1; fill:none" points="1797.19,1423.18 1797.19,1404.28 "></polyline>
<polyline clip-path="url(#clip980)" style="stroke:#000000; stroke-linecap:round; stroke-linejoin:round; stroke-width:4; stroke-opacity:1; fill:none" points="2293.23,1423.18 2293.23,1404.28 "></polyline>
<path clip-path="url(#clip980)" d="M277.968 1468.75 L307.643 1468.75 L307.643 1472.69 L277.968 1472.69 L277.968 1468.75 Z" fill="#000000" fill-rule="nonzero" fill-opacity="1"></path><path clip-path="url(#clip980)" d="M330.583 1455.09 L318.778 1473.54 L330.583 1473.54 L330.583 1455.09 M329.356 1451.02 L335.236 1451.02 L335.236 1473.54 L340.166 1473.54 L340.166 1477.43 L335.236 1477.43 L335.236 1485.58 L330.583 1485.58 L330.583 1477.43 L314.981 1477.43 L314.981 1472.92 L329.356 1451.02 Z" fill="#000000" fill-rule="nonzero" fill-opacity="1"></path><path clip-path="url(#clip980)" d="M775.05 1468.75 L804.726 1468.75 L804.726 1472.69 L775.05 1472.69 L775.05 1468.75 Z" fill="#000000" fill-rule="nonzero" fill-opacity="1"></path><path clip-path="url(#clip980)" d="M818.846 1481.64 L835.166 1481.64 L835.166 1485.58 L813.221 1485.58 L813.221 1481.64 Q815.883 1478.89 820.467 1474.26 Q825.073 1469.61 826.254 1468.27 Q828.499 1465.74 829.379 1464.01 Q830.281 1462.25 830.281 1460.56 Q830.281 1457.8 828.337 1456.07 Q826.416 1454.33 823.314 1454.33 Q821.115 1454.33 818.661 1455.09 Q816.231 1455.86 813.453 1457.41 L813.453 1452.69 Q816.277 1451.55 818.731 1450.97 Q821.184 1450.39 823.221 1450.39 Q828.592 1450.39 831.786 1453.08 Q834.98 1455.77 834.98 1460.26 Q834.98 1462.39 834.17 1464.31 Q833.383 1466.2 831.277 1468.8 Q830.698 1469.47 827.596 1472.69 Q824.494 1475.88 818.846 1481.64 Z" fill="#000000" fill-rule="nonzero" fill-opacity="1"></path><path clip-path="url(#clip980)" d="M1301.15 1454.1 Q1297.54 1454.1 1295.71 1457.66 Q1293.9 1461.2 1293.9 1468.33 Q1293.9 1475.44 1295.71 1479.01 Q1297.54 1482.55 1301.15 1482.55 Q1304.78 1482.55 1306.59 1479.01 Q1308.42 1475.44 1308.42 1468.33 Q1308.42 1461.2 1306.59 1457.66 Q1304.78 1454.1 1301.15 1454.1 M1301.15 1450.39 Q1306.96 1450.39 1310.01 1455 Q1313.09 1459.58 1313.09 1468.33 Q1313.09 1477.06 1310.01 1481.67 Q1306.96 1486.25 1301.15 1486.25 Q1295.34 1486.25 1292.26 1481.67 Q1289.2 1477.06 1289.2 1468.33 Q1289.2 1459.58 1292.26 1455 Q1295.34 1450.39 1301.15 1450.39 Z" fill="#000000" fill-rule="nonzero" fill-opacity="1"></path><path clip-path="url(#clip980)" d="M1791.84 1481.64 L1808.16 1481.64 L1808.16 1485.58 L1786.22 1485.58 L1786.22 1481.64 Q1788.88 1478.89 1793.46 1474.26 Q1798.07 1469.61 1799.25 1468.27 Q1801.5 1465.74 1802.38 1464.01 Q1803.28 1462.25 1803.28 1460.56 Q1803.28 1457.8 1801.33 1456.07 Q1799.41 1454.33 1796.31 1454.33 Q1794.11 1454.33 1791.66 1455.09 Q1789.23 1455.86 1786.45 1457.41 L1786.45 1452.69 Q1789.27 1451.55 1791.73 1450.97 Q1794.18 1450.39 1796.22 1450.39 Q1801.59 1450.39 1804.78 1453.08 Q1807.98 1455.77 1807.98 1460.26 Q1807.98 1462.39 1807.17 1464.31 Q1806.38 1466.2 1804.27 1468.8 Q1803.69 1469.47 1800.59 1472.69 Q1797.49 1475.88 1791.84 1481.64 Z" fill="#000000" fill-rule="nonzero" fill-opacity="1"></path><path clip-path="url(#clip980)" d="M2296.24 1455.09 L2284.43 1473.54 L2296.24 1473.54 L2296.24 1455.09 M2295.01 1451.02 L2300.89 1451.02 L2300.89 1473.54 L2305.82 1473.54 L2305.82 1477.43 L2300.89 1477.43 L2300.89 1485.58 L2296.24 1485.58 L2296.24 1477.43 L2280.64 1477.43 L2280.64 1472.92 L2295.01 1451.02 Z" fill="#000000" fill-rule="nonzero" fill-opacity="1"></path><path clip-path="url(#clip980)" d="M1177.65 1518.52 L1183.51 1518.52 L1183.51 1568.04 L1177.65 1568.04 L1177.65 1518.52 Z" fill="#000000" fill-rule="nonzero" fill-opacity="1"></path><path clip-path="url(#clip980)" d="M1209.58 1536.5 Q1204.87 1536.5 1202.13 1540.19 Q1199.39 1543.85 1199.39 1550.25 Q1199.39 1556.65 1202.1 1560.34 Q1204.84 1564 1209.58 1564 Q1214.26 1564 1216.99 1560.31 Q1219.73 1556.62 1219.73 1550.25 Q1219.73 1543.92 1216.99 1540.23 Q1214.26 1536.5 1209.58 1536.5 M1209.58 1531.54 Q1217.22 1531.54 1221.58 1536.5 Q1225.94 1541.47 1225.94 1550.25 Q1225.94 1559 1221.58 1564 Q1217.22 1568.97 1209.58 1568.97 Q1201.91 1568.97 1197.55 1564 Q1193.22 1559 1193.22 1550.25 Q1193.22 1541.47 1197.55 1536.5 Q1201.91 1531.54 1209.58 1531.54 Z" fill="#000000" fill-rule="nonzero" fill-opacity="1"></path><path clip-path="url(#clip980)" d="M1259.1 1549.81 Q1259.1 1543.44 1256.46 1539.94 Q1253.85 1536.44 1249.11 1536.44 Q1244.4 1536.44 1241.76 1539.94 Q1239.15 1543.44 1239.15 1549.81 Q1239.15 1556.14 1241.76 1559.64 Q1244.4 1563.14 1249.11 1563.14 Q1253.85 1563.14 1256.46 1559.64 Q1259.1 1556.14 1259.1 1549.81 M1264.96 1563.62 Q1264.96 1572.72 1260.92 1577.15 Q1256.88 1581.6 1248.54 1581.6 Q1245.45 1581.6 1242.71 1581.13 Q1239.97 1580.68 1237.4 1579.72 L1237.4 1574.03 Q1239.97 1575.43 1242.49 1576.1 Q1245 1576.76 1247.61 1576.76 Q1253.37 1576.76 1256.24 1573.74 Q1259.1 1570.75 1259.1 1564.67 L1259.1 1561.77 Q1257.29 1564.92 1254.46 1566.48 Q1251.62 1568.04 1247.68 1568.04 Q1241.12 1568.04 1237.11 1563.05 Q1233.1 1558.05 1233.1 1549.81 Q1233.1 1541.53 1237.11 1536.53 Q1241.12 1531.54 1247.68 1531.54 Q1251.62 1531.54 1254.46 1533.1 Q1257.29 1534.66 1259.1 1537.81 L1259.1 1532.4 L1264.96 1532.4 L1264.96 1563.62 Z" fill="#000000" fill-rule="nonzero" fill-opacity="1"></path><path clip-path="url(#clip980)" d="M1278.96 1562.63 L1289.47 1562.63 L1289.47 1526.38 L1278.04 1528.67 L1278.04 1522.82 L1289.4 1520.52 L1295.83 1520.52 L1295.83 1562.63 L1306.34 1562.63 L1306.34 1568.04 L1278.96 1568.04 L1278.96 1562.63 Z" fill="#000000" fill-rule="nonzero" fill-opacity="1"></path><path clip-path="url(#clip980)" d="M1333.07 1524.76 Q1328.11 1524.76 1325.59 1529.66 Q1323.11 1534.53 1323.11 1544.33 Q1323.11 1554.1 1325.59 1559 Q1328.11 1563.87 1333.07 1563.87 Q1338.07 1563.87 1340.55 1559 Q1343.07 1554.1 1343.07 1544.33 Q1343.07 1534.53 1340.55 1529.66 Q1338.07 1524.76 1333.07 1524.76 M1333.07 1519.66 Q1341.06 1519.66 1345.26 1526 Q1349.5 1532.3 1349.5 1544.33 Q1349.5 1556.33 1345.26 1562.66 Q1341.06 1568.97 1333.07 1568.97 Q1325.08 1568.97 1320.85 1562.66 Q1316.65 1556.33 1316.65 1544.33 Q1316.65 1532.3 1320.85 1526 Q1325.08 1519.66 1333.07 1519.66 Z" fill="#000000" fill-rule="nonzero" fill-opacity="1"></path><path clip-path="url(#clip980)" d="M1374.04 1518.58 Q1369.77 1525.9 1367.7 1533.06 Q1365.63 1540.23 1365.63 1547.58 Q1365.63 1554.93 1367.7 1562.16 Q1369.8 1569.35 1374.04 1576.64 L1368.94 1576.64 Q1364.17 1569.16 1361.78 1561.93 Q1359.43 1554.71 1359.43 1547.58 Q1359.43 1540.48 1361.78 1533.29 Q1364.14 1526.09 1368.94 1518.58 L1374.04 1518.58 Z" fill="#000000" fill-rule="nonzero" fill-opacity="1"></path><path clip-path="url(#clip980)" d="M1391.19 1522.27 L1391.19 1532.4 L1403.25 1532.4 L1403.25 1536.95 L1391.19 1536.95 L1391.19 1556.3 Q1391.19 1560.66 1392.37 1561.9 Q1393.58 1563.14 1397.24 1563.14 L1403.25 1563.14 L1403.25 1568.04 L1397.24 1568.04 Q1390.46 1568.04 1387.88 1565.53 Q1385.3 1562.98 1385.3 1556.3 L1385.3 1536.95 L1381.01 1536.95 L1381.01 1532.4 L1385.3 1532.4 L1385.3 1522.27 L1391.19 1522.27 Z" fill="#000000" fill-rule="nonzero" fill-opacity="1"></path><path clip-path="url(#clip980)" d="M1410.03 1518.58 L1415.13 1518.58 Q1419.9 1526.09 1422.26 1533.29 Q1424.64 1540.48 1424.64 1547.58 Q1424.64 1554.71 1422.26 1561.93 Q1419.9 1569.16 1415.13 1576.64 L1410.03 1576.64 Q1414.27 1569.35 1416.34 1562.16 Q1418.44 1554.93 1418.44 1547.58 Q1418.44 1540.23 1416.34 1533.06 Q1414.27 1525.9 1410.03 1518.58 Z" fill="#000000" fill-rule="nonzero" fill-opacity="1"></path><polyline clip-path="url(#clip982)" style="stroke:#000000; stroke-linecap:round; stroke-linejoin:round; stroke-width:2; stroke-opacity:0.1; fill:none" points="249.542,1384.24 2352.76,1384.24 "></polyline>
<polyline clip-path="url(#clip982)" style="stroke:#000000; stroke-linecap:round; stroke-linejoin:round; stroke-width:2; stroke-opacity:0.1; fill:none" points="249.542,1059.73 2352.76,1059.73 "></polyline>
<polyline clip-path="url(#clip982)" style="stroke:#000000; stroke-linecap:round; stroke-linejoin:round; stroke-width:2; stroke-opacity:0.1; fill:none" points="249.542,735.212 2352.76,735.212 "></polyline>
<polyline clip-path="url(#clip982)" style="stroke:#000000; stroke-linecap:round; stroke-linejoin:round; stroke-width:2; stroke-opacity:0.1; fill:none" points="249.542,410.699 2352.76,410.699 "></polyline>
<polyline clip-path="url(#clip982)" style="stroke:#000000; stroke-linecap:round; stroke-linejoin:round; stroke-width:2; stroke-opacity:0.1; fill:none" points="249.542,86.1857 2352.76,86.1857 "></polyline>
<polyline clip-path="url(#clip980)" style="stroke:#000000; stroke-linecap:round; stroke-linejoin:round; stroke-width:4; stroke-opacity:1; fill:none" points="249.542,1423.18 249.542,47.2441 "></polyline>
<polyline clip-path="url(#clip980)" style="stroke:#000000; stroke-linecap:round; stroke-linejoin:round; stroke-width:4; stroke-opacity:1; fill:none" points="249.542,1384.24 268.44,1384.24 "></polyline>
<polyline clip-path="url(#clip980)" style="stroke:#000000; stroke-linecap:round; stroke-linejoin:round; stroke-width:4; stroke-opacity:1; fill:none" points="249.542,1059.73 268.44,1059.73 "></polyline>
<polyline clip-path="url(#clip980)" style="stroke:#000000; stroke-linecap:round; stroke-linejoin:round; stroke-width:4; stroke-opacity:1; fill:none" points="249.542,735.212 268.44,735.212 "></polyline>
<polyline clip-path="url(#clip980)" style="stroke:#000000; stroke-linecap:round; stroke-linejoin:round; stroke-width:4; stroke-opacity:1; fill:none" points="249.542,410.699 268.44,410.699 "></polyline>
<polyline clip-path="url(#clip980)" style="stroke:#000000; stroke-linecap:round; stroke-linejoin:round; stroke-width:4; stroke-opacity:1; fill:none" points="249.542,86.1857 268.44,86.1857 "></polyline>
<path clip-path="url(#clip980)" d="M126.205 1370.04 Q122.593 1370.04 120.765 1373.6 Q118.959 1377.14 118.959 1384.27 Q118.959 1391.38 120.765 1394.94 Q122.593 1398.49 126.205 1398.49 Q129.839 1398.49 131.644 1394.94 Q133.473 1391.38 133.473 1384.27 Q133.473 1377.14 131.644 1373.6 Q129.839 1370.04 126.205 1370.04 M126.205 1366.33 Q132.015 1366.33 135.07 1370.94 Q138.149 1375.52 138.149 1384.27 Q138.149 1393 135.07 1397.61 Q132.015 1402.19 126.205 1402.19 Q120.394 1402.19 117.316 1397.61 Q114.26 1393 114.26 1384.27 Q114.26 1375.52 117.316 1370.94 Q120.394 1366.33 126.205 1366.33 Z" fill="#000000" fill-rule="nonzero" fill-opacity="1"></path><path clip-path="url(#clip980)" d="M146.366 1395.64 L151.251 1395.64 L151.251 1401.52 L146.366 1401.52 L146.366 1395.64 Z" fill="#000000" fill-rule="nonzero" fill-opacity="1"></path><path clip-path="url(#clip980)" d="M171.436 1370.04 Q167.825 1370.04 165.996 1373.6 Q164.19 1377.14 164.19 1384.27 Q164.19 1391.38 165.996 1394.94 Q167.825 1398.49 171.436 1398.49 Q175.07 1398.49 176.876 1394.94 Q178.704 1391.38 178.704 1384.27 Q178.704 1377.14 176.876 1373.6 Q175.07 1370.04 171.436 1370.04 M171.436 1366.33 Q177.246 1366.33 180.301 1370.94 Q183.38 1375.52 183.38 1384.27 Q183.38 1393 180.301 1397.61 Q177.246 1402.19 171.436 1402.19 Q165.626 1402.19 162.547 1397.61 Q159.491 1393 159.491 1384.27 Q159.491 1375.52 162.547 1370.94 Q165.626 1366.33 171.436 1366.33 Z" fill="#000000" fill-rule="nonzero" fill-opacity="1"></path><path clip-path="url(#clip980)" d="M201.598 1370.04 Q197.987 1370.04 196.158 1373.6 Q194.352 1377.14 194.352 1384.27 Q194.352 1391.38 196.158 1394.94 Q197.987 1398.49 201.598 1398.49 Q205.232 1398.49 207.037 1394.94 Q208.866 1391.38 208.866 1384.27 Q208.866 1377.14 207.037 1373.6 Q205.232 1370.04 201.598 1370.04 M201.598 1366.33 Q207.408 1366.33 210.463 1370.94 Q213.542 1375.52 213.542 1384.27 Q213.542 1393 210.463 1397.61 Q207.408 1402.19 201.598 1402.19 Q195.787 1402.19 192.709 1397.61 Q189.653 1393 189.653 1384.27 Q189.653 1375.52 192.709 1370.94 Q195.787 1366.33 201.598 1366.33 Z" fill="#000000" fill-rule="nonzero" fill-opacity="1"></path><path clip-path="url(#clip980)" d="M127.2 1045.52 Q123.589 1045.52 121.76 1049.09 Q119.955 1052.63 119.955 1059.76 Q119.955 1066.87 121.76 1070.43 Q123.589 1073.97 127.2 1073.97 Q130.834 1073.97 132.64 1070.43 Q134.468 1066.87 134.468 1059.76 Q134.468 1052.63 132.64 1049.09 Q130.834 1045.52 127.2 1045.52 M127.2 1041.82 Q133.01 1041.82 136.066 1046.43 Q139.144 1051.01 139.144 1059.76 Q139.144 1068.49 136.066 1073.09 Q133.01 1077.68 127.2 1077.68 Q121.39 1077.68 118.311 1073.09 Q115.256 1068.49 115.256 1059.76 Q115.256 1051.01 118.311 1046.43 Q121.39 1041.82 127.2 1041.82 Z" fill="#000000" fill-rule="nonzero" fill-opacity="1"></path><path clip-path="url(#clip980)" d="M147.362 1071.13 L152.246 1071.13 L152.246 1077.01 L147.362 1077.01 L147.362 1071.13 Z" fill="#000000" fill-rule="nonzero" fill-opacity="1"></path><path clip-path="url(#clip980)" d="M166.459 1073.07 L182.778 1073.07 L182.778 1077.01 L160.834 1077.01 L160.834 1073.07 Q163.496 1070.32 168.079 1065.69 Q172.686 1061.03 173.866 1059.69 Q176.112 1057.17 176.991 1055.43 Q177.894 1053.67 177.894 1051.98 Q177.894 1049.23 175.95 1047.49 Q174.028 1045.76 170.927 1045.76 Q168.727 1045.76 166.274 1046.52 Q163.843 1047.28 161.065 1048.83 L161.065 1044.11 Q163.89 1042.98 166.343 1042.4 Q168.797 1041.82 170.834 1041.82 Q176.204 1041.82 179.399 1044.51 Q182.593 1047.19 182.593 1051.68 Q182.593 1053.81 181.783 1055.73 Q180.996 1057.63 178.889 1060.22 Q178.311 1060.89 175.209 1064.11 Q172.107 1067.31 166.459 1073.07 Z" fill="#000000" fill-rule="nonzero" fill-opacity="1"></path><path clip-path="url(#clip980)" d="M192.639 1042.45 L210.996 1042.45 L210.996 1046.38 L196.922 1046.38 L196.922 1054.85 Q197.94 1054.51 198.959 1054.34 Q199.977 1054.16 200.996 1054.16 Q206.783 1054.16 210.162 1057.33 Q213.542 1060.5 213.542 1065.92 Q213.542 1071.5 210.07 1074.6 Q206.598 1077.68 200.278 1077.68 Q198.102 1077.68 195.834 1077.31 Q193.588 1076.94 191.181 1076.19 L191.181 1071.5 Q193.264 1072.63 195.487 1073.19 Q197.709 1073.74 200.186 1073.74 Q204.19 1073.74 206.528 1071.63 Q208.866 1069.53 208.866 1065.92 Q208.866 1062.31 206.528 1060.2 Q204.19 1058.09 200.186 1058.09 Q198.311 1058.09 196.436 1058.51 Q194.584 1058.93 192.639 1059.81 L192.639 1042.45 Z" fill="#000000" fill-rule="nonzero" fill-opacity="1"></path><path clip-path="url(#clip980)" d="M126.205 721.011 Q122.593 721.011 120.765 724.575 Q118.959 728.117 118.959 735.247 Q118.959 742.353 120.765 745.918 Q122.593 749.46 126.205 749.46 Q129.839 749.46 131.644 745.918 Q133.473 742.353 133.473 735.247 Q133.473 728.117 131.644 724.575 Q129.839 721.011 126.205 721.011 M126.205 717.307 Q132.015 717.307 135.07 721.913 Q138.149 726.497 138.149 735.247 Q138.149 743.973 135.07 748.58 Q132.015 753.163 126.205 753.163 Q120.394 753.163 117.316 748.58 Q114.26 743.973 114.26 735.247 Q114.26 726.497 117.316 721.913 Q120.394 717.307 126.205 717.307 Z" fill="#000000" fill-rule="nonzero" fill-opacity="1"></path><path clip-path="url(#clip980)" d="M146.366 746.612 L151.251 746.612 L151.251 752.492 L146.366 752.492 L146.366 746.612 Z" fill="#000000" fill-rule="nonzero" fill-opacity="1"></path><path clip-path="url(#clip980)" d="M161.482 717.932 L179.839 717.932 L179.839 721.867 L165.765 721.867 L165.765 730.339 Q166.783 729.992 167.802 729.83 Q168.82 729.645 169.839 729.645 Q175.626 729.645 179.005 732.816 Q182.385 735.987 182.385 741.404 Q182.385 746.983 178.913 750.085 Q175.44 753.163 169.121 753.163 Q166.945 753.163 164.677 752.793 Q162.431 752.423 160.024 751.682 L160.024 746.983 Q162.107 748.117 164.329 748.673 Q166.552 749.228 169.028 749.228 Q173.033 749.228 175.371 747.122 Q177.709 745.015 177.709 741.404 Q177.709 737.793 175.371 735.687 Q173.033 733.58 169.028 733.58 Q167.153 733.58 165.278 733.997 Q163.427 734.413 161.482 735.293 L161.482 717.932 Z" fill="#000000" fill-rule="nonzero" fill-opacity="1"></path><path clip-path="url(#clip980)" d="M201.598 721.011 Q197.987 721.011 196.158 724.575 Q194.352 728.117 194.352 735.247 Q194.352 742.353 196.158 745.918 Q197.987 749.46 201.598 749.46 Q205.232 749.46 207.037 745.918 Q208.866 742.353 208.866 735.247 Q208.866 728.117 207.037 724.575 Q205.232 721.011 201.598 721.011 M201.598 717.307 Q207.408 717.307 210.463 721.913 Q213.542 726.497 213.542 735.247 Q213.542 743.973 210.463 748.58 Q207.408 753.163 201.598 753.163 Q195.787 753.163 192.709 748.58 Q189.653 743.973 189.653 735.247 Q189.653 726.497 192.709 721.913 Q195.787 717.307 201.598 717.307 Z" fill="#000000" fill-rule="nonzero" fill-opacity="1"></path><path clip-path="url(#clip980)" d="M127.2 396.498 Q123.589 396.498 121.76 400.062 Q119.955 403.604 119.955 410.734 Q119.955 417.84 121.76 421.405 Q123.589 424.946 127.2 424.946 Q130.834 424.946 132.64 421.405 Q134.468 417.84 134.468 410.734 Q134.468 403.604 132.64 400.062 Q130.834 396.498 127.2 396.498 M127.2 392.794 Q133.01 392.794 136.066 397.4 Q139.144 401.984 139.144 410.734 Q139.144 419.46 136.066 424.067 Q133.01 428.65 127.2 428.65 Q121.39 428.65 118.311 424.067 Q115.256 419.46 115.256 410.734 Q115.256 401.984 118.311 397.4 Q121.39 392.794 127.2 392.794 Z" fill="#000000" fill-rule="nonzero" fill-opacity="1"></path><path clip-path="url(#clip980)" d="M147.362 422.099 L152.246 422.099 L152.246 427.979 L147.362 427.979 L147.362 422.099 Z" fill="#000000" fill-rule="nonzero" fill-opacity="1"></path><path clip-path="url(#clip980)" d="M161.251 393.419 L183.473 393.419 L183.473 395.41 L170.927 427.979 L166.042 427.979 L177.848 397.354 L161.251 397.354 L161.251 393.419 Z" fill="#000000" fill-rule="nonzero" fill-opacity="1"></path><path clip-path="url(#clip980)" d="M192.639 393.419 L210.996 393.419 L210.996 397.354 L196.922 397.354 L196.922 405.826 Q197.94 405.479 198.959 405.317 Q199.977 405.132 200.996 405.132 Q206.783 405.132 210.162 408.303 Q213.542 411.474 213.542 416.891 Q213.542 422.47 210.07 425.571 Q206.598 428.65 200.278 428.65 Q198.102 428.65 195.834 428.28 Q193.588 427.909 191.181 427.169 L191.181 422.47 Q193.264 423.604 195.487 424.159 Q197.709 424.715 200.186 424.715 Q204.19 424.715 206.528 422.608 Q208.866 420.502 208.866 416.891 Q208.866 413.28 206.528 411.173 Q204.19 409.067 200.186 409.067 Q198.311 409.067 196.436 409.484 Q194.584 409.9 192.639 410.78 L192.639 393.419 Z" fill="#000000" fill-rule="nonzero" fill-opacity="1"></path><path clip-path="url(#clip980)" d="M117.015 99.5305 L124.654 99.5305 L124.654 73.1649 L116.343 74.8316 L116.343 70.5723 L124.607 68.9057 L129.283 68.9057 L129.283 99.5305 L136.922 99.5305 L136.922 103.466 L117.015 103.466 L117.015 99.5305 Z" fill="#000000" fill-rule="nonzero" fill-opacity="1"></path><path clip-path="url(#clip980)" d="M146.366 97.5861 L151.251 97.5861 L151.251 103.466 L146.366 103.466 L146.366 97.5861 Z" fill="#000000" fill-rule="nonzero" fill-opacity="1"></path><path clip-path="url(#clip980)" d="M171.436 71.9844 Q167.825 71.9844 165.996 75.5492 Q164.19 79.0908 164.19 86.2204 Q164.19 93.3268 165.996 96.8916 Q167.825 100.433 171.436 100.433 Q175.07 100.433 176.876 96.8916 Q178.704 93.3268 178.704 86.2204 Q178.704 79.0908 176.876 75.5492 Q175.07 71.9844 171.436 71.9844 M171.436 68.2807 Q177.246 68.2807 180.301 72.8871 Q183.38 77.4704 183.38 86.2204 Q183.38 94.9472 180.301 99.5537 Q177.246 104.137 171.436 104.137 Q165.626 104.137 162.547 99.5537 Q159.491 94.9472 159.491 86.2204 Q159.491 77.4704 162.547 72.8871 Q165.626 68.2807 171.436 68.2807 Z" fill="#000000" fill-rule="nonzero" fill-opacity="1"></path><path clip-path="url(#clip980)" d="M201.598 71.9844 Q197.987 71.9844 196.158 75.5492 Q194.352 79.0908 194.352 86.2204 Q194.352 93.3268 196.158 96.8916 Q197.987 100.433 201.598 100.433 Q205.232 100.433 207.037 96.8916 Q208.866 93.3268 208.866 86.2204 Q208.866 79.0908 207.037 75.5492 Q205.232 71.9844 201.598 71.9844 M201.598 68.2807 Q207.408 68.2807 210.463 72.8871 Q213.542 77.4704 213.542 86.2204 Q213.542 94.9472 210.463 99.5537 Q207.408 104.137 201.598 104.137 Q195.787 104.137 192.709 99.5537 Q189.653 94.9472 189.653 86.2204 Q189.653 77.4704 192.709 72.8871 Q195.787 68.2807 201.598 68.2807 Z" fill="#000000" fill-rule="nonzero" fill-opacity="1"></path><path clip-path="url(#clip980)" d="M41.7242 926.454 Q42.4244 924.385 44.7161 922.443 Q47.0077 920.47 51.0181 918.497 L64.0042 911.972 L64.0042 918.879 L51.8138 924.958 Q47.0395 927.313 45.48 929.541 Q43.9204 931.737 43.9204 935.557 L43.9204 942.559 L64.0042 942.559 L64.0042 948.988 L16.4842 948.988 L16.4842 934.475 Q16.4842 926.326 19.8898 922.316 Q23.2955 918.306 30.1704 918.306 Q34.6582 918.306 37.6183 920.406 Q40.5784 922.475 41.7242 926.454 M21.7677 942.559 L38.6368 942.559 L38.6368 934.475 Q38.6368 929.828 36.5043 927.472 Q34.34 925.085 30.1704 925.085 Q26.0009 925.085 23.9002 927.472 Q21.7677 929.828 21.7677 934.475 L21.7677 942.559 Z" fill="#000000" fill-rule="nonzero" fill-opacity="1"></path><path clip-path="url(#clip980)" d="M44.7161 876.387 L47.5806 876.387 L47.5806 903.314 Q53.6281 902.932 56.8109 899.686 Q59.9619 896.408 59.9619 890.583 Q59.9619 887.209 59.1344 884.058 Q58.3069 880.875 56.6518 877.756 L62.1899 877.756 Q63.5267 880.907 64.227 884.217 Q64.9272 887.527 64.9272 890.933 Q64.9272 899.463 59.9619 904.46 Q54.9967 909.425 46.5303 909.425 Q37.7774 909.425 32.6531 904.715 Q27.4968 899.972 27.4968 891.952 Q27.4968 884.758 32.1438 880.589 Q36.7589 876.387 44.7161 876.387 M42.9973 882.244 Q38.1912 882.308 35.3266 884.949 Q32.4621 887.559 32.4621 891.888 Q32.4621 896.79 35.2312 899.75 Q38.0002 902.678 43.0292 903.123 L42.9973 882.244 Z" fill="#000000" fill-rule="nonzero" fill-opacity="1"></path><path clip-path="url(#clip980)" d="M14.479 866.775 L14.479 860.919 L64.0042 860.919 L64.0042 866.775 L14.479 866.775 Z" fill="#000000" fill-rule="nonzero" fill-opacity="1"></path><path clip-path="url(#clip980)" d="M46.0847 832.464 Q46.0847 839.562 47.7079 842.299 Q49.3312 845.036 53.2461 845.036 Q56.3653 845.036 58.2114 842.999 Q60.0256 840.93 60.0256 837.397 Q60.0256 832.528 56.5881 829.599 Q53.1188 826.639 47.3897 826.639 L46.0847 826.639 L46.0847 832.464 M43.6657 820.783 L64.0042 820.783 L64.0042 826.639 L58.5933 826.639 Q61.8398 828.645 63.3994 831.637 Q64.9272 834.628 64.9272 838.957 Q64.9272 844.432 61.8716 847.678 Q58.7843 850.893 53.6281 850.893 Q47.6125 850.893 44.5569 846.882 Q41.5014 842.84 41.5014 834.851 L41.5014 826.639 L40.9285 826.639 Q36.8862 826.639 34.6901 829.313 Q32.4621 831.955 32.4621 836.761 Q32.4621 839.816 33.1941 842.713 Q33.9262 845.609 35.3903 848.283 L29.9795 848.283 Q28.7381 845.068 28.1334 842.044 Q27.4968 839.021 27.4968 836.156 Q27.4968 828.422 31.5072 824.602 Q35.5176 820.783 43.6657 820.783 Z" fill="#000000" fill-rule="nonzero" fill-opacity="1"></path><path clip-path="url(#clip980)" d="M18.2347 802.927 L28.3562 802.927 L28.3562 790.864 L32.9077 790.864 L32.9077 802.927 L52.2594 802.927 Q56.6199 802.927 57.8613 801.75 Q59.1026 800.54 59.1026 796.88 L59.1026 790.864 L64.0042 790.864 L64.0042 796.88 Q64.0042 803.659 61.4897 806.237 Q58.9434 808.815 52.2594 808.815 L32.9077 808.815 L32.9077 813.112 L28.3562 813.112 L28.3562 808.815 L18.2347 808.815 L18.2347 802.927 Z" fill="#000000" fill-rule="nonzero" fill-opacity="1"></path><path clip-path="url(#clip980)" d="M28.3562 783.162 L28.3562 777.305 L64.0042 777.305 L64.0042 783.162 L28.3562 783.162 M14.479 783.162 L14.479 777.305 L21.895 777.305 L21.895 783.162 L14.479 783.162 Z" fill="#000000" fill-rule="nonzero" fill-opacity="1"></path><path clip-path="url(#clip980)" d="M28.3562 769.253 L28.3562 763.046 L58.275 751.906 L28.3562 740.766 L28.3562 734.559 L64.0042 747.927 L64.0042 755.885 L28.3562 769.253 Z" fill="#000000" fill-rule="nonzero" fill-opacity="1"></path><path clip-path="url(#clip980)" d="M44.7161 695.983 L47.5806 695.983 L47.5806 722.91 Q53.6281 722.528 56.8109 719.282 Q59.9619 716.003 59.9619 710.179 Q59.9619 706.805 59.1344 703.654 Q58.3069 700.471 56.6518 697.352 L62.1899 697.352 Q63.5267 700.503 64.227 703.813 Q64.9272 707.123 64.9272 710.529 Q64.9272 719.059 59.9619 724.056 Q54.9967 729.021 46.5303 729.021 Q37.7774 729.021 32.6531 724.311 Q27.4968 719.568 27.4968 711.547 Q27.4968 704.354 32.1438 700.185 Q36.7589 695.983 44.7161 695.983 M42.9973 701.84 Q38.1912 701.903 35.3266 704.545 Q32.4621 707.155 32.4621 711.484 Q32.4621 716.385 35.2312 719.345 Q38.0002 722.274 43.0292 722.719 L42.9973 701.84 Z" fill="#000000" fill-rule="nonzero" fill-opacity="1"></path><path clip-path="url(#clip980)" d="M67.3143 650.819 Q73.68 653.301 75.6216 655.657 Q77.5631 658.012 77.5631 661.959 L77.5631 666.637 L72.6615 666.637 L72.6615 663.2 Q72.6615 660.781 71.5157 659.444 Q70.3699 658.107 66.1048 656.484 L63.4312 655.434 L28.3562 669.852 L28.3562 663.646 L56.238 652.506 L28.3562 641.366 L28.3562 635.159 L67.3143 650.819 Z" fill="#000000" fill-rule="nonzero" fill-opacity="1"></path><path clip-path="url(#clip980)" d="M28.3562 627.075 L28.3562 621.218 L64.0042 621.218 L64.0042 627.075 L28.3562 627.075 M14.479 627.075 L14.479 621.218 L21.895 621.218 L21.895 627.075 L14.479 627.075 Z" fill="#000000" fill-rule="nonzero" fill-opacity="1"></path><path clip-path="url(#clip980)" d="M44.7161 578.472 L47.5806 578.472 L47.5806 605.399 Q53.6281 605.017 56.8109 601.771 Q59.9619 598.493 59.9619 592.668 Q59.9619 589.294 59.1344 586.143 Q58.3069 582.96 56.6518 579.841 L62.1899 579.841 Q63.5267 582.992 64.227 586.302 Q64.9272 589.612 64.9272 593.018 Q64.9272 601.548 59.9619 606.545 Q54.9967 611.51 46.5303 611.51 Q37.7774 611.51 32.6531 606.8 Q27.4968 602.057 27.4968 594.037 Q27.4968 586.843 32.1438 582.674 Q36.7589 578.472 44.7161 578.472 M42.9973 584.329 Q38.1912 584.392 35.3266 587.034 Q32.4621 589.644 32.4621 593.973 Q32.4621 598.874 35.2312 601.835 Q38.0002 604.763 43.0292 605.208 L42.9973 584.329 Z" fill="#000000" fill-rule="nonzero" fill-opacity="1"></path><path clip-path="url(#clip980)" d="M14.479 568.86 L14.479 563.004 L64.0042 563.004 L64.0042 568.86 L14.479 568.86 Z" fill="#000000" fill-rule="nonzero" fill-opacity="1"></path><path clip-path="url(#clip980)" d="M33.7671 527.292 L14.479 527.292 L14.479 521.436 L64.0042 521.436 L64.0042 527.292 L58.657 527.292 Q61.8398 529.138 63.3994 531.971 Q64.9272 534.772 64.9272 538.719 Q64.9272 545.18 59.771 549.254 Q54.6147 553.296 46.212 553.296 Q37.8093 553.296 32.6531 549.254 Q27.4968 545.18 27.4968 538.719 Q27.4968 534.772 29.0564 531.971 Q30.5842 529.138 33.7671 527.292 M46.212 547.249 Q52.6732 547.249 56.3653 544.607 Q60.0256 541.933 60.0256 537.286 Q60.0256 532.639 56.3653 529.966 Q52.6732 527.292 46.212 527.292 Q39.7508 527.292 36.0905 529.966 Q32.3984 532.639 32.3984 537.286 Q32.3984 541.933 36.0905 544.607 Q39.7508 547.249 46.212 547.249 Z" fill="#000000" fill-rule="nonzero" fill-opacity="1"></path><polyline clip-path="url(#clip982)" style="stroke:#009af9; stroke-linecap:round; stroke-linejoin:round; stroke-width:16; stroke-opacity:1; fill:none" points="309.067,86.1857 329.109,91.4759 349.151,97.798 369.193,105.342 389.235,114.326 409.277,125.001 429.319,137.653 449.361,152.6 469.403,170.191 489.446,190.804 509.488,214.831 529.53,242.67 549.572,274.695 569.614,311.236 589.656,352.538 609.698,398.724 629.74,449.75 649.782,505.366 669.824,565.091 689.866,628.197 709.908,693.727 729.95,760.538 749.992,827.37 770.034,892.936 790.076,956.017 810.118,1015.55 830.161,1070.68 850.203,1120.84 870.245,1165.7 890.287,1205.19 910.329,1239.43 930.371,1268.72 950.413,1293.43 970.455,1314.02 990.497,1330.95 1010.54,1344.69 1030.58,1355.65 1050.62,1364.24 1070.67,1370.8 1090.71,1375.66 1110.75,1379.1 1130.79,1381.39 1150.83,1382.81 1170.88,1383.59 1190.92,1383.96 1210.96,1384.12 1231,1384.17 1251.04,1384.18 1271.09,1384.18 1291.13,1384.18 1311.17,1384.18 1331.21,1384.18 1351.25,1384.18 1371.3,1384.18 1391.34,1384.18 1411.38,1384.18 1431.42,1384.18 1451.46,1384.18 1471.51,1384.18 1491.55,1384.18 1511.59,1384.18 1531.63,1384.18 1551.67,1384.18 1571.72,1384.18 1591.76,1384.18 1611.8,1384.18 1631.84,1384.18 1651.89,1384.18 1671.93,1384.18 1691.97,1384.18 1712.01,1384.18 1732.05,1384.18 1752.1,1384.18 1772.14,1384.18 1792.18,1384.18 1812.22,1384.18 1832.26,1384.18 1852.31,1384.18 1872.35,1384.18 1892.39,1384.18 1912.43,1384.18 1932.47,1384.18 1952.52,1384.18 1972.56,1384.19 1992.6,1384.19 2012.64,1384.19 2032.68,1384.19 2052.73,1384.19 2072.77,1384.2 2092.81,1384.21 2112.85,1384.22 2132.89,1384.22 2152.94,1384.23 2172.98,1384.23 2193.02,1384.23 2213.06,1384.23 2233.1,1384.23 2253.15,1384.23 2273.19,1384.23 2293.23,1384.23 "></polyline>
<polyline clip-path="url(#clip982)" style="stroke:#e26f46; stroke-linecap:round; stroke-linejoin:round; stroke-width:16; stroke-opacity:1; fill:none" points="309.067,1384.24 329.109,1381.6 349.151,1378.45 369.193,1374.71 389.235,1370.28 409.277,1365.05 429.319,1358.89 449.361,1351.68 469.403,1343.27 489.446,1333.54 509.488,1322.37 529.53,1309.65 549.572,1295.32 569.614,1279.38 589.656,1261.91 609.698,1243.06 629.74,1223.14 649.782,1202.55 669.824,1181.8 689.866,1161.52 709.908,1142.37 729.95,1125.04 749.992,1110.12 770.034,1098.11 790.076,1089.33 810.118,1083.89 830.161,1081.71 850.203,1082.53 870.245,1085.96 890.287,1091.51 910.329,1098.65 930.371,1106.86 950.413,1115.65 970.455,1124.57 990.497,1133.25 1010.54,1141.38 1030.58,1148.72 1050.62,1155.1 1070.67,1160.43 1090.71,1164.66 1110.75,1167.83 1130.79,1170.05 1150.83,1171.47 1170.88,1172.31 1190.92,1172.76 1210.96,1173.01 1231,1173.18 1251.04,1173.33 1271.09,1173.5 1291.13,1173.7 1311.17,1173.94 1331.21,1174.23 1351.25,1174.58 1371.3,1175.01 1391.34,1175.51 1411.38,1176.12 1431.42,1176.85 1451.46,1177.73 1471.51,1178.78 1491.55,1180.04 1511.59,1181.54 1531.63,1183.34 1551.67,1185.49 1571.72,1188.04 1591.76,1191.08 1611.8,1194.67 1631.84,1198.9 1651.89,1203.88 1671.93,1209.7 1691.97,1216.46 1712.01,1224.26 1732.05,1233.17 1752.1,1243.24 1772.14,1254.49 1792.18,1266.85 1812.22,1280.19 1832.26,1294.25 1852.31,1308.69 1872.35,1323.04 1892.39,1336.75 1912.43,1349.24 1932.47,1360 1952.52,1368.65 1972.56,1375.06 1992.6,1379.37 2012.64,1381.94 2032.68,1383.28 2052.73,1383.88 2072.77,1384.11 2092.81,1384.19 2112.85,1384.22 2132.89,1384.23 2152.94,1384.23 2172.98,1384.23 2193.02,1384.24 2213.06,1384.24 2233.1,1384.24 2253.15,1384.24 2273.19,1384.24 2293.23,1384.24 "></polyline>
<polyline clip-path="url(#clip982)" style="stroke:#3da44d; stroke-linecap:round; stroke-linejoin:round; stroke-width:16; stroke-opacity:1; fill:none" points="309.067,1384.24 329.109,1384.23 349.151,1384.2 369.193,1384.13 389.235,1384.01 409.277,1383.8 429.319,1383.47 449.361,1382.95 469.403,1382.17 489.446,1381.01 509.488,1379.33 529.53,1376.94 549.572,1373.57 569.614,1368.9 589.656,1362.55 609.698,1354.05 629.74,1342.87 649.782,1328.44 669.824,1310.21 689.866,1287.67 709.908,1260.43 729.95,1228.29 749.992,1191.28 770.034,1149.73 790.076,1104.22 810.118,1055.58 830.161,1004.8 850.203,953.003 870.245,901.285 890.287,850.697 910.329,802.164 930.371,756.455 950.413,714.168 970.455,675.739 990.497,641.452 1010.54,611.462 1030.58,585.815 1050.62,564.457 1070.67,547.243 1090.71,533.924 1110.75,524.141 1130.79,517.415 1150.83,513.154 1170.88,510.7 1190.92,509.414 1210.96,508.762 1231,508.38 1251.04,508.063 1271.09,507.721 1291.13,507.317 1311.17,506.832 1331.21,506.249 1351.25,505.548 1371.3,504.705 1391.34,503.692 1411.38,502.475 1431.42,501.014 1451.46,499.261 1471.51,497.159 1491.55,494.641 1511.59,491.629 1531.63,488.032 1551.67,483.74 1571.72,478.631 1591.76,472.563 1611.8,465.38 1631.84,456.906 1651.89,446.95 1671.93,435.312 1691.97,421.792 1712.01,406.201 1732.05,388.381 1752.1,368.23 1772.14,345.735 1792.18,321.011 1812.22,294.341 1832.26,266.211 1852.31,237.333 1872.35,208.639 1892.39,181.224 1912.43,156.239 1932.47,134.723 1952.52,117.416 1972.56,104.588 1992.6,95.9709 2012.64,90.8236 2032.68,88.1457 2052.73,86.951 2072.77,86.4868 2092.81,86.3177 2112.85,86.2532 2132.89,86.2255 2152.94,86.2117 2172.98,86.2041 2193.02,86.1994 2213.06,86.1963 2233.1,86.1941 2253.15,86.1926 2273.19,86.1914 2293.23,86.1905 "></polyline>
<path clip-path="url(#clip980)" d="M319.649 300.469 L749.113 300.469 L749.113 93.1086 L319.649 93.1086  Z" fill="#ffffff" fill-rule="evenodd" fill-opacity="1"></path>
<polyline clip-path="url(#clip980)" style="stroke:#000000; stroke-linecap:round; stroke-linejoin:round; stroke-width:4; stroke-opacity:1; fill:none" points="319.649,300.469 749.113,300.469 749.113,93.1086 319.649,93.1086 319.649,300.469 "></polyline>
<polyline clip-path="url(#clip980)" style="stroke:#009af9; stroke-linecap:round; stroke-linejoin:round; stroke-width:16; stroke-opacity:1; fill:none" points="343.018,144.949 483.232,144.949 "></polyline>
<path clip-path="url(#clip980)" d="M506.602 127.669 L513.569 127.669 L522.388 151.187 L531.254 127.669 L538.222 127.669 L538.222 162.229 L533.662 162.229 L533.662 131.882 L524.75 155.585 L520.051 155.585 L511.139 131.882 L511.139 162.229 L506.602 162.229 L506.602 127.669 Z" fill="#000000" fill-rule="nonzero" fill-opacity="1"></path><path clip-path="url(#clip980)" d="M557.365 139.289 Q553.939 139.289 551.948 141.974 Q549.958 144.636 549.958 149.289 Q549.958 153.942 551.925 156.627 Q553.916 159.289 557.365 159.289 Q560.768 159.289 562.759 156.604 Q564.749 153.918 564.749 149.289 Q564.749 144.682 562.759 141.997 Q560.768 139.289 557.365 139.289 M557.365 135.678 Q562.921 135.678 566.092 139.289 Q569.263 142.9 569.263 149.289 Q569.263 155.655 566.092 159.289 Q562.921 162.9 557.365 162.9 Q551.786 162.9 548.615 159.289 Q545.467 155.655 545.467 149.289 Q545.467 142.9 548.615 139.289 Q551.786 135.678 557.365 135.678 Z" fill="#000000" fill-rule="nonzero" fill-opacity="1"></path><path clip-path="url(#clip980)" d="M597.874 146.581 L597.874 162.229 L593.615 162.229 L593.615 146.719 Q593.615 143.039 592.18 141.21 Q590.745 139.382 587.874 139.382 Q584.425 139.382 582.434 141.581 Q580.444 143.78 580.444 147.576 L580.444 162.229 L576.161 162.229 L576.161 136.303 L580.444 136.303 L580.444 140.331 Q581.971 137.993 584.032 136.835 Q586.115 135.678 588.823 135.678 Q593.291 135.678 595.583 138.456 Q597.874 141.21 597.874 146.581 Z" fill="#000000" fill-rule="nonzero" fill-opacity="1"></path><path clip-path="url(#clip980)" d="M616.416 139.289 Q612.99 139.289 610.999 141.974 Q609.008 144.636 609.008 149.289 Q609.008 153.942 610.976 156.627 Q612.967 159.289 616.416 159.289 Q619.818 159.289 621.809 156.604 Q623.8 153.918 623.8 149.289 Q623.8 144.682 621.809 141.997 Q619.818 139.289 616.416 139.289 M616.416 135.678 Q621.971 135.678 625.143 139.289 Q628.314 142.9 628.314 149.289 Q628.314 155.655 625.143 159.289 Q621.971 162.9 616.416 162.9 Q610.837 162.9 607.666 159.289 Q604.518 155.655 604.518 149.289 Q604.518 142.9 607.666 139.289 Q610.837 135.678 616.416 135.678 Z" fill="#000000" fill-rule="nonzero" fill-opacity="1"></path><path clip-path="url(#clip980)" d="M655.559 141.28 Q657.156 138.409 659.378 137.044 Q661.601 135.678 664.61 135.678 Q668.661 135.678 670.86 138.525 Q673.059 141.349 673.059 146.581 L673.059 162.229 L668.777 162.229 L668.777 146.719 Q668.777 142.993 667.457 141.187 Q666.138 139.382 663.429 139.382 Q660.119 139.382 658.198 141.581 Q656.277 143.78 656.277 147.576 L656.277 162.229 L651.994 162.229 L651.994 146.719 Q651.994 142.969 650.675 141.187 Q649.355 139.382 646.601 139.382 Q643.337 139.382 641.416 141.604 Q639.494 143.803 639.494 147.576 L639.494 162.229 L635.212 162.229 L635.212 136.303 L639.494 136.303 L639.494 140.331 Q640.953 137.946 642.99 136.812 Q645.027 135.678 647.828 135.678 Q650.652 135.678 652.619 137.113 Q654.61 138.548 655.559 141.28 Z" fill="#000000" fill-rule="nonzero" fill-opacity="1"></path><path clip-path="url(#clip980)" d="M703.73 148.201 L703.73 150.284 L684.147 150.284 Q684.425 154.682 686.786 156.997 Q689.17 159.289 693.406 159.289 Q695.86 159.289 698.151 158.687 Q700.466 158.085 702.735 156.881 L702.735 160.909 Q700.443 161.881 698.036 162.391 Q695.628 162.9 693.151 162.9 Q686.948 162.9 683.314 159.289 Q679.702 155.678 679.702 149.52 Q679.702 143.155 683.128 139.428 Q686.577 135.678 692.411 135.678 Q697.642 135.678 700.675 139.057 Q703.73 142.414 703.73 148.201 M699.471 146.951 Q699.425 143.456 697.503 141.372 Q695.605 139.289 692.457 139.289 Q688.892 139.289 686.739 141.303 Q684.61 143.317 684.286 146.974 L699.471 146.951 Z" fill="#000000" fill-rule="nonzero" fill-opacity="1"></path><path clip-path="url(#clip980)" d="M725.744 140.284 Q725.026 139.868 724.17 139.682 Q723.336 139.474 722.318 139.474 Q718.707 139.474 716.762 141.835 Q714.841 144.173 714.841 148.571 L714.841 162.229 L710.559 162.229 L710.559 136.303 L714.841 136.303 L714.841 140.331 Q716.184 137.969 718.336 136.835 Q720.489 135.678 723.568 135.678 Q724.008 135.678 724.54 135.747 Q725.073 135.794 725.721 135.909 L725.744 140.284 Z" fill="#000000" fill-rule="nonzero" fill-opacity="1"></path><polyline clip-path="url(#clip980)" style="stroke:#e26f46; stroke-linecap:round; stroke-linejoin:round; stroke-width:16; stroke-opacity:1; fill:none" points="343.018,196.789 483.232,196.789 "></polyline>
<path clip-path="url(#clip980)" d="M511.277 183.351 L511.277 210.226 L516.926 210.226 Q524.078 210.226 527.388 206.985 Q530.722 203.745 530.722 196.754 Q530.722 189.809 527.388 186.592 Q524.078 183.351 516.926 183.351 L511.277 183.351 M506.602 179.509 L516.208 179.509 Q526.254 179.509 530.953 183.698 Q535.652 187.865 535.652 196.754 Q535.652 205.689 530.93 209.879 Q526.208 214.069 516.208 214.069 L506.602 214.069 L506.602 179.509 Z" fill="#000000" fill-rule="nonzero" fill-opacity="1"></path><path clip-path="url(#clip980)" d="M542.921 188.143 L547.18 188.143 L547.18 214.069 L542.921 214.069 L542.921 188.143 M542.921 178.05 L547.18 178.05 L547.18 183.444 L542.921 183.444 L542.921 178.05 Z" fill="#000000" fill-rule="nonzero" fill-opacity="1"></path><path clip-path="url(#clip980)" d="M576.277 193.12 Q577.874 190.249 580.096 188.884 Q582.319 187.518 585.328 187.518 Q589.379 187.518 591.578 190.365 Q593.777 193.189 593.777 198.421 L593.777 214.069 L589.495 214.069 L589.495 198.559 Q589.495 194.833 588.175 193.027 Q586.856 191.222 584.147 191.222 Q580.837 191.222 578.916 193.421 Q576.995 195.62 576.995 199.416 L576.995 214.069 L572.712 214.069 L572.712 198.559 Q572.712 194.809 571.393 193.027 Q570.073 191.222 567.319 191.222 Q564.055 191.222 562.134 193.444 Q560.212 195.643 560.212 199.416 L560.212 214.069 L555.93 214.069 L555.93 188.143 L560.212 188.143 L560.212 192.171 Q561.671 189.786 563.708 188.652 Q565.745 187.518 568.546 187.518 Q571.37 187.518 573.337 188.953 Q575.328 190.388 576.277 193.12 Z" fill="#000000" fill-rule="nonzero" fill-opacity="1"></path><path clip-path="url(#clip980)" d="M624.448 200.041 L624.448 202.124 L604.865 202.124 Q605.143 206.522 607.504 208.837 Q609.888 211.129 614.124 211.129 Q616.578 211.129 618.869 210.527 Q621.184 209.925 623.453 208.721 L623.453 212.749 Q621.161 213.721 618.754 214.231 Q616.346 214.74 613.869 214.74 Q607.666 214.74 604.032 211.129 Q600.42 207.518 600.42 201.36 Q600.42 194.995 603.846 191.268 Q607.295 187.518 613.129 187.518 Q618.36 187.518 621.393 190.897 Q624.448 194.254 624.448 200.041 M620.189 198.791 Q620.143 195.296 618.221 193.212 Q616.323 191.129 613.175 191.129 Q609.61 191.129 607.457 193.143 Q605.328 195.157 605.004 198.814 L620.189 198.791 Z" fill="#000000" fill-rule="nonzero" fill-opacity="1"></path><path clip-path="url(#clip980)" d="M646.462 192.124 Q645.744 191.708 644.888 191.522 Q644.054 191.314 643.036 191.314 Q639.425 191.314 637.48 193.675 Q635.559 196.013 635.559 200.411 L635.559 214.069 L631.277 214.069 L631.277 188.143 L635.559 188.143 L635.559 192.171 Q636.902 189.809 639.055 188.675 Q641.207 187.518 644.286 187.518 Q644.726 187.518 645.258 187.587 Q645.791 187.634 646.439 187.749 L646.462 192.124 Z" fill="#000000" fill-rule="nonzero" fill-opacity="1"></path><polyline clip-path="url(#clip980)" style="stroke:#3da44d; stroke-linecap:round; stroke-linejoin:round; stroke-width:16; stroke-opacity:1; fill:none" points="343.018,248.629 483.232,248.629 "></polyline>
<path clip-path="url(#clip980)" d="M506.602 231.349 L535.837 231.349 L535.837 235.284 L523.569 235.284 L523.569 265.909 L518.87 265.909 L518.87 235.284 L506.602 235.284 L506.602 231.349 Z" fill="#000000" fill-rule="nonzero" fill-opacity="1"></path><path clip-path="url(#clip980)" d="M548.222 243.964 Q547.504 243.548 546.648 243.362 Q545.814 243.154 544.796 243.154 Q541.185 243.154 539.24 245.515 Q537.319 247.853 537.319 252.251 L537.319 265.909 L533.037 265.909 L533.037 239.983 L537.319 239.983 L537.319 244.011 Q538.662 241.649 540.814 240.515 Q542.967 239.358 546.046 239.358 Q546.486 239.358 547.018 239.427 Q547.55 239.474 548.199 239.589 L548.222 243.964 Z" fill="#000000" fill-rule="nonzero" fill-opacity="1"></path><path clip-path="url(#clip980)" d="M552.689 239.983 L556.948 239.983 L556.948 265.909 L552.689 265.909 L552.689 239.983 M552.689 229.89 L556.948 229.89 L556.948 235.284 L552.689 235.284 L552.689 229.89 Z" fill="#000000" fill-rule="nonzero" fill-opacity="1"></path><path clip-path="url(#clip980)" d="M586.046 244.96 Q587.643 242.089 589.865 240.724 Q592.087 239.358 595.096 239.358 Q599.147 239.358 601.346 242.205 Q603.545 245.029 603.545 250.261 L603.545 265.909 L599.263 265.909 L599.263 250.399 Q599.263 246.673 597.944 244.867 Q596.624 243.062 593.916 243.062 Q590.606 243.062 588.684 245.261 Q586.763 247.46 586.763 251.256 L586.763 265.909 L582.481 265.909 L582.481 250.399 Q582.481 246.649 581.161 244.867 Q579.842 243.062 577.087 243.062 Q573.823 243.062 571.902 245.284 Q569.981 247.483 569.981 251.256 L569.981 265.909 L565.698 265.909 L565.698 239.983 L569.981 239.983 L569.981 244.011 Q571.439 241.626 573.476 240.492 Q575.513 239.358 578.314 239.358 Q581.138 239.358 583.106 240.793 Q585.096 242.228 586.046 244.96 Z" fill="#000000" fill-rule="nonzero" fill-opacity="1"></path><path clip-path="url(#clip980)" d="M634.217 251.881 L634.217 253.964 L614.633 253.964 Q614.911 258.362 617.272 260.677 Q619.656 262.969 623.893 262.969 Q626.346 262.969 628.638 262.367 Q630.953 261.765 633.221 260.561 L633.221 264.589 Q630.93 265.561 628.522 266.071 Q626.115 266.58 623.638 266.58 Q617.434 266.58 613.8 262.969 Q610.189 259.358 610.189 253.2 Q610.189 246.835 613.615 243.108 Q617.064 239.358 622.897 239.358 Q628.129 239.358 631.161 242.737 Q634.217 246.094 634.217 251.881 M629.957 250.631 Q629.911 247.136 627.99 245.052 Q626.092 242.969 622.943 242.969 Q619.379 242.969 617.226 244.983 Q615.096 246.997 614.772 250.654 L629.957 250.631 Z" fill="#000000" fill-rule="nonzero" fill-opacity="1"></path><path clip-path="url(#clip980)" d="M656.23 243.964 Q655.513 243.548 654.656 243.362 Q653.823 243.154 652.804 243.154 Q649.193 243.154 647.249 245.515 Q645.328 247.853 645.328 252.251 L645.328 265.909 L641.045 265.909 L641.045 239.983 L645.328 239.983 L645.328 244.011 Q646.67 241.649 648.823 240.515 Q650.976 239.358 654.054 239.358 Q654.494 239.358 655.027 239.427 Q655.559 239.474 656.207 239.589 L656.23 243.964 Z" fill="#000000" fill-rule="nonzero" fill-opacity="1"></path></svg>