<svg xmlns="http://www.w3.org/2000/svg" xmlns:xlink="http://www.w3.org/1999/xlink" width="600" height="400" viewBox="0 0 2400 1600">
<defs>
  <clipPath id="clip010">
    <rect x="0" y="0" width="2400" height="1600"></rect>
  </clipPath>
</defs>
<path clip-path="url(#clip010)" d="M0 1600 L2400 1600 L2400 0 L0 0  Z" fill="#ffffff" fill-rule="evenodd" fill-opacity="1"></path>
<defs>
  <clipPath id="clip011">
    <rect x="480" y="0" width="1681" height="1600"></rect>
  </clipPath>
</defs>
<path clip-path="url(#clip010)" d="M249.542 1423.18 L2352.76 1423.18 L2352.76 47.2441 L249.542 47.2441  Z" fill="#ffffff" fill-rule="evenodd" fill-opacity="1"></path>
<defs>
  <clipPath id="clip012">
    <rect x="249" y="47" width="2104" height="1377"></rect>
  </clipPath>
</defs>
<polyline clip-path="url(#clip012)" style="stroke:#000000; stroke-linecap:round; stroke-linejoin:round; stroke-width:2; stroke-opacity:0.1; fill:none" points="309.067,1423.18 309.067,47.2441 "></polyline>
<polyline clip-path="url(#clip012)" style="stroke:#000000; stroke-linecap:round; stroke-linejoin:round; stroke-width:2; stroke-opacity:0.1; fill:none" points="805.108,1423.18 805.108,47.2441 "></polyline>
<polyline clip-path="url(#clip012)" style="stroke:#000000; stroke-linecap:round; stroke-linejoin:round; stroke-width:2; stroke-opacity:0.1; fill:none" points="1301.15,1423.18 1301.15,47.2441 "></polyline>
<polyline clip-path="url(#clip012)" style="stroke:#000000; stroke-linecap:round; stroke-linejoin:round; stroke-width:2; stroke-opacity:0.1; fill:none" points="1797.19,1423.18 1797.19,47.2441 "></polyline>
<polyline clip-path="url(#clip012)" style="stroke:#000000; stroke-linecap:round; stroke-linejoin:round; stroke-width:2; stroke-opacity:0.1; fill:none" points="2293.23,1423.18 2293.23,47.2441 "></polyline>
<polyline clip-path="url(#clip010)" style="stroke:#000000; stroke-linecap:round; stroke-linejoin:round; stroke-width:4; stroke-opacity:1; fill:none" points="249.542,1423.18 2352.76,1423.18 "></polyline>
<polyline clip-path="url(#clip010)" style="stroke:#000000; stroke-linecap:round; stroke-linejoin:round; stroke-width:4; stroke-opacity:1; fill:none" points="309.067,1423.18 309.067,1404.28 "></polyline>
<polyline clip-path="url(#clip010)" style="stroke:#000000; stroke-linecap:round; stroke-linejoin:round; stroke-width:4; stroke-opacity:1; fill:none" points="805.108,1423.18 805.108,1404.28 "></polyline>
<polyline clip-path="url(#clip010)" style="stroke:#000000; stroke-linecap:round; stroke-linejoin:round; stroke-width:4; stroke-opacity:1; fill:none" points="1301.15,1423.18 1301.15,1404.28 "></polyline>
<polyline clip-path="url(#clip010)" style="stroke:#000000; stroke-linecap:round; stroke-linejoin:round; stroke-width:4; stroke-opacity:1; fill:none" points="1797.19,1423.18 1797.19,1404.28 "></polyline>
<polyline clip-path="url(#clip010)" style="stroke:#000000; stroke-linecap:round; stroke-linejoin:round; stroke-width:4; stroke-opacity:1; fill:none" points="2293.23,1423.18 2293.23,1404.28 "></polyline>
<path clip-path="url(#clip010)" d="M277.968 1468.75 L307.643 1468.75 L307.643 1472.69 L277.968 1472.69 L277.968 1468.75 Z" fill="#000000" fill-rule="nonzero" fill-opacity="1"></path><path clip-path="url(#clip010)" d="M330.583 1455.09 L318.778 1473.54 L330.583 1473.54 L330.583 1455.09 M329.356 1451.02 L335.236 1451.02 L335.236 1473.54 L340.166 1473.54 L340.166 1477.43 L335.236 1477.43 L335.236 1485.58 L330.583 1485.58 L330.583 1477.43 L314.981 1477.43 L314.981 1472.92 L329.356 1451.02 Z" fill="#000000" fill-rule="nonzero" fill-opacity="1"></path><path clip-path="url(#clip010)" d="M775.05 1468.75 L804.726 1468.75 L804.726 1472.69 L775.05 1472.69 L775.05 1468.75 Z" fill="#000000" fill-rule="nonzero" fill-opacity="1"></path><path clip-path="url(#clip010)" d="M818.846 1481.64 L835.166 1481.64 L835.166 1485.58 L813.221 1485.58 L813.221 1481.64 Q815.883 1478.89 820.467 1474.26 Q825.073 1469.61 826.254 1468.27 Q828.499 1465.74 829.379 1464.01 Q830.281 1462.25 830.281 1460.56 Q830.281 1457.8 828.337 1456.07 Q826.416 1454.33 823.314 1454.33 Q821.115 1454.33 818.661 1455.09 Q816.231 1455.86 813.453 1457.41 L813.453 1452.69 Q816.277 1451.55 818.731 1450.97 Q821.184 1450.39 823.221 1450.39 Q828.592 1450.39 831.786 1453.08 Q834.98 1455.77 834.98 1460.26 Q834.98 1462.39 834.17 1464.31 Q833.383 1466.2 831.277 1468.8 Q830.698 1469.47 827.596 1472.69 Q824.494 1475.88 818.846 1481.64 Z" fill="#000000" fill-rule="nonzero" fill-opacity="1"></path><path clip-path="url(#clip010)" d="M1301.15 1454.1 Q1297.54 1454.1 1295.71 1457.66 Q1293.9 1461.2 1293.9 1468.33 Q1293.9 1475.44 1295.71 1479.01 Q1297.54 1482.55 1301.15 1482.55 Q1304.78 1482.55 1306.59 1479.01 Q1308.42 1475.44 1308.42 1468.33 Q1308.42 1461.2 1306.59 1457.66 Q1304.78 1454.1 1301.15 1454.1 M1301.15 1450.39 Q1306.96 1450.39 1310.01 1455 Q1313.09 1459.58 1313.09 1468.33 Q1313.09 1477.06 1310.01 1481.67 Q1306.96 1486.25 1301.15 1486.25 Q1295.34 1486.25 1292.26 1481.67 Q1289.2 1477.06 1289.2 1468.33 Q1289.2 1459.58 1292.26 1455 Q1295.34 1450.39 1301.15 1450.39 Z" fill="#000000" fill-rule="nonzero" fill-opacity="1"></path><path clip-path="url(#clip010)" d="M1791.84 1481.64 L1808.16 1481.64 L1808.16 1485.58 L1786.22 1485.58 L1786.22 1481.64 Q1788.88 1478.89 1793.46 1474.26 Q1798.07 1469.61 1799.25 1468.27 Q1801.5 1465.74 1802.38 1464.01 Q1803.28 1462.25 1803.28 1460.56 Q1803.28 1457.8 1801.33 1456.07 Q1799.41 1454.33 1796.31 1454.33 Q1794.11 1454.33 1791.66 1455.09 Q1789.23 1455.86 1786.45 1457.41 L1786.45 1452.69 Q1789.27 1451.55 1791.73 1450.97 Q1794.18 1450.39 1796.22 1450.39 Q1801.59 1450.39 1804.78 1453.08 Q1807.98 1455.77 1807.98 1460.26 Q1807.98 1462.39 1807.17 1464.31 Q1806.38 1466.2 1804.27 1468.8 Q1803.69 1469.47 1800.59 1472.69 Q1797.49 1475.88 1791.84 1481.64 Z" fill="#000000" fill-rule="nonzero" fill-opacity="1"></path><path clip-path="url(#clip010)" d="M2296.24 1455.09 L2284.43 1473.54 L2296.24 1473.54 L2296.24 1455.09 M2295.01 1451.02 L2300.89 1451.02 L2300.89 1473.54 L2305.82 1473.54 L2305.82 1477.43 L2300.89 1477.43 L2300.89 1485.58 L2296.24 1485.58 L2296.24 1477.43 L2280.64 1477.43 L2280.64 1472.92 L2295.01 1451.02 Z" fill="#000000" fill-rule="nonzero" fill-opacity="1"></path><path clip-path="url(#clip010)" d="M1177.65 1518.52 L1183.51 1518.52 L1183.51 1568.04 L1177.65 1568.04 L1177.65 1518.52 Z" fill="#000000" fill-rule="nonzero" fill-opacity="1"></path><path clip-path="url(#clip010)" d="M1209.58 1536.5 Q1204.87 1536.5 1202.13 1540.19 Q1199.39 1543.85 1199.39 1550.25 Q1199.39 1556.65 1202.1 1560.34 Q1204.84 1564 1209.58 1564 Q1214.26 1564 1216.99 1560.31 Q1219.73 1556.62 1219.73 1550.25 Q1219.73 1543.92 1216.99 1540.23 Q1214.26 1536.5 1209.58 1536.5 M1209.58 1531.54 Q1217.22 1531.54 1221.58 1536.5 Q1225.94 1541.47 1225.94 1550.25 Q1225.94 1559 1221.58 1564 Q1217.22 1568.97 1209.58 1568.97 Q1201.91 1568.97 1197.55 1564 Q1193.22 1559 1193.22 1550.25 Q1193.22 1541.47 1197.55 1536.5 Q1201.91 1531.54 1209.58 1531.54 Z" fill="#000000" fill-rule="nonzero" fill-opacity="1"></path><path clip-path="url(#clip010)" d="M1259.1 1549.81 Q1259.1 1543.44 1256.46 1539.94 Q1253.85 1536.44 1249.11 1536.44 Q1244.4 1536.44 1241.76 1539.94 Q1239.15 1543.44 1239.15 1549.81 Q1239.15 1556.14 1241.76 1559.64 Q1244.4 1563.14 1249.11 1563.14 Q1253.85 1563.14 1256.46 1559.64 Q1259.1 1556.14 1259.1 1549.81 M1264.96 1563.62 Q1264.96 1572.72 1260.92 1577.15 Q1256.88 1581.6 1248.54 1581.6 Q1245.45 1581.6 1242.71 1581.13 Q1239.97 1580.68 1237.4 1579.72 L1237.4 1574.03 Q1239.97 1575.43 1242.49 1576.1 Q1245 1576.76 1247.61 1576.76 Q1253.37 1576.76 1256.24 1573.74 Q1259.1 1570.75 1259.1 1564.67 L1259.1 1561.77 Q1257.29 1564.92 1254.46 1566.48 Q1251.62 1568.04 1247.68 1568.04 Q1241.12 1568.04 1237.11 1563.05 Q1233.1 1558.05 1233.1 1549.81 Q1233.1 1541.53 1237.11 1536.53 Q1241.12 1531.54 1247.68 1531.54 Q1251.62 1531.54 1254.46 1533.1 Q1257.29 1534.66 1259.1 1537.81 L1259.1 1532.4 L1264.96 1532.4 L1264.96 1563.62 Z" fill="#000000" fill-rule="nonzero" fill-opacity="1"></path><path clip-path="url(#clip010)" d="M1278.96 1562.63 L1289.47 1562.63 L1289.47 1526.38 L1278.04 1528.67 L1278.04 1522.82 L1289.4 1520.52 L1295.83 1520.52 L1295.83 1562.63 L1306.34 1562.63 L1306.34 1568.04 L1278.96 1568.04 L1278.96 1562.63 Z" fill="#000000" fill-rule="nonzero" fill-opacity="1"></path><path clip-path="url(#clip010)" d="M1333.07 1524.76 Q1328.11 1524.76 1325.59 1529.66 Q1323.11 1534.53 1323.11 1544.33 Q1323.11 1554.1 1325.59 1559 Q1328.11 1563.87 1333.07 1563.87 Q1338.07 1563.87 1340.55 1559 Q1343.07 1554.1 1343.07 1544.33 Q1343.07 1534.53 1340.55 1529.66 Q1338.07 1524.76 1333.07 1524.76 M1333.07 1519.66 Q1341.06 1519.66 1345.26 1526 Q1349.5 1532.3 1349.5 1544.33 Q1349.5 1556.33 1345.26 1562.66 Q1341.06 1568.97 1333.07 1568.97 Q1325.08 1568.97 1320.85 1562.66 Q1316.65 1556.33 1316.65 1544.33 Q1316.65 1532.3 1320.85 1526 Q1325.08 1519.66 1333.07 1519.66 Z" fill="#000000" fill-rule="nonzero" fill-opacity="1"></path><path clip-path="url(#clip010)" d="M1374.04 1518.58 Q1369.77 1525.9 1367.7 1533.06 Q1365.63 1540.23 1365.63 1547.58 Q1365.63 1554.93 1367.7 1562.16 Q1369.8 1569.35 1374.04 1576.64 L1368.94 1576.64 Q1364.17 1569.16 1361.78 1561.93 Q1359.43 1554.71 1359.43 1547.58 Q1359.43 1540.48 1361.78 1533.29 Q1364.14 1526.09 1368.94 1518.58 L1374.04 1518.58 Z" fill="#000000" fill-rule="nonzero" fill-opacity="1"></path><path clip-path="url(#clip010)" d="M1391.19 1522.27 L1391.19 1532.4 L1403.25 1532.4 L1403.25 1536.95 L1391.19 1536.95 L1391.19 1556.3 Q1391.19 1560.66 1392.37 1561.9 Q1393.58 1563.14 1397.24 1563.14 L1403.25 1563.14 L1403.25 1568.04 L1397.24 1568.04 Q1390.46 1568.04 1387.88 1565.53 Q1385.3 1562.98 1385.3 1556.3 L1385.3 1536.95 L1381.01 1536.95 L1381.01 1532.4 L1385.3 1532.4 L1385.3 1522.27 L1391.19 1522.27 Z" fill="#000000" fill-rule="nonzero" fill-opacity="1"></path><path clip-path="url(#clip010)" d="M1410.03 1518.58 L1415.13 1518.58 Q1419.9 1526.09 1422.26 1533.29 Q1424.64 1540.48 1424.64 1547.58 Q1424.64 1554.71 1422.26 1561.93 Q1419.9 1569.16 1415.13 1576.64 L1410.03 1576.64 Q1414.27 1569.35 1416.34 1562.16 Q1418.44 1554.93 1418.44 1547.58 Q1418.44 1540.23 1416.34 1533.06 Q1414.27 1525.9 1410.03 1518.58 Z" fill="#000000" fill-rule="nonzero" fill-opacity="1"></path><polyline clip-path="url(#clip012)" style="stroke:#000000; stroke-linecap:round; stroke-linejoin:round; stroke-width:2; stroke-opacity:0.1; fill:none" points="249.542,1384.24 2352.76,1384.24 "></polyline>
<polyline clip-path="url(#clip012)" style="stroke:#000000; stroke-linecap:round; stroke-linejoin:round; stroke-width:2; stroke-opacity:0.1; fill:none" points="249.542,1071.38 2352.76,1071.38 "></polyline>
<polyline clip-path="url(#clip012)" style="stroke:#000000; stroke-linecap:round; stroke-linejoin:round; stroke-width:2; stroke-opacity:0.1; fill:none" points="249.542,758.522 2352.76,758.522 "></polyline>
<polyline clip-path="url(#clip012)" style="stroke:#000000; stroke-linecap:round; stroke-linejoin:round; stroke-width:2; stroke-opacity:0.1; fill:none" points="249.542,445.664 2352.76,445.664 "></polyline>
<polyline clip-path="url(#clip012)" style="stroke:#000000; stroke-linecap:round; stroke-linejoin:round; stroke-width:2; stroke-opacity:0.1; fill:none" points="249.542,132.806 2352.76,132.806 "></polyline>
<polyline clip-path="url(#clip010)" style="stroke:#000000; stroke-linecap:round; stroke-linejoin:round; stroke-width:4; stroke-opacity:1; fill:none" points="249.542,1423.18 249.542,47.2441 "></polyline>
<polyline clip-path="url(#clip010)" style="stroke:#000000; stroke-linecap:round; stroke-linejoin:round; stroke-width:4; stroke-opacity:1; fill:none" points="249.542,1384.24 268.44,1384.24 "></polyline>
<polyline clip-path="url(#clip010)" style="stroke:#000000; stroke-linecap:round; stroke-linejoin:round; stroke-width:4; stroke-opacity:1; fill:none" points="249.542,1071.38 268.44,1071.38 "></polyline>
<polyline clip-path="url(#clip010)" style="stroke:#000000; stroke-linecap:round; stroke-linejoin:round; stroke-width:4; stroke-opacity:1; fill:none" points="249.542,758.522 268.44,758.522 "></polyline>
<polyline clip-path="url(#clip010)" style="stroke:#000000; stroke-linecap:round; stroke-linejoin:round; stroke-width:4; stroke-opacity:1; fill:none" points="249.542,445.664 268.44,445.664 "></polyline>
<polyline clip-path="url(#clip010)" style="stroke:#000000; stroke-linecap:round; stroke-linejoin:round; stroke-width:4; stroke-opacity:1; fill:none" points="249.542,132.806 268.44,132.806 "></polyline>
<path clip-path="url(#clip010)" d="M126.205 1370.04 Q122.593 1370.04 120.765 1373.6 Q118.959 1377.14 118.959 1384.27 Q118.959 1391.38 120.765 1394.94 Q122.593 1398.49 126.205 1398.49 Q129.839 1398.49 131.644 1394.94 Q133.473 1391.38 133.473 1384.27 Q133.473 1377.14 131.644 1373.6 Q129.839 1370.04 126.205 1370.04 M126.205 1366.33 Q132.015 1366.33 135.07 1370.94 Q138.149 1375.52 138.149 1384.27 Q138.149 1393 135.07 1397.61 Q132.015 1402.19 126.205 1402.19 Q120.394 1402.19 117.316 1397.61 Q114.26 1393 114.26 1384.27 Q114.26 1375.52 117.316 1370.94 Q120.394 1366.33 126.205 1366.33 Z" fill="#000000" fill-rule="nonzero" fill-opacity="1"></path><path clip-path="url(#clip010)" d="M146.366 1395.64 L151.251 1395.64 L151.251 1401.52 L146.366 1401.52 L146.366 1395.64 Z" fill="#000000" fill-rule="nonzero" fill-opacity="1"></path><path clip-path="url(#clip010)" d="M171.436 1370.04 Q167.825 1370.04 165.996 1373.6 Q164.19 1377.14 164.19 1384.27 Q164.19 1391.38 165.996 1394.94 Q167.825 1398.49 171.436 1398.49 Q175.07 1398.49 176.876 1394.94 Q178.704 1391.38 178.704 1384.27 Q178.704 1377.14 176.876 1373.6 Q175.07 1370.04 171.436 1370.04 M171.436 1366.33 Q177.246 1366.33 180.301 1370.94 Q183.38 1375.52 183.38 1384.27 Q183.38 1393 180.301 1397.61 Q177.246 1402.19 171.436 1402.19 Q165.626 1402.19 162.547 1397.61 Q159.491 1393 159.491 1384.27 Q159.491 1375.52 162.547 1370.94 Q165.626 1366.33 171.436 1366.33 Z" fill="#000000" fill-rule="nonzero" fill-opacity="1"></path><path clip-path="url(#clip010)" d="M201.598 1370.04 Q197.987 1370.04 196.158 1373.6 Q194.352 1377.14 194.352 1384.27 Q194.352 1391.38 196.158 1394.94 Q197.987 1398.49 201.598 1398.49 Q205.232 1398.49 207.037 1394.94 Q208.866 1391.38 208.866 1384.27 Q208.866 1377.14 207.037 1373.6 Q205.232 1370.04 201.598 1370.04 M201.598 1366.33 Q207.408 1366.33 210.463 1370.94 Q213.542 1375.52 213.542 1384.27 Q213.542 1393 210.463 1397.61 Q207.408 1402.19 201.598 1402.19 Q195.787 1402.19 192.709 1397.61 Q189.653 1393 189.653 1384.27 Q189.653 1375.52 192.709 1370.94 Q195.787 1366.33 201.598 1366.33 Z" fill="#000000" fill-rule="nonzero" fill-opacity="1"></path><path clip-path="url(#clip010)" d="M127.2 1057.18 Q123.589 1057.18 121.76 1060.74 Q119.955 1064.29 119.955 1071.41 Q119.955 1078.52 121.76 1082.09 Q123.589 1085.63 127.2 1085.63 Q130.834 1085.63 132.64 1082.09 Q134.468 1078.52 134.468 1071.41 Q134.468 1064.29 132.64 1060.74 Q130.834 1057.18 127.2 1057.18 M127.2 1053.48 Q133.01 1053.48 136.066 1058.08 Q139.144 1062.66 139.144 1071.41 Q139.144 1080.14 136.066 1084.75 Q133.01 1089.33 127.2 1089.33 Q121.39 1089.33 118.311 1084.75 Q115.256 1080.14 115.256 1071.41 Q115.256 1062.66 118.311 1058.08 Q121.39 1053.48 127.2 1053.48 Z" fill="#000000" fill-rule="nonzero" fill-opacity="1"></path><path clip-path="url(#clip010)" d="M147.362 1082.78 L152.246 1082.78 L152.246 1088.66 L147.362 1088.66 L147.362 1082.78 Z" fill="#000000" fill-rule="nonzero" fill-opacity="1"></path><path clip-path="url(#clip010)" d="M166.459 1084.72 L182.778 1084.72 L182.778 1088.66 L160.834 1088.66 L160.834 1084.72 Q163.496 1081.97 168.079 1077.34 Q172.686 1072.69 173.866 1071.35 Q176.112 1068.82 176.991 1067.09 Q177.894 1065.33 177.894 1063.64 Q177.894 1060.88 175.95 1059.15 Q174.028 1057.41 170.927 1057.41 Q168.727 1057.41 166.274 1058.17 Q163.843 1058.94 161.065 1060.49 L161.065 1055.77 Q163.89 1054.63 166.343 1054.05 Q168.797 1053.48 170.834 1053.48 Q176.204 1053.48 179.399 1056.16 Q182.593 1058.85 182.593 1063.34 Q182.593 1065.47 181.783 1067.39 Q180.996 1069.29 178.889 1071.88 Q178.311 1072.55 175.209 1075.77 Q172.107 1078.96 166.459 1084.72 Z" fill="#000000" fill-rule="nonzero" fill-opacity="1"></path><path clip-path="url(#clip010)" d="M192.639 1054.1 L210.996 1054.1 L210.996 1058.04 L196.922 1058.04 L196.922 1066.51 Q197.94 1066.16 198.959 1066 Q199.977 1065.81 200.996 1065.81 Q206.783 1065.81 210.162 1068.98 Q213.542 1072.16 213.542 1077.57 Q213.542 1083.15 210.07 1086.25 Q206.598 1089.33 200.278 1089.33 Q198.102 1089.33 195.834 1088.96 Q193.588 1088.59 191.181 1087.85 L191.181 1083.15 Q193.264 1084.29 195.487 1084.84 Q197.709 1085.4 200.186 1085.4 Q204.19 1085.4 206.528 1083.29 Q208.866 1081.18 208.866 1077.57 Q208.866 1073.96 206.528 1071.85 Q204.19 1069.75 200.186 1069.75 Q198.311 1069.75 196.436 1070.16 Q194.584 1070.58 192.639 1071.46 L192.639 1054.1 Z" fill="#000000" fill-rule="nonzero" fill-opacity="1"></path><path clip-path="url(#clip010)" d="M126.205 744.321 Q122.593 744.321 120.765 747.885 Q118.959 751.427 118.959 758.557 Q118.959 765.663 120.765 769.228 Q122.593 772.77 126.205 772.77 Q129.839 772.77 131.644 769.228 Q133.473 765.663 133.473 758.557 Q133.473 751.427 131.644 747.885 Q129.839 744.321 126.205 744.321 M126.205 740.617 Q132.015 740.617 135.07 745.223 Q138.149 749.807 138.149 758.557 Q138.149 767.283 135.07 771.89 Q132.015 776.473 126.205 776.473 Q120.394 776.473 117.316 771.89 Q114.26 767.283 114.26 758.557 Q114.26 749.807 117.316 745.223 Q120.394 740.617 126.205 740.617 Z" fill="#000000" fill-rule="nonzero" fill-opacity="1"></path><path clip-path="url(#clip010)" d="M146.366 769.922 L151.251 769.922 L151.251 775.802 L146.366 775.802 L146.366 769.922 Z" fill="#000000" fill-rule="nonzero" fill-opacity="1"></path><path clip-path="url(#clip010)" d="M161.482 741.242 L179.839 741.242 L179.839 745.177 L165.765 745.177 L165.765 753.649 Q166.783 753.302 167.802 753.14 Q168.82 752.955 169.839 752.955 Q175.626 752.955 179.005 756.126 Q182.385 759.297 182.385 764.714 Q182.385 770.293 178.913 773.395 Q175.44 776.473 169.121 776.473 Q166.945 776.473 164.677 776.103 Q162.431 775.732 160.024 774.992 L160.024 770.293 Q162.107 771.427 164.329 771.982 Q166.552 772.538 169.028 772.538 Q173.033 772.538 175.371 770.432 Q177.709 768.325 177.709 764.714 Q177.709 761.103 175.371 758.996 Q173.033 756.89 169.028 756.89 Q167.153 756.89 165.278 757.307 Q163.427 757.723 161.482 758.603 L161.482 741.242 Z" fill="#000000" fill-rule="nonzero" fill-opacity="1"></path><path clip-path="url(#clip010)" d="M201.598 744.321 Q197.987 744.321 196.158 747.885 Q194.352 751.427 194.352 758.557 Q194.352 765.663 196.158 769.228 Q197.987 772.77 201.598 772.77 Q205.232 772.77 207.037 769.228 Q208.866 765.663 208.866 758.557 Q208.866 751.427 207.037 747.885 Q205.232 744.321 201.598 744.321 M201.598 740.617 Q207.408 740.617 210.463 745.223 Q213.542 749.807 213.542 758.557 Q213.542 767.283 210.463 771.89 Q207.408 776.473 201.598 776.473 Q195.787 776.473 192.709 771.89 Q189.653 767.283 189.653 758.557 Q189.653 749.807 192.709 745.223 Q195.787 740.617 201.598 740.617 Z" fill="#000000" fill-rule="nonzero" fill-opacity="1"></path><path clip-path="url(#clip010)" d="M127.2 431.462 Q123.589 431.462 121.76 435.027 Q119.955 438.569 119.955 445.698 Q119.955 452.805 121.76 456.37 Q123.589 459.911 127.2 459.911 Q130.834 459.911 132.64 456.37 Q134.468 452.805 134.468 445.698 Q134.468 438.569 132.64 435.027 Q130.834 431.462 127.2 431.462 M127.2 427.759 Q133.01 427.759 136.066 432.365 Q139.144 436.949 139.144 445.698 Q139.144 454.425 136.066 459.032 Q133.01 463.615 127.2 463.615 Q121.39 463.615 118.311 459.032 Q115.256 454.425 115.256 445.698 Q115.256 436.949 118.311 432.365 Q121.39 427.759 127.2 427.759 Z" fill="#000000" fill-rule="nonzero" fill-opacity="1"></path><path clip-path="url(#clip010)" d="M147.362 457.064 L152.246 457.064 L152.246 462.944 L147.362 462.944 L147.362 457.064 Z" fill="#000000" fill-rule="nonzero" fill-opacity="1"></path><path clip-path="url(#clip010)" d="M161.251 428.384 L183.473 428.384 L183.473 430.374 L170.927 462.944 L166.042 462.944 L177.848 432.319 L161.251 432.319 L161.251 428.384 Z" fill="#000000" fill-rule="nonzero" fill-opacity="1"></path><path clip-path="url(#clip010)" d="M192.639 428.384 L210.996 428.384 L210.996 432.319 L196.922 432.319 L196.922 440.791 Q197.94 440.444 198.959 440.282 Q199.977 440.097 200.996 440.097 Q206.783 440.097 210.162 443.268 Q213.542 446.439 213.542 451.856 Q213.542 457.435 210.07 460.536 Q206.598 463.615 200.278 463.615 Q198.102 463.615 195.834 463.245 Q193.588 462.874 191.181 462.134 L191.181 457.435 Q193.264 458.569 195.487 459.124 Q197.709 459.68 200.186 459.68 Q204.19 459.68 206.528 457.573 Q208.866 455.467 208.866 451.856 Q208.866 448.245 206.528 446.138 Q204.19 444.032 200.186 444.032 Q198.311 444.032 196.436 444.448 Q194.584 444.865 192.639 445.745 L192.639 428.384 Z" fill="#000000" fill-rule="nonzero" fill-opacity="1"></path><path clip-path="url(#clip010)" d="M117.015 146.15 L124.654 146.15 L124.654 119.785 L116.343 121.451 L116.343 117.192 L124.607 115.526 L129.283 115.526 L129.283 146.15 L136.922 146.15 L136.922 150.086 L117.015 150.086 L117.015 146.15 Z" fill="#000000" fill-rule="nonzero" fill-opacity="1"></path><path clip-path="url(#clip010)" d="M146.366 144.206 L151.251 144.206 L151.251 150.086 L146.366 150.086 L146.366 144.206 Z" fill="#000000" fill-rule="nonzero" fill-opacity="1"></path><path clip-path="url(#clip010)" d="M171.436 118.604 Q167.825 118.604 165.996 122.169 Q164.19 125.711 164.19 132.84 Q164.19 139.947 165.996 143.512 Q167.825 147.053 171.436 147.053 Q175.07 147.053 176.876 143.512 Q178.704 139.947 178.704 132.84 Q178.704 125.711 176.876 122.169 Q175.07 118.604 171.436 118.604 M171.436 114.901 Q177.246 114.901 180.301 119.507 Q183.38 124.09 183.38 132.84 Q183.38 141.567 180.301 146.174 Q177.246 150.757 171.436 150.757 Q165.626 150.757 162.547 146.174 Q159.491 141.567 159.491 132.84 Q159.491 124.09 162.547 119.507 Q165.626 114.901 171.436 114.901 Z" fill="#000000" fill-rule="nonzero" fill-opacity="1"></path><path clip-path="url(#clip010)" d="M201.598 118.604 Q197.987 118.604 196.158 122.169 Q194.352 125.711 194.352 132.84 Q194.352 139.947 196.158 143.512 Q197.987 147.053 201.598 147.053 Q205.232 147.053 207.037 143.512 Q208.866 139.947 208.866 132.84 Q208.866 125.711 207.037 122.169 Q205.232 118.604 201.598 118.604 M201.598 114.901 Q207.408 114.901 210.463 119.507 Q213.542 124.09 213.542 132.84 Q213.542 141.567 210.463 146.174 Q207.408 150.757 201.598 150.757 Q195.787 150.757 192.709 146.174 Q189.653 141.567 189.653 132.84 Q189.653 124.09 192.709 119.507 Q195.787 114.901 201.598 114.901 Z" fill="#000000" fill-rule="nonzero" fill-opacity="1"></path><path clip-path="url(#clip010)" d="M41.7242 926.454 Q42.4244 924.385 44.7161 922.443 Q47.0077 920.47 51.0181 918.497 L64.0042 911.972 L64.0042 918.879 L51.8138 924.958 Q47.0395 927.313 45.48 929.541 Q43.9204 931.737 43.9204 935.557 L43.9204 942.559 L64.0042 942.559 L64.0042 948.988 L16.4842 948.988 L16.4842 934.475 Q16.4842 926.326 19.8898 922.316 Q23.2955 918.306 30.1704 918.306 Q34.6582 918.306 37.6183 920.406 Q40.5784 922.475 41.7242 926.454 M21.7677 942.559 L38.6368 942.559 L38.6368 934.475 Q38.6368 929.828 36.5043 927.472 Q34.34 925.085 30.1704 925.085 Q26.0009 925.085 23.9002 927.472 Q21.7677 929.828 21.7677 934.475 L21.7677 942.559 Z" fill="#000000" fill-rule="nonzero" fill-opacity="1"></path><path clip-path="url(#clip010)" d="M44.7161 876.387 L47.5806 876.387 L47.5806 903.314 Q53.6281 902.932 56.8109 899.686 Q59.9619 896.408 59.9619 890.583 Q59.9619 887.209 59.1344 884.058 Q58.3069 880.875 56.6518 877.756 L62.1899 877.756 Q63.5267 880.907 64.227 884.217 Q64.9272 887.527 64.9272 890.933 Q64.9272 899.463 59.9619 904.46 Q54.9967 909.425 46.5303 909.425 Q37.7774 909.425 32.6531 904.715 Q27.4968 899.972 27.4968 891.952 Q27.4968 884.758 32.1438 880.589 Q36.7589 876.387 44.7161 876.387 M42.9973 882.244 Q38.1912 882.308 35.3266 884.949 Q32.4621 887.559 32.4621 891.888 Q32.4621 896.79 35.2312 899.75 Q38.0002 902.678 43.0292 903.123 L42.9973 882.244 Z" fill="#000000" fill-rule="nonzero" fill-opacity="1"></path><path clip-path="url(#clip010)" d="M14.479 866.775 L14.479 860.919 L64.0042 860.919 L64.0042 866.775 L14.479 866.775 Z" fill="#000000" fill-rule="nonzero" fill-opacity="1"></path><path clip-path="url(#clip010)" d="M46.0847 832.464 Q46.0847 839.562 47.7079 842.299 Q49.3312 845.036 53.2461 845.036 Q56.3653 845.036 58.2114 842.999 Q60.0256 840.93 60.0256 837.397 Q60.0256 832.528 56.5881 829.599 Q53.1188 826.639 47.3897 826.639 L46.0847 826.639 L46.0847 832.464 M43.6657 820.783 L64.0042 820.783 L64.0042 826.639 L58.5933 826.639 Q61.8398 828.645 63.3994 831.637 Q64.9272 834.628 64.9272 838.957 Q64.9272 844.432 61.8716 847.678 Q58.7843 850.893 53.6281 850.893 Q47.6125 850.893 44.5569 846.882 Q41.5014 842.84 41.5014 834.851 L41.5014 826.639 L40.9285 826.639 Q36.8862 826.639 34.6901 829.313 Q32.4621 831.955 32.4621 836.761 Q32.4621 839.816 33.1941 842.713 Q33.9262 845.609 35.3903 848.283 L29.9795 848.283 Q28.7381 845.068 28.1334 842.044 Q27.4968 839.021 27.4968 836.156 Q27.4968 828.422 31.5072 824.602 Q35.5176 820.783 43.6657 820.783 Z" fill="#000000" fill-rule="nonzero" fill-opacity="1"></path><path clip-path="url(#clip010)" d="M18.2347 802.927 L28.3562 802.927 L28.3562 790.864 L32.9077 790.864 L32.9077 802.927 L52.2594 802.927 Q56.6199 802.927 57.8613 801.75 Q59.1026 800.54 59.1026 796.88 L59.1026 790.864 L64.0042 790.864 L64.0042 796.88 Q64.0042 803.659 61.4897 806.237 Q58.9434 808.815 52.2594 808.815 L32.9077 808.815 L32.9077 813.112 L28.3562 813.112 L28.3562 808.815 L18.2347 808.815 L18.2347 802.927 Z" fill="#000000" fill-rule="nonzero" fill-opacity="1"></path><path clip-path="url(#clip010)" d="M28.3562 783.162 L28.3562 777.305 L64.0042 777.305 L64.0042 783.162 L28.3562 783.162 M14.479 783.162 L14.479 777.305 L21.895 777.305 L21.895 783.162 L14.479 783.162 Z" fill="#000000" fill-rule="nonzero" fill-opacity="1"></path><path clip-path="url(#clip010)" d="M28.3562 769.253 L28.3562 763.046 L58.275 751.906 L28.3562 740.766 L28.3562 734.559 L64.0042 747.927 L64.0042 755.885 L28.3562 769.253 Z" fill="#000000" fill-rule="nonzero" fill-opacity="1"></path><path clip-path="url(#clip010)" d="M44.7161 695.983 L47.5806 695.983 L47.5806 722.91 Q53.6281 722.528 56.8109 719.282 Q59.9619 716.003 59.9619 710.179 Q59.9619 706.805 59.1344 703.654 Q58.3069 700.471 56.6518 697.352 L62.1899 697.352 Q63.5267 700.503 64.227 703.813 Q64.9272 707.123 64.9272 710.529 Q64.9272 719.059 59.9619 724.056 Q54.9967 729.021 46.5303 729.021 Q37.7774 729.021 32.6531 724.311 Q27.4968 719.568 27.4968 711.547 Q27.4968 704.354 32.1438 700.185 Q36.7589 695.983 44.7161 695.983 M42.9973 701.84 Q38.1912 701.903 35.3266 704.545 Q32.4621 707.155 32.4621 711.484 Q32.4621 716.385 35.2312 719.345 Q38.0002 722.274 43.0292 722.719 L42.9973 701.84 Z" fill="#000000" fill-rule="nonzero" fill-opacity="1"></path><path clip-path="url(#clip010)" d="M67.3143 650.819 Q73.68 653.301 75.6216 655.657 Q77.5631 658.012 77.5631 661.959 L77.5631 666.637 L72.6615 666.637 L72.6615 663.2 Q72.6615 660.781 71.5157 659.444 Q70.3699 658.107 66.1048 656.484 L63.4312 655.434 L28.3562 669.852 L28.3562 663.646 L56.238 652.506 L28.3562 641.366 L28.3562 635.159 L67.3143 650.819 Z" fill="#000000" fill-rule="nonzero" fill-opacity="1"></path><path clip-path="url(#clip010)" d="M28.3562 627.075 L28.3562 621.218 L64.0042 621.218 L64.0042 627.075 L28.3562 627.075 M14.479 627.075 L14.479 621.218 L21.895 621.218 L21.895 627.075 L14.479 627.075 Z" fill="#000000" fill-rule="nonzero" fill-opacity="1"></path><path clip-path="url(#clip010)" d="M44.7161 578.472 L47.5806 578.472 L47.5806 605.399 Q53.6281 605.017 56.8109 601.771 Q59.9619 598.493 59.9619 592.668 Q59.9619 589.294 59.1344 586.143 Q58.3069 582.96 56.6518 579.841 L62.1899 579.841 Q63.5267 582.992 64.227 586.302 Q64.9272 589.612 64.9272 593.018 Q64.9272 601.548 59.9619 606.545 Q54.9967 611.51 46.5303 611.51 Q37.7774 611.51 32.6531 606.8 Q27.4968 602.057 27.4968 594.037 Q27.4968 586.843 32.1438 582.674 Q36.7589 578.472 44.7161 578.472 M42.9973 584.329 Q38.1912 584.392 35.3266 587.034 Q32.4621 589.644 32.4621 593.973 Q32.4621 598.874 35.2312 601.835 Q38.0002 604.763 43.0292 605.208 L42.9973 584.329 Z" fill="#000000" fill-rule="nonzero" fill-opacity="1"></path><path clip-path="url(#clip010)" d="M14.479 568.86 L14.479 563.004 L64.0042 563.004 L64.0042 568.86 L14.479 568.86 Z" fill="#000000" fill-rule="nonzero" fill-opacity="1"></path><path clip-path="url(#clip010)" d="M33.7671 527.292 L14.479 527.292 L14.479 521.436 L64.0042 521.436 L64.0042 527.292 L58.657 527.292 Q61.8398 529.138 63.3994 531.971 Q64.9272 534.772 64.9272 538.719 Q64.9272 545.18 59.771 549.254 Q54.6147 553.296 46.212 553.296 Q37.8093 553.296 32.6531 549.254 Q27.4968 545.18 27.4968 538.719 Q27.4968 534.772 29.0564 531.971 Q30.5842 529.138 33.7671 527.292 M46.212 547.249 Q52.6732 547.249 56.3653 544.607 Q60.0256 541.933 60.0256 537.286 Q60.0256 532.639 56.3653 529.966 Q52.6732 527.292 46.212 527.292 Q39.7508 527.292 36.0905 529.966 Q32.3984 532.639 32.3984 537.286 Q32.3984 541.933 36.0905 544.607 Q39.7508 547.249 46.212 547.249 Z" fill="#000000" fill-rule="nonzero" fill-opacity="1"></path><polyline clip-path="url(#clip012)" style="stroke:#009af9; stroke-linecap:round; stroke-linejoin:round; stroke-width:16; stroke-opacity:1; fill:none" points="309.067,132.806 329.109,137.906 349.151,144.001 369.193,151.273 389.235,159.935 409.277,170.227 429.319,182.424 449.361,196.834 469.403,213.794 489.446,233.666 509.488,256.831 529.53,283.669 549.572,314.544 569.614,349.773 589.656,389.592 609.698,434.119 629.74,483.312 649.782,536.931 669.824,594.511 689.866,655.35 709.908,718.527 729.95,782.938 749.992,847.37 770.034,910.582 790.076,971.397 810.118,1028.79 830.161,1081.94 850.203,1130.3 870.245,1173.55 890.287,1211.62 910.329,1244.63 930.371,1272.87 950.413,1296.69 970.455,1316.54 990.497,1332.87 1010.54,1346.11 1030.58,1356.68 1050.62,1364.96 1070.67,1371.29 1090.71,1375.97 1110.75,1379.28 1130.79,1381.5 1150.83,1382.86 1170.88,1383.61 1190.92,1383.97 1210.96,1384.12 1231,1384.17 1251.04,1384.18 1271.09,1384.19 1291.13,1384.19 1311.17,1384.19 1331.21,1384.19 1351.25,1384.19 1371.3,1384.19 1391.34,1384.19 1411.38,1384.19 1431.42,1384.19 1451.46,1384.19 1471.51,1384.19 1491.55,1384.19 1511.59,1384.19 1531.63,1384.19 1551.67,1384.19 1571.72,1384.19 1591.76,1384.19 1611.8,1384.19 1631.84,1384.19 1651.89,1384.19 1671.93,1384.19 1691.97,1384.19 1712.01,1384.19 1732.05,1384.19 1752.1,1384.19 1772.14,1384.19 1792.18,1384.19 1812.22,1384.19 1832.26,1384.19 1852.31,1384.19 1872.35,1384.19 1892.39,1384.19 1912.43,1384.19 1932.47,1384.19 1952.52,1384.19 1972.56,1384.19 1992.6,1384.19 2012.64,1384.19 2032.68,1384.19 2052.73,1384.2 2072.77,1384.2 2092.81,1384.21 2112.85,1384.22 2132.89,1384.22 2152.94,1384.23 2172.98,1384.23 2193.02,1384.23 2213.06,1384.23 2233.1,1384.23 2253.15,1384.23 2273.19,1384.23 2293.23,1384.23 "></polyline>
<polyline clip-path="url(#clip012)" style="stroke:#e26f46; stroke-linecap:round; stroke-linejoin:round; stroke-width:16; stroke-opacity:1; fill:none" points="309.067,1384.24 329.109,1381.69 349.151,1378.66 369.193,1375.06 389.235,1370.78 409.277,1365.74 429.319,1359.8 449.361,1352.85 469.403,1344.74 489.446,1335.36 509.488,1324.59 529.53,1312.33 549.572,1298.51 569.614,1283.15 589.656,1266.3 609.698,1248.13 629.74,1228.93 649.782,1209.07 669.824,1189.07 689.866,1169.52 709.908,1151.06 729.95,1134.35 749.992,1119.97 770.034,1108.39 790.076,1099.92 810.118,1094.67 830.161,1092.57 850.203,1093.36 870.245,1096.67 890.287,1102.02 910.329,1108.91 930.371,1116.83 950.413,1125.3 970.455,1133.9 990.497,1142.26 1010.54,1150.1 1030.58,1157.18 1050.62,1163.33 1070.67,1168.47 1090.71,1172.54 1110.75,1175.6 1130.79,1177.74 1150.83,1179.11 1170.88,1179.92 1190.92,1180.36 1210.96,1180.6 1231,1180.76 1251.04,1180.9 1271.09,1181.07 1291.13,1181.26 1311.17,1181.49 1331.21,1181.78 1351.25,1182.11 1371.3,1182.52 1391.34,1183.01 1411.38,1183.59 1431.42,1184.3 1451.46,1185.14 1471.51,1186.16 1491.55,1187.37 1511.59,1188.82 1531.63,1190.56 1551.67,1192.63 1571.72,1195.09 1591.76,1198.01 1611.8,1201.48 1631.84,1205.56 1651.89,1210.36 1671.93,1215.97 1691.97,1222.49 1712.01,1230 1732.05,1238.59 1752.1,1248.31 1772.14,1259.15 1792.18,1271.07 1812.22,1283.92 1832.26,1297.48 1852.31,1311.4 1872.35,1325.24 1892.39,1338.45 1912.43,1350.5 1932.47,1360.87 1952.52,1369.21 1972.56,1375.39 1992.6,1379.55 2012.64,1382.03 2032.68,1383.32 2052.73,1383.89 2072.77,1384.11 2092.81,1384.19 2112.85,1384.22 2132.89,1384.23 2152.94,1384.23 2172.98,1384.23 2193.02,1384.24 2213.06,1384.24 2233.1,1384.24 2253.15,1384.24 2273.19,1384.24 2293.23,1384.24 "></polyline>
<polyline clip-path="url(#clip012)" style="stroke:#3da44d; stroke-linecap:round; stroke-linejoin:round; stroke-width:16; stroke-opacity:1; fill:none" points="309.067,1384.24 329.109,1384.23 349.151,1384.2 369.193,1384.14 389.235,1384.02 409.277,1383.82 429.319,1383.49 449.361,1382.99 469.403,1382.24 489.446,1381.13 509.488,1379.51 529.53,1377.2 549.572,1373.95 569.614,1369.45 589.656,1363.33 609.698,1355.13 629.74,1344.35 649.782,1330.45 669.824,1312.87 689.866,1291.14 709.908,1264.87 729.95,1233.89 749.992,1198.21 770.034,1158.16 790.076,1114.28 810.118,1067.38 830.161,1018.43 850.203,968.491 870.245,918.63 890.287,869.859 910.329,823.07 930.371,779.002 950.413,738.234 970.455,701.185 990.497,668.129 1010.54,639.217 1030.58,614.491 1050.62,593.9 1070.67,577.303 1090.71,564.463 1110.75,555.032 1130.79,548.547 1150.83,544.439 1170.88,542.074 1190.92,540.833 1210.96,540.205 1231,539.836 1251.04,539.531 1271.09,539.201 1291.13,538.812 1311.17,538.345 1331.21,537.783 1351.25,537.107 1371.3,536.294 1391.34,535.317 1411.38,534.144 1431.42,532.735 1451.46,531.045 1471.51,529.018 1491.55,526.591 1511.59,523.687 1531.63,520.22 1551.67,516.081 1571.72,511.157 1591.76,505.306 1611.8,498.381 1631.84,490.211 1651.89,480.613 1671.93,469.393 1691.97,456.359 1712.01,441.327 1732.05,424.147 1752.1,404.72 1772.14,383.033 1792.18,359.197 1812.22,333.485 1832.26,306.365 1852.31,278.524 1872.35,250.861 1892.39,224.431 1912.43,200.343 1932.47,179.599 1952.52,162.914 1972.56,150.547 1992.6,142.239 2012.64,137.277 2032.68,134.695 2052.73,133.543 2072.77,133.096 2092.81,132.933 2112.85,132.871 2132.89,132.844 2152.94,132.831 2172.98,132.823 2193.02,132.819 2213.06,132.816 2233.1,132.814 2253.15,132.812 2273.19,132.811 2293.23,132.81 "></polyline>
<circle clip-path="url(#clip012)" cx="309.067" cy="1384.24" r="28.8" fill="#c271d2" fill-rule="evenodd" fill-opacity="1" stroke="#000000" stroke-opacity="1" stroke-width="3.2"></circle>
<circle clip-path="url(#clip012)" cx="529.53" cy="1376.13" r="28.8" fill="#c271d2" fill-rule="evenodd" fill-opacity="1" stroke="#000000" stroke-opacity="1" stroke-width="3.2"></circle>
<circle clip-path="url(#clip012)" cx="749.992" cy="1202.92" r="28.8" fill="#c271d2" fill-rule="evenodd" fill-opacity="1" stroke="#000000" stroke-opacity="1" stroke-width="3.2"></circle>
<circle clip-path="url(#clip012)" cx="970.455" cy="653.718" r="28.8" fill="#c271d2" fill-rule="evenodd" fill-opacity="1" stroke="#000000" stroke-opacity="1" stroke-width="3.2"></circle>
<circle clip-path="url(#clip012)" cx="1190.92" cy="450.11" r="28.8" fill="#c271d2" fill-rule="evenodd" fill-opacity="1" stroke="#000000" stroke-opacity="1" stroke-width="3.2"></circle>
<circle clip-path="url(#clip012)" cx="1411.38" cy="533.121" r="28.8" fill="#c271d2" fill-rule="evenodd" fill-opacity="1" stroke="#000000" stroke-opacity="1" stroke-width="3.2"></circle>
<circle clip-path="url(#clip012)" cx="1631.84" cy="336.561" r="28.8" fill="#c271d2" fill-rule="evenodd" fill-opacity="1" stroke="#000000" stroke-opacity="1" stroke-width="3.2"></circle>
<circle clip-path="url(#clip012)" cx="1852.31" cy="242.303" r="28.8" fill="#c271d2" fill-rule="evenodd" fill-opacity="1" stroke="#000000" stroke-opacity="1" stroke-width="3.2"></circle>
<circle clip-path="url(#clip012)" cx="2072.77" cy="86.1857" r="28.8" fill="#c271d2" fill-rule="evenodd" fill-opacity="1" stroke="#000000" stroke-opacity="1" stroke-width="3.2"></circle>
<circle clip-path="url(#clip012)" cx="2293.23" cy="261.449" r="28.8" fill="#c271d2" fill-rule="evenodd" fill-opacity="1" stroke="#000000" stroke-opacity="1" stroke-width="3.2"></circle>
<path clip-path="url(#clip010)" d="M319.649 352.309 L751.08 352.309 L751.08 93.1086 L319.649 93.1086  Z" fill="#ffffff" fill-rule="evenodd" fill-opacity="1"></path>
<polyline clip-path="url(#clip010)" style="stroke:#000000; stroke-linecap:round; stroke-linejoin:round; stroke-width:4; stroke-opacity:1; fill:none" points="319.649,352.309 751.08,352.309 751.08,93.1086 319.649,93.1086 319.649,352.309 "></polyline>
<polyline clip-path="url(#clip010)" style="stroke:#009af9; stroke-linecap:round; stroke-linejoin:round; stroke-width:16; stroke-opacity:1; fill:none" points="343.018,144.949 483.232,144.949 "></polyline>
<path clip-path="url(#clip010)" d="M506.602 127.669 L513.569 127.669 L522.388 151.187 L531.254 127.669 L538.222 127.669 L538.222 162.229 L533.662 162.229 L533.662 131.882 L524.75 155.585 L520.051 155.585 L511.139 131.882 L511.139 162.229 L506.602 162.229 L506.602 127.669 Z" fill="#000000" fill-rule="nonzero" fill-opacity="1"></path><path clip-path="url(#clip010)" d="M557.365 139.289 Q553.939 139.289 551.948 141.974 Q549.958 144.636 549.958 149.289 Q549.958 153.942 551.925 156.627 Q553.916 159.289 557.365 159.289 Q560.768 159.289 562.759 156.604 Q564.749 153.918 564.749 149.289 Q564.749 144.682 562.759 141.997 Q560.768 139.289 557.365 139.289 M557.365 135.678 Q562.921 135.678 566.092 139.289 Q569.263 142.9 569.263 149.289 Q569.263 155.655 566.092 159.289 Q562.921 162.9 557.365 162.9 Q551.786 162.9 548.615 159.289 Q545.467 155.655 545.467 149.289 Q545.467 142.9 548.615 139.289 Q551.786 135.678 557.365 135.678 Z" fill="#000000" fill-rule="nonzero" fill-opacity="1"></path><path clip-path="url(#clip010)" d="M597.874 146.581 L597.874 162.229 L593.615 162.229 L593.615 146.719 Q593.615 143.039 592.18 141.21 Q590.745 139.382 587.874 139.382 Q584.425 139.382 582.434 141.581 Q580.444 143.78 580.444 147.576 L580.444 162.229 L576.161 162.229 L576.161 136.303 L580.444 136.303 L580.444 140.331 Q581.971 137.993 584.032 136.835 Q586.115 135.678 588.823 135.678 Q593.291 135.678 595.583 138.456 Q597.874 141.21 597.874 146.581 Z" fill="#000000" fill-rule="nonzero" fill-opacity="1"></path><path clip-path="url(#clip010)" d="M616.416 139.289 Q612.99 139.289 610.999 141.974 Q609.008 144.636 609.008 149.289 Q609.008 153.942 610.976 156.627 Q612.967 159.289 616.416 159.289 Q619.818 159.289 621.809 156.604 Q623.8 153.918 623.8 149.289 Q623.8 144.682 621.809 141.997 Q619.818 139.289 616.416 139.289 M616.416 135.678 Q621.971 135.678 625.143 139.289 Q628.314 142.9 628.314 149.289 Q628.314 155.655 625.143 159.289 Q621.971 162.9 616.416 162.9 Q610.837 162.9 607.666 159.289 Q604.518 155.655 604.518 149.289 Q604.518 142.9 607.666 139.289 Q610.837 135.678 616.416 135.678 Z" fill="#000000" fill-rule="nonzero" fill-opacity="1"></path><path clip-path="url(#clip010)" d="M655.559 141.28 Q657.156 138.409 659.378 137.044 Q661.601 135.678 664.61 135.678 Q668.661 135.678 670.86 138.525 Q673.059 141.349 673.059 146.581 L673.059 162.229 L668.777 162.229 L668.777 146.719 Q668.777 142.993 667.457 141.187 Q666.138 139.382 663.429 139.382 Q660.119 139.382 658.198 141.581 Q656.277 143.78 656.277 147.576 L656.277 162.229 L651.994 162.229 L651.994 146.719 Q651.994 142.969 650.675 141.187 Q649.355 139.382 646.601 139.382 Q643.337 139.382 641.416 141.604 Q639.494 143.803 639.494 147.576 L639.494 162.229 L635.212 162.229 L635.212 136.303 L639.494 136.303 L639.494 140.331 Q640.953 137.946 642.99 136.812 Q645.027 135.678 647.828 135.678 Q650.652 135.678 652.619 137.113 Q654.61 138.548 655.559 141.28 Z" fill="#000000" fill-rule="nonzero" fill-opacity="1"></path><path clip-path="url(#clip010)" d="M703.73 148.201 L703.73 150.284 L684.147 150.284 Q684.425 154.682 686.786 156.997 Q689.17 159.289 693.406 159.289 Q695.86 159.289 698.151 158.687 Q700.466 158.085 702.735 156.881 L702.735 160.909 Q700.443 161.881 698.036 162.391 Q695.628 162.9 693.151 162.9 Q686.948 162.9 683.314 159.289 Q679.702 155.678 679.702 149.52 Q679.702 143.155 683.128 139.428 Q686.577 135.678 692.411 135.678 Q697.642 135.678 700.675 139.057 Q703.73 142.414 703.73 148.201 M699.471 146.951 Q699.425 143.456 697.503 141.372 Q695.605 139.289 692.457 139.289 Q688.892 139.289 686.739 141.303 Q684.61 143.317 684.286 146.974 L699.471 146.951 Z" fill="#000000" fill-rule="nonzero" fill-opacity="1"></path><path clip-path="url(#clip010)" d="M725.744 140.284 Q725.026 139.868 724.17 139.682 Q723.336 139.474 722.318 139.474 Q718.707 139.474 716.762 141.835 Q714.841 144.173 714.841 148.571 L714.841 162.229 L710.559 162.229 L710.559 136.303 L714.841 136.303 L714.841 140.331 Q716.184 137.969 718.336 136.835 Q720.489 135.678 723.568 135.678 Q724.008 135.678 724.54 135.747 Q725.073 135.794 725.721 135.909 L725.744 140.284 Z" fill="#000000" fill-rule="nonzero" fill-opacity="1"></path><polyline clip-path="url(#clip010)" style="stroke:#e26f46; stroke-linecap:round; stroke-linejoin:round; stroke-width:16; stroke-opacity:1; fill:none" points="343.018,196.789 483.232,196.789 "></polyline>
<path clip-path="url(#clip010)" d="M511.277 183.351 L511.277 210.226 L516.926 210.226 Q524.078 210.226 527.388 206.985 Q530.722 203.745 530.722 196.754 Q530.722 189.809 527.388 186.592 Q524.078 183.351 516.926 183.351 L511.277 183.351 M506.602 179.509 L516.208 179.509 Q526.254 179.509 530.953 183.698 Q535.652 187.865 535.652 196.754 Q535.652 205.689 530.93 209.879 Q526.208 214.069 516.208 214.069 L506.602 214.069 L506.602 179.509 Z" fill="#000000" fill-rule="nonzero" fill-opacity="1"></path><path clip-path="url(#clip010)" d="M542.921 188.143 L547.18 188.143 L547.18 214.069 L542.921 214.069 L542.921 188.143 M542.921 178.05 L547.18 178.05 L547.18 183.444 L542.921 183.444 L542.921 178.05 Z" fill="#000000" fill-rule="nonzero" fill-opacity="1"></path><path clip-path="url(#clip010)" d="M576.277 193.12 Q577.874 190.249 580.096 188.884 Q582.319 187.518 585.328 187.518 Q589.379 187.518 591.578 190.365 Q593.777 193.189 593.777 198.421 L593.777 214.069 L589.495 214.069 L589.495 198.559 Q589.495 194.833 588.175 193.027 Q586.856 191.222 584.147 191.222 Q580.837 191.222 578.916 193.421 Q576.995 195.62 576.995 199.416 L576.995 214.069 L572.712 214.069 L572.712 198.559 Q572.712 194.809 571.393 193.027 Q570.073 191.222 567.319 191.222 Q564.055 191.222 562.134 193.444 Q560.212 195.643 560.212 199.416 L560.212 214.069 L555.93 214.069 L555.93 188.143 L560.212 188.143 L560.212 192.171 Q561.671 189.786 563.708 188.652 Q565.745 187.518 568.546 187.518 Q571.37 187.518 573.337 188.953 Q575.328 190.388 576.277 193.12 Z" fill="#000000" fill-rule="nonzero" fill-opacity="1"></path><path clip-path="url(#clip010)" d="M624.448 200.041 L624.448 202.124 L604.865 202.124 Q605.143 206.522 607.504 208.837 Q609.888 211.129 614.124 211.129 Q616.578 211.129 618.869 210.527 Q621.184 209.925 623.453 208.721 L623.453 212.749 Q621.161 213.721 618.754 214.231 Q616.346 214.74 613.869 214.74 Q607.666 214.74 604.032 211.129 Q600.42 207.518 600.42 201.36 Q600.42 194.995 603.846 191.268 Q607.295 187.518 613.129 187.518 Q618.36 187.518 621.393 190.897 Q624.448 194.254 624.448 200.041 M620.189 198.791 Q620.143 195.296 618.221 193.212 Q616.323 191.129 613.175 191.129 Q609.61 191.129 607.457 193.143 Q605.328 195.157 605.004 198.814 L620.189 198.791 Z" fill="#000000" fill-rule="nonzero" fill-opacity="1"></path><path clip-path="url(#clip010)" d="M646.462 192.124 Q645.744 191.708 644.888 191.522 Q644.054 191.314 643.036 191.314 Q639.425 191.314 637.48 193.675 Q635.559 196.013 635.559 200.411 L635.559 214.069 L631.277 214.069 L631.277 188.143 L635.559 188.143 L635.559 192.171 Q636.902 189.809 639.055 188.675 Q641.207 187.518 644.286 187.518 Q644.726 187.518 645.258 187.587 Q645.791 187.634 646.439 187.749 L646.462 192.124 Z" fill="#000000" fill-rule="nonzero" fill-opacity="1"></path><polyline clip-path="url(#clip010)" style="stroke:#3da44d; stroke-linecap:round; stroke-linejoin:round; stroke-width:16; stroke-opacity:1; fill:none" points="343.018,248.629 483.232,248.629 "></polyline>
<path clip-path="url(#clip010)" d="M506.602 231.349 L535.837 231.349 L535.837 235.284 L523.569 235.284 L523.569 265.909 L518.87 265.909 L518.87 235.284 L506.602 235.284 L506.602 231.349 Z" fill="#000000" fill-rule="nonzero" fill-opacity="1"></path><path clip-path="url(#clip010)" d="M548.222 243.964 Q547.504 243.548 546.648 243.362 Q545.814 243.154 544.796 243.154 Q541.185 243.154 539.24 245.515 Q537.319 247.853 537.319 252.251 L537.319 265.909 L533.037 265.909 L533.037 239.983 L537.319 239.983 L537.319 244.011 Q538.662 241.649 540.814 240.515 Q542.967 239.358 546.046 239.358 Q546.486 239.358 547.018 239.427 Q547.55 239.474 548.199 239.589 L548.222 243.964 Z" fill="#000000" fill-rule="nonzero" fill-opacity="1"></path><path clip-path="url(#clip010)" d="M552.689 239.983 L556.948 239.983 L556.948 265.909 L552.689 265.909 L552.689 239.983 M552.689 229.89 L556.948 229.89 L556.948 235.284 L552.689 235.284 L552.689 229.89 Z" fill="#000000" fill-rule="nonzero" fill-opacity="1"></path><path clip-path="url(#clip010)" d="M586.046 244.96 Q587.643 242.089 589.865 240.724 Q592.087 239.358 595.096 239.358 Q599.147 239.358 601.346 242.205 Q603.545 245.029 603.545 250.261 L603.545 265.909 L599.263 265.909 L599.263 250.399 Q599.263 246.673 597.944 244.867 Q596.624 243.062 593.916 243.062 Q590.606 243.062 588.684 245.261 Q586.763 247.46 586.763 251.256 L586.763 265.909 L582.481 265.909 L582.481 250.399 Q582.481 246.649 581.161 244.867 Q579.842 243.062 577.087 243.062 Q573.823 243.062 571.902 245.284 Q569.981 247.483 569.981 251.256 L569.981 265.909 L565.698 265.909 L565.698 239.983 L569.981 239.983 L569.981 244.011 Q571.439 241.626 573.476 240.492 Q575.513 239.358 578.314 239.358 Q581.138 239.358 583.106 240.793 Q585.096 242.228 586.046 244.96 Z" fill="#000000" fill-rule="nonzero" fill-opacity="1"></path><path clip-path="url(#clip010)" d="M634.217 251.881 L634.217 253.964 L614.633 253.964 Q614.911 258.362 617.272 260.677 Q619.656 262.969 623.893 262.969 Q626.346 262.969 628.638 262.367 Q630.953 261.765 633.221 260.561 L633.221 264.589 Q630.93 265.561 628.522 266.071 Q626.115 266.58 623.638 266.58 Q617.434 266.58 613.8 262.969 Q610.189 259.358 610.189 253.2 Q610.189 246.835 613.615 243.108 Q617.064 239.358 622.897 239.358 Q628.129 239.358 631.161 242.737 Q634.217 246.094 634.217 251.881 M629.957 250.631 Q629.911 247.136 627.99 245.052 Q626.092 242.969 622.943 242.969 Q619.379 242.969 617.226 244.983 Q615.096 246.997 614.772 250.654 L629.957 250.631 Z" fill="#000000" fill-rule="nonzero" fill-opacity="1"></path><path clip-path="url(#clip010)" d="M656.23 243.964 Q655.513 243.548 654.656 243.362 Q653.823 243.154 652.804 243.154 Q649.193 243.154 647.249 245.515 Q645.328 247.853 645.328 252.251 L645.328 265.909 L641.045 265.909 L641.045 239.983 L645.328 239.983 L645.328 244.011 Q646.67 241.649 648.823 240.515 Q650.976 239.358 654.054 239.358 Q654.494 239.358 655.027 239.427 Q655.559 239.474 656.207 239.589 L656.23 243.964 Z" fill="#000000" fill-rule="nonzero" fill-opacity="1"></path><circle clip-path="url(#clip010)" cx="413.125" cy="300.469" r="21.6847" fill="#c271d2" fill-rule="evenodd" fill-opacity="1" stroke="#000000" stroke-opacity="1" stroke-width="2.40941"></circle>
<path clip-path="url(#clip010)" d="M522.62 286.36 Q517.527 286.36 514.518 290.156 Q511.532 293.952 511.532 300.503 Q511.532 307.031 514.518 310.827 Q517.527 314.624 522.62 314.624 Q527.713 314.624 530.675 310.827 Q533.662 307.031 533.662 300.503 Q533.662 293.952 530.675 290.156 Q527.713 286.36 522.62 286.36 M522.62 282.564 Q529.888 282.564 534.24 287.448 Q538.592 292.309 538.592 300.503 Q538.592 308.675 534.24 313.559 Q529.888 318.42 522.62 318.42 Q515.328 318.42 510.953 313.559 Q506.602 308.698 506.602 300.503 Q506.602 292.309 510.953 287.448 Q515.328 282.564 522.62 282.564 Z" fill="#000000" fill-rule="nonzero" fill-opacity="1"></path><path clip-path="url(#clip010)" d="M564.333 304.809 Q564.333 300.11 562.388 297.448 Q560.467 294.763 557.087 294.763 Q553.708 294.763 551.763 297.448 Q549.842 300.11 549.842 304.809 Q549.842 309.508 551.763 312.193 Q553.708 314.855 557.087 314.855 Q560.467 314.855 562.388 312.193 Q564.333 309.508 564.333 304.809 M549.842 295.758 Q551.185 293.443 553.222 292.332 Q555.282 291.198 558.129 291.198 Q562.851 291.198 565.791 294.948 Q568.754 298.698 568.754 304.809 Q568.754 310.92 565.791 314.67 Q562.851 318.42 558.129 318.42 Q555.282 318.42 553.222 317.309 Q551.185 316.175 549.842 313.86 L549.842 317.749 L545.56 317.749 L545.56 281.73 L549.842 281.73 L549.842 295.758 Z" fill="#000000" fill-rule="nonzero" fill-opacity="1"></path><path clip-path="url(#clip010)" d="M592.342 292.587 L592.342 296.614 Q590.536 295.689 588.592 295.226 Q586.647 294.763 584.564 294.763 Q581.393 294.763 579.796 295.735 Q578.221 296.707 578.221 298.651 Q578.221 300.133 579.356 300.989 Q580.49 301.823 583.916 302.587 L585.374 302.911 Q589.911 303.883 591.809 305.665 Q593.731 307.425 593.731 310.596 Q593.731 314.207 590.86 316.313 Q588.013 318.42 583.013 318.42 Q580.93 318.42 578.661 318.003 Q576.416 317.61 573.916 316.8 L573.916 312.401 Q576.277 313.628 578.569 314.253 Q580.86 314.855 583.106 314.855 Q586.115 314.855 587.735 313.837 Q589.356 312.795 589.356 310.92 Q589.356 309.184 588.175 308.258 Q587.018 307.332 583.059 306.476 L581.578 306.128 Q577.62 305.295 575.86 303.582 Q574.101 301.846 574.101 298.837 Q574.101 295.179 576.694 293.189 Q579.286 291.198 584.055 291.198 Q586.416 291.198 588.499 291.545 Q590.583 291.892 592.342 292.587 Z" fill="#000000" fill-rule="nonzero" fill-opacity="1"></path><path clip-path="url(#clip010)" d="M622.689 303.721 L622.689 305.804 L603.106 305.804 Q603.383 310.202 605.744 312.517 Q608.129 314.809 612.365 314.809 Q614.819 314.809 617.11 314.207 Q619.425 313.605 621.693 312.401 L621.693 316.429 Q619.402 317.401 616.994 317.911 Q614.587 318.42 612.11 318.42 Q605.907 318.42 602.272 314.809 Q598.661 311.198 598.661 305.04 Q598.661 298.675 602.087 294.948 Q605.536 291.198 611.369 291.198 Q616.601 291.198 619.633 294.577 Q622.689 297.934 622.689 303.721 M618.43 302.471 Q618.383 298.976 616.462 296.892 Q614.564 294.809 611.416 294.809 Q607.851 294.809 605.698 296.823 Q603.569 298.837 603.245 302.494 L618.43 302.471 Z" fill="#000000" fill-rule="nonzero" fill-opacity="1"></path><path clip-path="url(#clip010)" d="M644.703 295.804 Q643.985 295.388 643.129 295.202 Q642.295 294.994 641.277 294.994 Q637.666 294.994 635.721 297.355 Q633.8 299.693 633.8 304.091 L633.8 317.749 L629.518 317.749 L629.518 291.823 L633.8 291.823 L633.8 295.851 Q635.142 293.489 637.295 292.355 Q639.448 291.198 642.527 291.198 Q642.967 291.198 643.499 291.267 Q644.031 291.314 644.679 291.429 L644.703 295.804 Z" fill="#000000" fill-rule="nonzero" fill-opacity="1"></path><path clip-path="url(#clip010)" d="M646.115 291.823 L650.629 291.823 L658.73 313.582 L666.832 291.823 L671.346 291.823 L661.624 317.749 L655.837 317.749 L646.115 291.823 Z" fill="#000000" fill-rule="nonzero" fill-opacity="1"></path><path clip-path="url(#clip010)" d="M699.401 303.721 L699.401 305.804 L679.818 305.804 Q680.096 310.202 682.457 312.517 Q684.841 314.809 689.077 314.809 Q691.531 314.809 693.823 314.207 Q696.138 313.605 698.406 312.401 L698.406 316.429 Q696.114 317.401 693.707 317.911 Q691.3 318.42 688.823 318.42 Q682.619 318.42 678.985 314.809 Q675.374 311.198 675.374 305.04 Q675.374 298.675 678.8 294.948 Q682.249 291.198 688.082 291.198 Q693.313 291.198 696.346 294.577 Q699.401 297.934 699.401 303.721 M695.142 302.471 Q695.096 298.976 693.175 296.892 Q691.276 294.809 688.128 294.809 Q684.564 294.809 682.411 296.823 Q680.281 298.837 679.957 302.494 L695.142 302.471 Z" fill="#000000" fill-rule="nonzero" fill-opacity="1"></path><path clip-path="url(#clip010)" d="M723.452 295.758 L723.452 281.73 L727.711 281.73 L727.711 317.749 L723.452 317.749 L723.452 313.86 Q722.11 316.175 720.049 317.309 Q718.012 318.42 715.142 318.42 Q710.443 318.42 707.48 314.67 Q704.54 310.92 704.54 304.809 Q704.54 298.698 707.48 294.948 Q710.443 291.198 715.142 291.198 Q718.012 291.198 720.049 292.332 Q722.11 293.443 723.452 295.758 M708.938 304.809 Q708.938 309.508 710.86 312.193 Q712.804 314.855 716.184 314.855 Q719.563 314.855 721.508 312.193 Q723.452 309.508 723.452 304.809 Q723.452 300.11 721.508 297.448 Q719.563 294.763 716.184 294.763 Q712.804 294.763 710.86 297.448 Q708.938 300.11 708.938 304.809 Z" fill="#000000" fill-rule="nonzero" fill-opacity="1"></path></svg>